G04 Layer_Color=16711935*
%FSLAX24Y24*%
%MOIN*%
G70*
G01*
G75*
%ADD81C,0.0010*%
G36*
X7812Y691D02*
X7555Y534D01*
X7812D01*
Y462D01*
X7428D01*
Y540D01*
X7679Y694D01*
X7428D01*
Y766D01*
X7812D01*
Y691D01*
D02*
G37*
G36*
X7627Y395D02*
X7632Y395D01*
X7638Y395D01*
X7644Y394D01*
X7651Y393D01*
X7659Y392D01*
X7667Y391D01*
X7683Y388D01*
X7692Y386D01*
X7700Y384D01*
X7708Y381D01*
X7715Y378D01*
X7716Y378D01*
X7716Y377D01*
X7718Y377D01*
X7720Y376D01*
X7723Y374D01*
X7726Y373D01*
X7729Y371D01*
X7733Y369D01*
X7741Y364D01*
X7750Y357D01*
X7759Y351D01*
X7768Y342D01*
X7768Y342D01*
X7769Y342D01*
X7770Y340D01*
X7772Y338D01*
X7774Y336D01*
X7776Y334D01*
X7779Y331D01*
X7781Y328D01*
X7784Y324D01*
X7787Y320D01*
X7793Y312D01*
X7798Y303D01*
X7803Y293D01*
X7803Y293D01*
X7803Y291D01*
X7804Y289D01*
X7805Y287D01*
X7806Y283D01*
X7808Y279D01*
X7809Y274D01*
X7810Y269D01*
X7812Y263D01*
X7813Y257D01*
X7814Y250D01*
X7815Y243D01*
X7817Y235D01*
X7817Y227D01*
X7818Y219D01*
X7818Y210D01*
Y210D01*
Y209D01*
Y208D01*
Y206D01*
X7818Y205D01*
Y202D01*
X7817Y199D01*
X7817Y196D01*
X7817Y193D01*
X7816Y189D01*
X7815Y181D01*
X7814Y171D01*
X7811Y161D01*
X7809Y151D01*
X7805Y140D01*
X7801Y128D01*
X7796Y117D01*
X7789Y106D01*
X7783Y95D01*
X7775Y84D01*
X7765Y74D01*
X7765Y74D01*
X7763Y72D01*
X7760Y70D01*
X7755Y66D01*
X7750Y63D01*
X7744Y58D01*
X7736Y54D01*
X7727Y49D01*
X7717Y44D01*
X7706Y39D01*
X7694Y35D01*
X7681Y31D01*
X7667Y28D01*
X7652Y25D01*
X7636Y24D01*
X7619Y23D01*
X7615D01*
X7613Y24D01*
X7610D01*
X7607Y24D01*
X7604D01*
X7600Y25D01*
X7596Y25D01*
X7587Y26D01*
X7577Y28D01*
X7566Y30D01*
X7554Y32D01*
X7542Y36D01*
X7531Y40D01*
X7518Y44D01*
X7506Y50D01*
X7495Y57D01*
X7484Y65D01*
X7473Y74D01*
X7473Y74D01*
X7471Y76D01*
X7469Y79D01*
X7465Y83D01*
X7461Y88D01*
X7457Y94D01*
X7452Y102D01*
X7447Y110D01*
X7442Y119D01*
X7438Y129D01*
X7433Y140D01*
X7429Y152D01*
X7426Y165D01*
X7423Y179D01*
X7422Y193D01*
X7421Y209D01*
Y209D01*
Y210D01*
Y211D01*
Y213D01*
X7421Y215D01*
Y217D01*
X7422Y220D01*
X7422Y223D01*
X7422Y227D01*
X7423Y230D01*
X7424Y239D01*
X7425Y248D01*
X7428Y258D01*
X7430Y269D01*
X7434Y280D01*
X7438Y291D01*
X7443Y303D01*
X7449Y314D01*
X7456Y325D01*
X7464Y335D01*
X7473Y345D01*
X7474Y346D01*
X7476Y347D01*
X7478Y350D01*
X7483Y353D01*
X7488Y357D01*
X7494Y361D01*
X7502Y366D01*
X7511Y370D01*
X7520Y375D01*
X7531Y380D01*
X7543Y384D01*
X7556Y388D01*
X7570Y391D01*
X7584Y393D01*
X7600Y395D01*
X7617Y395D01*
X7623D01*
X7627Y395D01*
D02*
G37*
G36*
X15012Y4642D02*
X15017Y4642D01*
X15023Y4641D01*
X15029Y4641D01*
X15037Y4639D01*
X15045Y4638D01*
X15054Y4636D01*
X15062Y4634D01*
X15071Y4631D01*
X15080Y4627D01*
X15089Y4623D01*
X15098Y4618D01*
X15106Y4613D01*
X15114Y4607D01*
X15114Y4606D01*
X15115Y4605D01*
X15117Y4603D01*
X15120Y4600D01*
X15123Y4597D01*
X15126Y4592D01*
X15130Y4587D01*
X15133Y4582D01*
X15137Y4575D01*
X15141Y4568D01*
X15144Y4561D01*
X15147Y4553D01*
X15149Y4544D01*
X15151Y4535D01*
X15153Y4525D01*
X15153Y4515D01*
Y4515D01*
Y4515D01*
Y4514D01*
Y4512D01*
X15153Y4509D01*
X15152Y4505D01*
X15152Y4500D01*
X15151Y4494D01*
X15150Y4487D01*
X15148Y4480D01*
X15146Y4472D01*
X15143Y4464D01*
X15140Y4456D01*
X15136Y4448D01*
X15131Y4440D01*
X15126Y4432D01*
X15119Y4424D01*
X15112Y4417D01*
X15111Y4417D01*
X15110Y4416D01*
X15108Y4414D01*
X15104Y4412D01*
X15100Y4409D01*
X15094Y4406D01*
X15088Y4403D01*
X15081Y4399D01*
X15073Y4396D01*
X15063Y4393D01*
X15053Y4390D01*
X15042Y4388D01*
X15029Y4385D01*
X15016Y4384D01*
X15002Y4383D01*
X14986D01*
Y4567D01*
X14985D01*
X14983Y4567D01*
X14981D01*
X14978Y4566D01*
X14975Y4566D01*
X14971Y4565D01*
X14968Y4564D01*
X14959Y4562D01*
X14951Y4559D01*
X14947Y4557D01*
X14943Y4555D01*
X14939Y4552D01*
X14935Y4549D01*
X14935Y4549D01*
X14935Y4549D01*
X14934Y4548D01*
X14932Y4546D01*
X14931Y4545D01*
X14930Y4543D01*
X14928Y4540D01*
X14926Y4538D01*
X14923Y4532D01*
X14920Y4524D01*
X14919Y4520D01*
X14918Y4516D01*
X14917Y4512D01*
X14917Y4507D01*
Y4507D01*
Y4506D01*
Y4505D01*
X14917Y4504D01*
X14918Y4501D01*
X14918Y4497D01*
X14919Y4492D01*
X14921Y4488D01*
X14923Y4483D01*
X14927Y4478D01*
X14927Y4478D01*
X14928Y4476D01*
X14931Y4474D01*
X14934Y4471D01*
X14938Y4469D01*
X14943Y4466D01*
X14950Y4463D01*
X14957Y4460D01*
X14945Y4387D01*
X14945Y4387D01*
X14943Y4388D01*
X14941Y4388D01*
X14938Y4390D01*
X14935Y4391D01*
X14931Y4393D01*
X14927Y4395D01*
X14922Y4398D01*
X14917Y4401D01*
X14912Y4404D01*
X14907Y4408D01*
X14902Y4412D01*
X14897Y4416D01*
X14892Y4421D01*
X14887Y4426D01*
X14883Y4432D01*
X14883Y4432D01*
X14882Y4433D01*
X14881Y4435D01*
X14880Y4437D01*
X14878Y4440D01*
X14877Y4444D01*
X14875Y4448D01*
X14873Y4453D01*
X14871Y4458D01*
X14869Y4464D01*
X14867Y4470D01*
X14866Y4477D01*
X14864Y4484D01*
X14863Y4491D01*
X14863Y4500D01*
X14862Y4508D01*
Y4508D01*
Y4509D01*
Y4510D01*
Y4511D01*
X14863Y4513D01*
Y4515D01*
X14863Y4520D01*
X14864Y4526D01*
X14865Y4533D01*
X14866Y4540D01*
X14868Y4549D01*
X14871Y4557D01*
X14874Y4566D01*
X14878Y4575D01*
X14882Y4584D01*
X14888Y4592D01*
X14894Y4600D01*
X14901Y4608D01*
X14909Y4615D01*
X14910Y4615D01*
X14911Y4616D01*
X14913Y4618D01*
X14916Y4619D01*
X14920Y4621D01*
X14924Y4624D01*
X14930Y4626D01*
X14936Y4629D01*
X14942Y4631D01*
X14950Y4634D01*
X14957Y4636D01*
X14966Y4638D01*
X14975Y4640D01*
X14985Y4641D01*
X14995Y4642D01*
X15005Y4642D01*
X15010D01*
X15012Y4642D01*
D02*
G37*
G36*
X7024Y-479D02*
Y-479D01*
Y-481D01*
Y-483D01*
Y-486D01*
X7024Y-491D01*
Y-495D01*
X7024Y-500D01*
X7023Y-506D01*
X7022Y-518D01*
X7021Y-530D01*
X7020Y-536D01*
X7019Y-541D01*
X7018Y-547D01*
X7017Y-552D01*
Y-552D01*
X7016Y-553D01*
X7016Y-555D01*
X7015Y-557D01*
X7014Y-560D01*
X7012Y-564D01*
X7010Y-568D01*
X7009Y-572D01*
X7006Y-576D01*
X7004Y-581D01*
X7001Y-586D01*
X6997Y-590D01*
X6994Y-595D01*
X6990Y-600D01*
X6986Y-605D01*
X6981Y-610D01*
X6981Y-610D01*
X6980Y-611D01*
X6979Y-612D01*
X6977Y-614D01*
X6974Y-616D01*
X6971Y-618D01*
X6968Y-621D01*
X6964Y-623D01*
X6960Y-626D01*
X6955Y-629D01*
X6950Y-632D01*
X6944Y-635D01*
X6938Y-638D01*
X6932Y-641D01*
X6919Y-646D01*
X6919D01*
X6918Y-647D01*
X6915Y-647D01*
X6913Y-648D01*
X6909Y-649D01*
X6905Y-650D01*
X6900Y-652D01*
X6894Y-653D01*
X6888Y-654D01*
X6881Y-655D01*
X6873Y-656D01*
X6865Y-657D01*
X6857Y-658D01*
X6848Y-658D01*
X6838Y-659D01*
X6824D01*
X6820Y-659D01*
X6816D01*
X6811Y-658D01*
X6806Y-658D01*
X6800Y-657D01*
X6794Y-657D01*
X6787Y-656D01*
X6774Y-654D01*
X6760Y-651D01*
X6747Y-647D01*
X6746Y-647D01*
X6745Y-647D01*
X6742Y-646D01*
X6740Y-645D01*
X6736Y-643D01*
X6732Y-641D01*
X6728Y-639D01*
X6723Y-637D01*
X6717Y-634D01*
X6712Y-631D01*
X6700Y-624D01*
X6689Y-615D01*
X6684Y-611D01*
X6679Y-606D01*
X6679Y-606D01*
X6678Y-605D01*
X6677Y-604D01*
X6676Y-602D01*
X6674Y-600D01*
X6672Y-598D01*
X6670Y-595D01*
X6668Y-592D01*
X6665Y-588D01*
X6663Y-584D01*
X6660Y-579D01*
X6658Y-574D01*
X6655Y-569D01*
X6653Y-564D01*
X6650Y-558D01*
X6648Y-552D01*
Y-551D01*
X6648Y-550D01*
X6648Y-549D01*
X6647Y-547D01*
X6646Y-545D01*
X6646Y-541D01*
X6645Y-538D01*
X6644Y-533D01*
X6644Y-529D01*
X6643Y-524D01*
X6642Y-518D01*
X6641Y-512D01*
X6641Y-505D01*
X6640Y-498D01*
X6640Y-491D01*
Y-483D01*
Y-337D01*
X7024D01*
Y-479D01*
D02*
G37*
G36*
X6772Y322D02*
X6772D01*
X6771Y322D01*
X6768Y322D01*
X6766Y321D01*
X6763Y320D01*
X6759Y319D01*
X6755Y318D01*
X6751Y316D01*
X6742Y313D01*
X6733Y308D01*
X6728Y305D01*
X6724Y302D01*
X6720Y299D01*
X6716Y295D01*
X6716Y294D01*
X6716Y294D01*
X6715Y293D01*
X6713Y291D01*
X6712Y289D01*
X6711Y286D01*
X6709Y283D01*
X6708Y280D01*
X6706Y276D01*
X6704Y272D01*
X6703Y267D01*
X6701Y262D01*
X6700Y257D01*
X6699Y251D01*
X6699Y245D01*
X6698Y239D01*
Y238D01*
Y237D01*
Y235D01*
X6699Y232D01*
X6699Y229D01*
X6699Y226D01*
X6700Y222D01*
X6700Y217D01*
X6702Y208D01*
X6705Y199D01*
X6707Y194D01*
X6709Y190D01*
X6711Y186D01*
X6714Y182D01*
X6714Y182D01*
X6715Y181D01*
X6716Y180D01*
X6717Y179D01*
X6720Y176D01*
X6725Y172D01*
X6730Y169D01*
X6737Y166D01*
X6740Y165D01*
X6743Y164D01*
X6747Y163D01*
X6751Y163D01*
X6753D01*
X6756Y163D01*
X6759Y164D01*
X6763Y165D01*
X6767Y166D01*
X6771Y168D01*
X6774Y171D01*
X6775Y171D01*
X6776Y172D01*
X6778Y175D01*
X6780Y177D01*
X6783Y181D01*
X6786Y186D01*
X6788Y192D01*
X6791Y199D01*
X6791Y200D01*
X6792Y201D01*
X6792Y202D01*
X6793Y204D01*
X6793Y206D01*
X6794Y209D01*
X6795Y212D01*
X6796Y216D01*
X6797Y220D01*
X6799Y225D01*
X6800Y231D01*
X6802Y237D01*
X6804Y245D01*
X6806Y252D01*
X6808Y261D01*
Y261D01*
X6808Y262D01*
Y263D01*
X6808Y264D01*
X6809Y267D01*
X6811Y271D01*
X6812Y276D01*
X6814Y282D01*
X6816Y289D01*
X6818Y295D01*
X6824Y310D01*
X6830Y324D01*
X6834Y331D01*
X6838Y338D01*
X6842Y343D01*
X6846Y349D01*
X6846Y349D01*
X6847Y350D01*
X6849Y352D01*
X6851Y354D01*
X6855Y357D01*
X6858Y360D01*
X6863Y363D01*
X6867Y366D01*
X6873Y370D01*
X6879Y373D01*
X6885Y376D01*
X6892Y378D01*
X6899Y381D01*
X6907Y382D01*
X6915Y384D01*
X6923Y384D01*
X6926D01*
X6928Y384D01*
X6931Y383D01*
X6934Y383D01*
X6937Y383D01*
X6941Y382D01*
X6949Y380D01*
X6959Y377D01*
X6963Y375D01*
X6968Y373D01*
X6973Y370D01*
X6978Y367D01*
X6978Y367D01*
X6979Y367D01*
X6981Y366D01*
X6982Y364D01*
X6984Y363D01*
X6987Y361D01*
X6990Y358D01*
X6992Y355D01*
X6996Y352D01*
X6999Y348D01*
X7002Y345D01*
X7005Y340D01*
X7009Y336D01*
X7011Y331D01*
X7015Y325D01*
X7017Y320D01*
X7017Y319D01*
X7018Y318D01*
X7018Y317D01*
X7019Y314D01*
X7020Y311D01*
X7021Y308D01*
X7023Y303D01*
X7024Y299D01*
X7025Y293D01*
X7026Y287D01*
X7027Y281D01*
X7028Y275D01*
X7029Y267D01*
X7030Y260D01*
X7030Y252D01*
Y244D01*
Y244D01*
Y243D01*
Y242D01*
Y241D01*
Y239D01*
X7030Y237D01*
X7030Y232D01*
X7030Y226D01*
X7029Y219D01*
X7028Y211D01*
X7026Y203D01*
X7025Y195D01*
X7023Y186D01*
X7020Y177D01*
X7017Y167D01*
X7013Y159D01*
X7009Y150D01*
X7004Y142D01*
X6999Y135D01*
X6998Y135D01*
X6997Y133D01*
X6996Y132D01*
X6993Y129D01*
X6990Y126D01*
X6986Y123D01*
X6981Y120D01*
X6976Y116D01*
X6970Y113D01*
X6964Y109D01*
X6957Y106D01*
X6950Y103D01*
X6942Y101D01*
X6933Y99D01*
X6924Y97D01*
X6914Y96D01*
X6911Y174D01*
X6911D01*
X6912Y174D01*
X6913Y174D01*
X6915Y175D01*
X6918Y175D01*
X6921Y176D01*
X6927Y178D01*
X6934Y181D01*
X6941Y185D01*
X6947Y190D01*
X6951Y192D01*
X6953Y195D01*
X6953Y196D01*
X6954Y196D01*
X6954Y197D01*
X6955Y198D01*
X6956Y200D01*
X6957Y202D01*
X6958Y205D01*
X6960Y208D01*
X6961Y211D01*
X6962Y215D01*
X6963Y219D01*
X6964Y223D01*
X6965Y228D01*
X6966Y233D01*
X6966Y239D01*
Y245D01*
Y245D01*
Y246D01*
Y248D01*
X6966Y250D01*
Y253D01*
X6966Y256D01*
X6965Y260D01*
X6964Y264D01*
X6963Y272D01*
X6960Y281D01*
X6957Y290D01*
X6955Y294D01*
X6952Y298D01*
X6952Y298D01*
X6951Y299D01*
X6948Y301D01*
X6946Y304D01*
X6942Y306D01*
X6938Y308D01*
X6934Y309D01*
X6928Y310D01*
X6928D01*
X6926Y309D01*
X6923Y309D01*
X6920Y308D01*
X6917Y307D01*
X6913Y305D01*
X6909Y302D01*
X6905Y299D01*
Y298D01*
X6904Y298D01*
X6904Y297D01*
X6903Y295D01*
X6902Y293D01*
X6900Y291D01*
X6899Y288D01*
X6897Y284D01*
X6895Y279D01*
X6893Y275D01*
X6891Y269D01*
X6889Y262D01*
X6887Y255D01*
X6884Y246D01*
X6882Y237D01*
X6879Y227D01*
Y227D01*
Y226D01*
X6879Y225D01*
X6878Y222D01*
X6877Y218D01*
X6876Y213D01*
X6874Y208D01*
X6873Y202D01*
X6871Y196D01*
X6869Y189D01*
X6867Y182D01*
X6862Y168D01*
X6859Y161D01*
X6857Y155D01*
X6855Y149D01*
X6852Y143D01*
X6851Y143D01*
X6851Y142D01*
X6850Y141D01*
X6849Y139D01*
X6848Y137D01*
X6846Y134D01*
X6841Y128D01*
X6836Y121D01*
X6829Y114D01*
X6821Y107D01*
X6813Y101D01*
X6812Y101D01*
X6811Y100D01*
X6810Y99D01*
X6808Y99D01*
X6806Y97D01*
X6803Y96D01*
X6800Y95D01*
X6796Y93D01*
X6791Y92D01*
X6787Y90D01*
X6782Y89D01*
X6776Y88D01*
X6771Y87D01*
X6765Y86D01*
X6758Y86D01*
X6752Y85D01*
X6748D01*
X6746Y86D01*
X6743Y86D01*
X6740Y86D01*
X6736Y87D01*
X6731Y88D01*
X6727Y89D01*
X6722Y90D01*
X6717Y91D01*
X6711Y93D01*
X6706Y95D01*
X6700Y98D01*
X6695Y101D01*
X6689Y104D01*
X6689Y104D01*
X6688Y105D01*
X6687Y106D01*
X6685Y107D01*
X6682Y109D01*
X6680Y111D01*
X6677Y114D01*
X6673Y117D01*
X6670Y121D01*
X6666Y125D01*
X6663Y129D01*
X6659Y133D01*
X6656Y138D01*
X6653Y144D01*
X6650Y150D01*
X6647Y156D01*
Y156D01*
X6646Y158D01*
X6645Y159D01*
X6645Y162D01*
X6644Y165D01*
X6642Y169D01*
X6641Y174D01*
X6640Y179D01*
X6639Y185D01*
X6637Y191D01*
X6636Y198D01*
X6635Y205D01*
X6634Y213D01*
X6634Y221D01*
X6633Y230D01*
X6633Y239D01*
Y240D01*
Y240D01*
Y241D01*
Y242D01*
Y244D01*
X6633Y246D01*
X6634Y251D01*
X6634Y257D01*
X6635Y265D01*
X6636Y272D01*
X6637Y281D01*
X6639Y289D01*
X6641Y299D01*
X6644Y308D01*
X6647Y317D01*
X6651Y326D01*
X6655Y335D01*
X6660Y343D01*
X6666Y351D01*
X6667Y352D01*
X6668Y353D01*
X6670Y355D01*
X6673Y357D01*
X6676Y361D01*
X6680Y364D01*
X6685Y368D01*
X6691Y372D01*
X6698Y376D01*
X6705Y380D01*
X6713Y384D01*
X6722Y387D01*
X6732Y391D01*
X6742Y394D01*
X6753Y396D01*
X6765Y398D01*
X6772Y322D01*
D02*
G37*
G36*
X7024Y-264D02*
X6959D01*
Y-57D01*
X6874D01*
Y-250D01*
X6809D01*
Y-57D01*
X6705D01*
Y-272D01*
X6640D01*
Y20D01*
X7024D01*
Y-264D01*
D02*
G37*
G36*
X15012Y4344D02*
X15017Y4344D01*
X15023Y4343D01*
X15029Y4342D01*
X15037Y4341D01*
X15045Y4340D01*
X15054Y4338D01*
X15062Y4335D01*
X15071Y4333D01*
X15080Y4329D01*
X15089Y4325D01*
X15098Y4320D01*
X15106Y4315D01*
X15114Y4308D01*
X15114Y4308D01*
X15115Y4307D01*
X15117Y4305D01*
X15120Y4302D01*
X15123Y4298D01*
X15126Y4294D01*
X15130Y4289D01*
X15133Y4283D01*
X15137Y4277D01*
X15141Y4270D01*
X15144Y4262D01*
X15147Y4254D01*
X15149Y4246D01*
X15151Y4237D01*
X15153Y4227D01*
X15153Y4217D01*
Y4217D01*
Y4216D01*
Y4215D01*
Y4214D01*
X15153Y4211D01*
X15152Y4207D01*
X15152Y4201D01*
X15151Y4195D01*
X15150Y4189D01*
X15148Y4181D01*
X15146Y4174D01*
X15143Y4166D01*
X15140Y4158D01*
X15136Y4150D01*
X15131Y4141D01*
X15126Y4133D01*
X15119Y4126D01*
X15112Y4119D01*
X15111Y4119D01*
X15110Y4117D01*
X15108Y4115D01*
X15104Y4113D01*
X15100Y4110D01*
X15094Y4108D01*
X15088Y4105D01*
X15081Y4101D01*
X15073Y4098D01*
X15063Y4095D01*
X15053Y4092D01*
X15042Y4089D01*
X15029Y4087D01*
X15016Y4086D01*
X15002Y4085D01*
X14986D01*
Y4269D01*
X14985D01*
X14983Y4268D01*
X14981D01*
X14978Y4268D01*
X14975Y4267D01*
X14971Y4267D01*
X14968Y4266D01*
X14959Y4264D01*
X14951Y4261D01*
X14947Y4259D01*
X14943Y4257D01*
X14939Y4254D01*
X14935Y4251D01*
X14935Y4251D01*
X14935Y4250D01*
X14934Y4249D01*
X14932Y4248D01*
X14931Y4247D01*
X14930Y4244D01*
X14928Y4242D01*
X14926Y4239D01*
X14923Y4233D01*
X14920Y4226D01*
X14919Y4222D01*
X14918Y4218D01*
X14917Y4213D01*
X14917Y4209D01*
Y4208D01*
Y4208D01*
Y4207D01*
X14917Y4206D01*
X14918Y4203D01*
X14918Y4199D01*
X14919Y4194D01*
X14921Y4189D01*
X14923Y4185D01*
X14927Y4180D01*
X14927Y4179D01*
X14928Y4178D01*
X14931Y4176D01*
X14934Y4173D01*
X14938Y4170D01*
X14943Y4167D01*
X14950Y4164D01*
X14957Y4162D01*
X14945Y4089D01*
X14945Y4089D01*
X14943Y4089D01*
X14941Y4090D01*
X14938Y4091D01*
X14935Y4093D01*
X14931Y4095D01*
X14927Y4097D01*
X14922Y4100D01*
X14917Y4103D01*
X14912Y4106D01*
X14907Y4110D01*
X14902Y4114D01*
X14897Y4118D01*
X14892Y4123D01*
X14887Y4128D01*
X14883Y4134D01*
X14883Y4134D01*
X14882Y4135D01*
X14881Y4137D01*
X14880Y4139D01*
X14878Y4142D01*
X14877Y4145D01*
X14875Y4150D01*
X14873Y4154D01*
X14871Y4160D01*
X14869Y4165D01*
X14867Y4172D01*
X14866Y4179D01*
X14864Y4186D01*
X14863Y4193D01*
X14863Y4201D01*
X14862Y4210D01*
Y4210D01*
Y4211D01*
Y4212D01*
Y4213D01*
X14863Y4215D01*
Y4217D01*
X14863Y4222D01*
X14864Y4227D01*
X14865Y4234D01*
X14866Y4242D01*
X14868Y4250D01*
X14871Y4259D01*
X14874Y4268D01*
X14878Y4276D01*
X14882Y4286D01*
X14888Y4294D01*
X14894Y4302D01*
X14901Y4310D01*
X14909Y4317D01*
X14910Y4317D01*
X14911Y4318D01*
X14913Y4319D01*
X14916Y4321D01*
X14920Y4323D01*
X14924Y4325D01*
X14930Y4328D01*
X14936Y4330D01*
X14942Y4333D01*
X14950Y4335D01*
X14957Y4338D01*
X14966Y4340D01*
X14975Y4342D01*
X14985Y4343D01*
X14995Y4344D01*
X15005Y4344D01*
X15010D01*
X15012Y4344D01*
D02*
G37*
G36*
X15253Y7192D02*
Y7109D01*
X14869Y6956D01*
Y7040D01*
X14956Y7073D01*
Y7227D01*
X14869Y7259D01*
Y7341D01*
X15253Y7192D01*
D02*
G37*
G36*
X15147Y5716D02*
X15106D01*
X15107Y5715D01*
X15108Y5714D01*
X15110Y5712D01*
X15113Y5709D01*
X15117Y5706D01*
X15121Y5701D01*
X15125Y5696D01*
X15130Y5691D01*
X15134Y5684D01*
X15138Y5677D01*
X15142Y5670D01*
X15146Y5662D01*
X15149Y5653D01*
X15151Y5644D01*
X15152Y5634D01*
X15153Y5624D01*
Y5624D01*
Y5623D01*
Y5622D01*
Y5620D01*
X15153Y5618D01*
Y5615D01*
X15152Y5612D01*
X15152Y5609D01*
X15151Y5602D01*
X15149Y5595D01*
X15147Y5587D01*
X15144Y5580D01*
Y5579D01*
X15144Y5579D01*
X15143Y5578D01*
X15142Y5576D01*
X15141Y5573D01*
X15138Y5568D01*
X15135Y5563D01*
X15131Y5558D01*
X15127Y5554D01*
X15122Y5549D01*
X15121Y5549D01*
X15119Y5548D01*
X15116Y5546D01*
X15113Y5544D01*
X15108Y5541D01*
X15103Y5539D01*
X15097Y5537D01*
X15091Y5535D01*
X15090D01*
X15090Y5534D01*
X15089D01*
X15088Y5534D01*
X15086Y5534D01*
X15083Y5534D01*
X15081Y5533D01*
X15078Y5533D01*
X15075Y5532D01*
X15071Y5532D01*
X15067Y5531D01*
X15063Y5531D01*
X15058Y5531D01*
X15053D01*
X15047Y5530D01*
X14869D01*
Y5604D01*
X15021D01*
X15025Y5604D01*
X15030D01*
X15035Y5605D01*
X15044Y5605D01*
X15054Y5606D01*
X15059Y5607D01*
X15063Y5607D01*
X15066Y5608D01*
X15069Y5609D01*
X15069Y5609D01*
X15071Y5610D01*
X15073Y5611D01*
X15076Y5613D01*
X15080Y5615D01*
X15083Y5617D01*
X15086Y5621D01*
X15089Y5624D01*
X15090Y5625D01*
X15091Y5626D01*
X15092Y5628D01*
X15093Y5631D01*
X15094Y5635D01*
X15096Y5640D01*
X15097Y5645D01*
X15097Y5650D01*
Y5650D01*
Y5651D01*
Y5652D01*
Y5653D01*
X15097Y5655D01*
X15096Y5657D01*
X15096Y5661D01*
X15094Y5667D01*
X15093Y5672D01*
X15090Y5678D01*
X15086Y5684D01*
Y5685D01*
X15086Y5685D01*
X15084Y5687D01*
X15082Y5689D01*
X15079Y5692D01*
X15075Y5696D01*
X15070Y5699D01*
X15064Y5702D01*
X15058Y5705D01*
X15058D01*
X15057Y5705D01*
X15056Y5705D01*
X15055Y5706D01*
X15053Y5706D01*
X15050Y5707D01*
X15047Y5707D01*
X15044Y5708D01*
X15040Y5708D01*
X15035Y5709D01*
X15030Y5709D01*
X15024Y5709D01*
X15018Y5710D01*
X15011Y5710D01*
X15003Y5710D01*
X14869D01*
Y5784D01*
X15147D01*
Y5716D01*
D02*
G37*
G36*
X15253Y4929D02*
X15082D01*
X15253Y4773D01*
Y4669D01*
X15103Y4813D01*
X14869Y4661D01*
Y4761D01*
X15049Y4867D01*
X14984Y4929D01*
X14869D01*
Y5007D01*
X15253D01*
Y4929D01*
D02*
G37*
G36*
X14948Y5475D02*
X14950D01*
X14953Y5475D01*
X14958Y5474D01*
X14965Y5472D01*
X14972Y5471D01*
X14979Y5468D01*
X14986Y5464D01*
X14987D01*
X14987Y5463D01*
X14988Y5463D01*
X14990Y5462D01*
X14993Y5459D01*
X14997Y5456D01*
X15001Y5451D01*
X15006Y5446D01*
X15010Y5440D01*
X15015Y5432D01*
Y5432D01*
X15015Y5432D01*
X15015Y5430D01*
X15016Y5429D01*
X15017Y5427D01*
X15018Y5424D01*
X15019Y5421D01*
X15020Y5417D01*
X15022Y5414D01*
X15023Y5409D01*
X15024Y5404D01*
X15026Y5399D01*
X15028Y5394D01*
X15029Y5388D01*
X15030Y5381D01*
X15032Y5374D01*
Y5373D01*
X15032Y5372D01*
X15033Y5369D01*
X15034Y5366D01*
X15034Y5362D01*
X15035Y5357D01*
X15037Y5351D01*
X15038Y5346D01*
X15041Y5334D01*
X15044Y5322D01*
X15045Y5316D01*
X15047Y5311D01*
X15049Y5306D01*
X15050Y5302D01*
X15061D01*
X15064Y5303D01*
X15069Y5304D01*
X15074Y5305D01*
X15079Y5307D01*
X15084Y5310D01*
X15088Y5313D01*
X15088Y5314D01*
X15089Y5315D01*
X15090Y5316D01*
X15091Y5318D01*
X15091Y5320D01*
X15092Y5322D01*
X15093Y5324D01*
X15094Y5327D01*
X15095Y5330D01*
X15095Y5334D01*
X15096Y5338D01*
X15097Y5343D01*
X15097Y5347D01*
Y5353D01*
Y5353D01*
Y5354D01*
Y5354D01*
Y5356D01*
X15097Y5359D01*
X15096Y5364D01*
X15095Y5369D01*
X15093Y5374D01*
X15092Y5379D01*
X15089Y5383D01*
X15089Y5384D01*
X15088Y5385D01*
X15086Y5387D01*
X15083Y5390D01*
X15079Y5393D01*
X15074Y5395D01*
X15069Y5398D01*
X15062Y5401D01*
X15074Y5468D01*
X15074D01*
X15076Y5467D01*
X15078Y5466D01*
X15081Y5466D01*
X15084Y5464D01*
X15088Y5463D01*
X15092Y5461D01*
X15097Y5459D01*
X15102Y5456D01*
X15106Y5453D01*
X15111Y5450D01*
X15116Y5446D01*
X15121Y5443D01*
X15126Y5439D01*
X15130Y5434D01*
X15134Y5429D01*
X15134Y5429D01*
X15135Y5428D01*
X15136Y5426D01*
X15137Y5424D01*
X15138Y5421D01*
X15140Y5417D01*
X15142Y5413D01*
X15143Y5408D01*
X15145Y5403D01*
X15147Y5397D01*
X15149Y5390D01*
X15150Y5383D01*
X15151Y5375D01*
X15152Y5366D01*
X15153Y5357D01*
X15153Y5347D01*
Y5347D01*
Y5345D01*
Y5343D01*
X15153Y5339D01*
Y5335D01*
X15152Y5330D01*
X15152Y5325D01*
X15151Y5319D01*
X15150Y5308D01*
X15148Y5295D01*
X15147Y5290D01*
X15145Y5284D01*
X15143Y5279D01*
X15141Y5274D01*
Y5274D01*
X15141Y5273D01*
X15140Y5272D01*
X15139Y5270D01*
X15138Y5268D01*
X15137Y5266D01*
X15133Y5261D01*
X15129Y5255D01*
X15124Y5249D01*
X15118Y5244D01*
X15115Y5242D01*
X15112Y5240D01*
X15111D01*
X15111Y5240D01*
X15110Y5239D01*
X15108Y5238D01*
X15106Y5238D01*
X15103Y5237D01*
X15100Y5236D01*
X15097Y5235D01*
X15093Y5234D01*
X15088Y5233D01*
X15082Y5232D01*
X15076Y5232D01*
X15070Y5231D01*
X15062Y5230D01*
X15054Y5230D01*
X15046D01*
X14960Y5231D01*
X14951D01*
X14947Y5231D01*
X14939D01*
X14931Y5230D01*
X14922Y5229D01*
X14913Y5229D01*
X14909Y5228D01*
X14906Y5227D01*
X14905D01*
X14905Y5227D01*
X14904D01*
X14903Y5227D01*
X14901Y5226D01*
X14899Y5226D01*
X14894Y5224D01*
X14889Y5223D01*
X14883Y5220D01*
X14876Y5217D01*
X14869Y5214D01*
Y5287D01*
X14869D01*
X14870Y5287D01*
X14872Y5288D01*
X14874Y5289D01*
X14877Y5290D01*
X14881Y5291D01*
X14885Y5292D01*
X14890Y5294D01*
X14890D01*
X14891Y5294D01*
X14892Y5295D01*
X14893Y5295D01*
X14897Y5296D01*
X14898Y5296D01*
X14899Y5297D01*
X14898Y5297D01*
X14898Y5298D01*
X14897Y5299D01*
X14896Y5300D01*
X14894Y5302D01*
X14893Y5304D01*
X14888Y5309D01*
X14884Y5315D01*
X14879Y5322D01*
X14875Y5329D01*
X14871Y5337D01*
Y5337D01*
X14871Y5338D01*
X14870Y5339D01*
X14870Y5341D01*
X14869Y5343D01*
X14869Y5345D01*
X14868Y5348D01*
X14867Y5351D01*
X14865Y5358D01*
X14864Y5365D01*
X14863Y5374D01*
X14862Y5383D01*
Y5383D01*
Y5385D01*
X14863Y5387D01*
Y5390D01*
X14863Y5393D01*
X14864Y5398D01*
X14864Y5402D01*
X14865Y5407D01*
X14866Y5413D01*
X14868Y5418D01*
X14870Y5424D01*
X14872Y5430D01*
X14875Y5435D01*
X14878Y5441D01*
X14881Y5446D01*
X14885Y5451D01*
X14886Y5451D01*
X14886Y5451D01*
X14888Y5453D01*
X14890Y5454D01*
X14892Y5456D01*
X14895Y5458D01*
X14898Y5461D01*
X14902Y5463D01*
X14906Y5465D01*
X14910Y5467D01*
X14915Y5470D01*
X14920Y5471D01*
X14926Y5473D01*
X14932Y5474D01*
X14938Y5475D01*
X14944Y5475D01*
X14947D01*
X14948Y5475D01*
D02*
G37*
G36*
X15147Y6043D02*
X15106D01*
X15107Y6043D01*
X15108Y6042D01*
X15110Y6040D01*
X15113Y6037D01*
X15117Y6033D01*
X15121Y6029D01*
X15125Y6024D01*
X15130Y6018D01*
X15134Y6012D01*
X15138Y6005D01*
X15142Y5997D01*
X15146Y5989D01*
X15149Y5981D01*
X15151Y5972D01*
X15152Y5962D01*
X15153Y5952D01*
Y5951D01*
Y5950D01*
Y5949D01*
Y5948D01*
X15153Y5945D01*
Y5943D01*
X15152Y5940D01*
X15152Y5937D01*
X15151Y5930D01*
X15149Y5923D01*
X15147Y5915D01*
X15144Y5907D01*
Y5907D01*
X15144Y5906D01*
X15143Y5905D01*
X15142Y5904D01*
X15141Y5900D01*
X15138Y5896D01*
X15135Y5891D01*
X15131Y5886D01*
X15127Y5881D01*
X15122Y5877D01*
X15121Y5876D01*
X15119Y5875D01*
X15116Y5873D01*
X15113Y5871D01*
X15108Y5869D01*
X15103Y5866D01*
X15097Y5864D01*
X15091Y5862D01*
X15090D01*
X15090Y5862D01*
X15089D01*
X15088Y5862D01*
X15086Y5861D01*
X15083Y5861D01*
X15081Y5861D01*
X15078Y5860D01*
X15075Y5860D01*
X15071Y5859D01*
X15067Y5859D01*
X15063Y5859D01*
X15058Y5858D01*
X15053D01*
X15047Y5858D01*
X14869D01*
Y5932D01*
X15021D01*
X15025Y5932D01*
X15030D01*
X15035Y5932D01*
X15044Y5933D01*
X15054Y5934D01*
X15059Y5934D01*
X15063Y5935D01*
X15066Y5936D01*
X15069Y5937D01*
X15069Y5937D01*
X15071Y5938D01*
X15073Y5939D01*
X15076Y5940D01*
X15080Y5943D01*
X15083Y5945D01*
X15086Y5948D01*
X15089Y5952D01*
X15090Y5953D01*
X15091Y5954D01*
X15092Y5956D01*
X15093Y5959D01*
X15094Y5963D01*
X15096Y5967D01*
X15097Y5972D01*
X15097Y5978D01*
Y5978D01*
Y5978D01*
Y5979D01*
Y5981D01*
X15097Y5982D01*
X15096Y5984D01*
X15096Y5989D01*
X15094Y5994D01*
X15093Y6000D01*
X15090Y6006D01*
X15086Y6012D01*
Y6012D01*
X15086Y6012D01*
X15084Y6014D01*
X15082Y6017D01*
X15079Y6020D01*
X15075Y6023D01*
X15070Y6027D01*
X15064Y6030D01*
X15058Y6032D01*
X15058D01*
X15057Y6033D01*
X15056Y6033D01*
X15055Y6033D01*
X15053Y6034D01*
X15050Y6034D01*
X15047Y6035D01*
X15044Y6035D01*
X15040Y6036D01*
X15035Y6036D01*
X15030Y6037D01*
X15024Y6037D01*
X15018Y6037D01*
X15011Y6038D01*
X15003Y6038D01*
X14869D01*
Y6112D01*
X15147D01*
Y6043D01*
D02*
G37*
G36*
Y6848D02*
X15106D01*
X15107Y6847D01*
X15108Y6846D01*
X15110Y6844D01*
X15113Y6841D01*
X15117Y6838D01*
X15121Y6833D01*
X15125Y6828D01*
X15130Y6823D01*
X15134Y6816D01*
X15138Y6809D01*
X15142Y6802D01*
X15146Y6794D01*
X15149Y6785D01*
X15151Y6776D01*
X15152Y6766D01*
X15153Y6756D01*
Y6756D01*
Y6755D01*
Y6753D01*
Y6752D01*
X15153Y6750D01*
Y6747D01*
X15152Y6744D01*
X15152Y6741D01*
X15151Y6734D01*
X15149Y6727D01*
X15147Y6719D01*
X15144Y6712D01*
Y6711D01*
X15144Y6711D01*
X15143Y6710D01*
X15142Y6708D01*
X15141Y6705D01*
X15138Y6700D01*
X15135Y6695D01*
X15131Y6690D01*
X15127Y6685D01*
X15122Y6681D01*
X15121Y6681D01*
X15119Y6680D01*
X15116Y6678D01*
X15113Y6675D01*
X15108Y6673D01*
X15103Y6671D01*
X15097Y6669D01*
X15091Y6667D01*
X15090D01*
X15090Y6666D01*
X15089D01*
X15088Y6666D01*
X15086Y6666D01*
X15083Y6665D01*
X15081Y6665D01*
X15078Y6665D01*
X15075Y6664D01*
X15071Y6664D01*
X15067Y6663D01*
X15063Y6663D01*
X15058Y6663D01*
X15053D01*
X15047Y6662D01*
X14869D01*
Y6736D01*
X15021D01*
X15025Y6736D01*
X15030D01*
X15035Y6737D01*
X15044Y6737D01*
X15054Y6738D01*
X15059Y6739D01*
X15063Y6739D01*
X15066Y6740D01*
X15069Y6741D01*
X15069Y6741D01*
X15071Y6742D01*
X15073Y6743D01*
X15076Y6745D01*
X15080Y6747D01*
X15083Y6749D01*
X15086Y6753D01*
X15089Y6756D01*
X15090Y6757D01*
X15091Y6758D01*
X15092Y6760D01*
X15093Y6763D01*
X15094Y6767D01*
X15096Y6772D01*
X15097Y6777D01*
X15097Y6782D01*
Y6782D01*
Y6783D01*
Y6784D01*
Y6785D01*
X15097Y6787D01*
X15096Y6789D01*
X15096Y6793D01*
X15094Y6799D01*
X15093Y6804D01*
X15090Y6810D01*
X15086Y6816D01*
Y6816D01*
X15086Y6817D01*
X15084Y6819D01*
X15082Y6821D01*
X15079Y6824D01*
X15075Y6828D01*
X15070Y6831D01*
X15064Y6834D01*
X15058Y6837D01*
X15058D01*
X15057Y6837D01*
X15056Y6837D01*
X15055Y6838D01*
X15053Y6838D01*
X15050Y6839D01*
X15047Y6839D01*
X15044Y6840D01*
X15040Y6840D01*
X15035Y6841D01*
X15030Y6841D01*
X15024Y6841D01*
X15018Y6842D01*
X15011Y6842D01*
X15003Y6842D01*
X14869D01*
Y6916D01*
X15147D01*
Y6848D01*
D02*
G37*
G36*
Y6584D02*
X15202D01*
X15245Y6511D01*
X15147D01*
Y6460D01*
X15088D01*
Y6511D01*
X14965D01*
X14958Y6510D01*
X14951D01*
X14945Y6510D01*
X14942D01*
X14940Y6510D01*
X14937D01*
X14936Y6509D01*
X14936D01*
X14935Y6509D01*
X14934Y6509D01*
X14933Y6508D01*
X14930Y6506D01*
X14928Y6504D01*
X14927Y6503D01*
Y6503D01*
X14926Y6502D01*
X14926Y6501D01*
X14925Y6499D01*
X14925Y6498D01*
X14924Y6495D01*
X14924Y6493D01*
X14923Y6490D01*
Y6490D01*
Y6489D01*
X14924Y6486D01*
X14924Y6483D01*
X14925Y6479D01*
X14926Y6474D01*
X14928Y6468D01*
X14930Y6461D01*
X14873Y6455D01*
Y6455D01*
X14873Y6456D01*
X14872Y6457D01*
X14872Y6459D01*
X14871Y6461D01*
X14870Y6465D01*
X14869Y6468D01*
X14868Y6471D01*
X14867Y6476D01*
X14866Y6480D01*
X14865Y6485D01*
X14864Y6490D01*
X14863Y6501D01*
X14862Y6513D01*
Y6513D01*
Y6514D01*
Y6514D01*
Y6516D01*
X14863Y6518D01*
Y6520D01*
X14863Y6524D01*
X14864Y6530D01*
X14865Y6536D01*
X14867Y6542D01*
X14869Y6548D01*
Y6549D01*
X14869Y6549D01*
X14870Y6551D01*
X14871Y6554D01*
X14873Y6557D01*
X14876Y6561D01*
X14879Y6565D01*
X14882Y6569D01*
X14886Y6572D01*
X14887Y6572D01*
X14888Y6573D01*
X14890Y6574D01*
X14893Y6576D01*
X14898Y6578D01*
X14903Y6579D01*
X14908Y6581D01*
X14915Y6582D01*
X14915D01*
X14916Y6582D01*
X14917D01*
X14919Y6583D01*
X14921D01*
X14923Y6583D01*
X14926D01*
X14929Y6583D01*
X14933Y6584D01*
X14937D01*
X14942Y6584D01*
X14947D01*
X14953Y6584D01*
X15088D01*
Y6618D01*
X15147D01*
Y6584D01*
D02*
G37*
G36*
X15012Y6430D02*
X15017Y6430D01*
X15023Y6429D01*
X15029Y6429D01*
X15037Y6427D01*
X15045Y6426D01*
X15054Y6424D01*
X15062Y6422D01*
X15071Y6419D01*
X15080Y6415D01*
X15089Y6411D01*
X15098Y6406D01*
X15106Y6401D01*
X15114Y6395D01*
X15114Y6394D01*
X15115Y6393D01*
X15117Y6391D01*
X15120Y6388D01*
X15123Y6385D01*
X15126Y6380D01*
X15130Y6375D01*
X15133Y6370D01*
X15137Y6363D01*
X15141Y6356D01*
X15144Y6349D01*
X15147Y6341D01*
X15149Y6332D01*
X15151Y6323D01*
X15153Y6313D01*
X15153Y6303D01*
Y6303D01*
Y6303D01*
Y6302D01*
Y6300D01*
X15153Y6297D01*
X15152Y6293D01*
X15152Y6288D01*
X15151Y6282D01*
X15150Y6275D01*
X15148Y6268D01*
X15146Y6260D01*
X15143Y6252D01*
X15140Y6244D01*
X15136Y6236D01*
X15131Y6228D01*
X15126Y6220D01*
X15119Y6212D01*
X15112Y6205D01*
X15111Y6205D01*
X15110Y6204D01*
X15108Y6202D01*
X15104Y6200D01*
X15100Y6197D01*
X15094Y6194D01*
X15088Y6191D01*
X15081Y6187D01*
X15073Y6184D01*
X15063Y6181D01*
X15053Y6178D01*
X15042Y6176D01*
X15029Y6173D01*
X15016Y6172D01*
X15002Y6171D01*
X14986D01*
Y6355D01*
X14985D01*
X14983Y6355D01*
X14981D01*
X14978Y6354D01*
X14975Y6354D01*
X14971Y6353D01*
X14968Y6353D01*
X14959Y6350D01*
X14951Y6347D01*
X14947Y6345D01*
X14943Y6343D01*
X14939Y6340D01*
X14935Y6338D01*
X14935Y6337D01*
X14935Y6337D01*
X14934Y6336D01*
X14932Y6334D01*
X14931Y6333D01*
X14930Y6331D01*
X14928Y6329D01*
X14926Y6326D01*
X14923Y6320D01*
X14920Y6312D01*
X14919Y6309D01*
X14918Y6304D01*
X14917Y6300D01*
X14917Y6295D01*
Y6295D01*
Y6295D01*
Y6294D01*
X14917Y6292D01*
X14918Y6289D01*
X14918Y6285D01*
X14919Y6280D01*
X14921Y6276D01*
X14923Y6271D01*
X14927Y6266D01*
X14927Y6266D01*
X14928Y6265D01*
X14931Y6262D01*
X14934Y6260D01*
X14938Y6257D01*
X14943Y6254D01*
X14950Y6251D01*
X14957Y6248D01*
X14945Y6175D01*
X14945Y6175D01*
X14943Y6176D01*
X14941Y6177D01*
X14938Y6178D01*
X14935Y6179D01*
X14931Y6181D01*
X14927Y6183D01*
X14922Y6186D01*
X14917Y6189D01*
X14912Y6192D01*
X14907Y6196D01*
X14902Y6200D01*
X14897Y6204D01*
X14892Y6209D01*
X14887Y6214D01*
X14883Y6220D01*
X14883Y6220D01*
X14882Y6221D01*
X14881Y6223D01*
X14880Y6225D01*
X14878Y6228D01*
X14877Y6232D01*
X14875Y6236D01*
X14873Y6241D01*
X14871Y6246D01*
X14869Y6252D01*
X14867Y6258D01*
X14866Y6265D01*
X14864Y6272D01*
X14863Y6280D01*
X14863Y6288D01*
X14862Y6296D01*
Y6296D01*
Y6297D01*
Y6298D01*
Y6299D01*
X14863Y6301D01*
Y6303D01*
X14863Y6308D01*
X14864Y6314D01*
X14865Y6321D01*
X14866Y6329D01*
X14868Y6337D01*
X14871Y6345D01*
X14874Y6354D01*
X14878Y6363D01*
X14882Y6372D01*
X14888Y6380D01*
X14894Y6388D01*
X14901Y6396D01*
X14909Y6403D01*
X14910Y6403D01*
X14911Y6404D01*
X14913Y6406D01*
X14916Y6407D01*
X14920Y6409D01*
X14924Y6412D01*
X14930Y6414D01*
X14936Y6417D01*
X14942Y6419D01*
X14950Y6422D01*
X14957Y6424D01*
X14966Y6426D01*
X14975Y6428D01*
X14985Y6429D01*
X14995Y6430D01*
X15005Y6431D01*
X15010D01*
X15012Y6430D01*
D02*
G37*
G36*
X6839Y811D02*
X6845Y810D01*
X6850Y810D01*
X6857Y809D01*
X6864Y809D01*
X6871Y808D01*
X6879Y806D01*
X6896Y803D01*
X6904Y801D01*
X6912Y799D01*
X6920Y796D01*
X6928Y793D01*
X6928Y793D01*
X6929Y793D01*
X6931Y792D01*
X6933Y791D01*
X6935Y790D01*
X6938Y788D01*
X6942Y786D01*
X6945Y784D01*
X6954Y779D01*
X6962Y773D01*
X6971Y766D01*
X6981Y758D01*
X6981Y757D01*
X6981Y757D01*
X6983Y756D01*
X6984Y754D01*
X6986Y752D01*
X6989Y749D01*
X6991Y746D01*
X6994Y743D01*
X6996Y739D01*
X6999Y736D01*
X7005Y727D01*
X7010Y718D01*
X7015Y708D01*
X7015Y708D01*
X7016Y707D01*
X7017Y704D01*
X7018Y702D01*
X7019Y698D01*
X7020Y694D01*
X7021Y690D01*
X7023Y684D01*
X7024Y679D01*
X7026Y672D01*
X7027Y665D01*
X7028Y658D01*
X7029Y650D01*
X7030Y642D01*
X7030Y634D01*
X7030Y626D01*
Y625D01*
Y625D01*
Y623D01*
Y622D01*
X7030Y620D01*
Y617D01*
X7030Y615D01*
X7030Y611D01*
X7029Y608D01*
X7029Y604D01*
X7028Y596D01*
X7026Y587D01*
X7024Y577D01*
X7021Y566D01*
X7018Y555D01*
X7013Y544D01*
X7008Y533D01*
X7002Y521D01*
X6995Y510D01*
X6987Y500D01*
X6978Y490D01*
X6977Y489D01*
X6975Y488D01*
X6972Y485D01*
X6968Y482D01*
X6963Y478D01*
X6956Y474D01*
X6948Y469D01*
X6940Y464D01*
X6930Y460D01*
X6919Y455D01*
X6907Y450D01*
X6894Y447D01*
X6880Y443D01*
X6864Y441D01*
X6849Y439D01*
X6831Y439D01*
X6827D01*
X6825Y439D01*
X6822D01*
X6820Y439D01*
X6816D01*
X6812Y440D01*
X6808Y440D01*
X6799Y441D01*
X6789Y443D01*
X6778Y445D01*
X6767Y448D01*
X6755Y451D01*
X6743Y455D01*
X6731Y460D01*
X6719Y466D01*
X6707Y472D01*
X6696Y480D01*
X6686Y489D01*
X6685Y490D01*
X6684Y491D01*
X6681Y494D01*
X6678Y499D01*
X6674Y503D01*
X6669Y510D01*
X6665Y517D01*
X6660Y525D01*
X6655Y534D01*
X6650Y544D01*
X6646Y555D01*
X6642Y567D01*
X6639Y580D01*
X6636Y594D01*
X6634Y609D01*
X6634Y624D01*
Y625D01*
Y625D01*
Y626D01*
Y628D01*
X6634Y630D01*
Y632D01*
X6634Y635D01*
X6635Y638D01*
X6635Y642D01*
X6635Y646D01*
X6636Y654D01*
X6638Y663D01*
X6640Y674D01*
X6643Y684D01*
X6646Y695D01*
X6650Y707D01*
X6655Y718D01*
X6662Y729D01*
X6669Y740D01*
X6677Y751D01*
X6686Y761D01*
X6686Y761D01*
X6688Y763D01*
X6691Y765D01*
X6695Y768D01*
X6701Y772D01*
X6707Y777D01*
X6715Y781D01*
X6723Y786D01*
X6733Y790D01*
X6744Y795D01*
X6756Y799D01*
X6768Y803D01*
X6782Y806D01*
X6797Y809D01*
X6813Y810D01*
X6830Y811D01*
X6835D01*
X6839Y811D01*
D02*
G37*
G36*
X15018Y3714D02*
X15021Y3713D01*
X15025Y3713D01*
X15029Y3712D01*
X15034Y3712D01*
X15039Y3711D01*
X15045Y3710D01*
X15051Y3708D01*
X15057Y3706D01*
X15063Y3704D01*
X15070Y3702D01*
X15076Y3699D01*
X15083Y3696D01*
X15083Y3696D01*
X15084Y3695D01*
X15086Y3694D01*
X15088Y3693D01*
X15091Y3691D01*
X15094Y3689D01*
X15098Y3686D01*
X15102Y3683D01*
X15106Y3680D01*
X15110Y3676D01*
X15115Y3672D01*
X15119Y3667D01*
X15123Y3662D01*
X15127Y3657D01*
X15132Y3651D01*
X15135Y3645D01*
X15135Y3645D01*
X15136Y3643D01*
X15137Y3642D01*
X15138Y3639D01*
X15139Y3636D01*
X15141Y3632D01*
X15142Y3628D01*
X15144Y3623D01*
X15146Y3618D01*
X15147Y3612D01*
X15149Y3606D01*
X15150Y3599D01*
X15151Y3593D01*
X15152Y3586D01*
X15153Y3578D01*
X15153Y3571D01*
Y3570D01*
Y3570D01*
Y3569D01*
Y3568D01*
X15153Y3564D01*
X15152Y3560D01*
X15152Y3555D01*
X15151Y3549D01*
X15150Y3542D01*
X15148Y3534D01*
X15146Y3526D01*
X15143Y3518D01*
X15140Y3509D01*
X15136Y3501D01*
X15131Y3492D01*
X15126Y3483D01*
X15119Y3475D01*
X15112Y3467D01*
X15112Y3467D01*
X15110Y3466D01*
X15108Y3464D01*
X15104Y3461D01*
X15101Y3458D01*
X15096Y3455D01*
X15090Y3451D01*
X15083Y3447D01*
X15077Y3443D01*
X15069Y3440D01*
X15060Y3436D01*
X15051Y3433D01*
X15041Y3431D01*
X15031Y3429D01*
X15020Y3427D01*
X15008Y3427D01*
X15005D01*
X15002Y3427D01*
X14998Y3428D01*
X14992Y3428D01*
X14986Y3429D01*
X14979Y3430D01*
X14971Y3432D01*
X14964Y3434D01*
X14955Y3437D01*
X14947Y3440D01*
X14937Y3444D01*
X14929Y3449D01*
X14920Y3454D01*
X14912Y3461D01*
X14904Y3468D01*
X14903Y3468D01*
X14902Y3470D01*
X14900Y3472D01*
X14897Y3475D01*
X14894Y3479D01*
X14891Y3484D01*
X14887Y3490D01*
X14883Y3496D01*
X14879Y3503D01*
X14875Y3511D01*
X14872Y3519D01*
X14869Y3528D01*
X14866Y3538D01*
X14864Y3548D01*
X14863Y3559D01*
X14862Y3570D01*
Y3571D01*
Y3572D01*
Y3574D01*
X14863Y3577D01*
X14863Y3580D01*
X14863Y3584D01*
X14864Y3589D01*
X14864Y3594D01*
X14865Y3599D01*
X14866Y3605D01*
X14869Y3617D01*
X14872Y3624D01*
X14874Y3630D01*
X14876Y3637D01*
X14879Y3643D01*
X14880Y3644D01*
X14880Y3645D01*
X14881Y3647D01*
X14883Y3649D01*
X14884Y3652D01*
X14887Y3655D01*
X14889Y3659D01*
X14892Y3663D01*
X14896Y3667D01*
X14899Y3672D01*
X14903Y3676D01*
X14908Y3680D01*
X14913Y3685D01*
X14918Y3689D01*
X14924Y3693D01*
X14930Y3696D01*
X14930Y3696D01*
X14932Y3697D01*
X14933Y3698D01*
X14936Y3699D01*
X14939Y3700D01*
X14943Y3702D01*
X14947Y3703D01*
X14953Y3705D01*
X14958Y3707D01*
X14965Y3708D01*
X14971Y3710D01*
X14978Y3711D01*
X14986Y3712D01*
X14994Y3713D01*
X15003Y3714D01*
X15011Y3714D01*
X15015D01*
X15018Y3714D01*
D02*
G37*
G36*
X6237Y729D02*
Y729D01*
Y728D01*
Y727D01*
Y726D01*
Y724D01*
Y723D01*
Y718D01*
X6237Y712D01*
Y706D01*
X6236Y699D01*
Y691D01*
X6235Y676D01*
X6235Y668D01*
X6234Y660D01*
X6234Y654D01*
X6233Y647D01*
X6232Y642D01*
X6231Y637D01*
Y637D01*
X6231Y636D01*
X6230Y634D01*
X6229Y631D01*
X6228Y629D01*
X6227Y626D01*
X6225Y622D01*
X6223Y618D01*
X6221Y613D01*
X6218Y609D01*
X6215Y604D01*
X6211Y600D01*
X6208Y595D01*
X6203Y591D01*
X6198Y586D01*
X6193Y582D01*
X6193Y582D01*
X6192Y581D01*
X6190Y580D01*
X6188Y578D01*
X6185Y577D01*
X6182Y575D01*
X6178Y573D01*
X6173Y571D01*
X6168Y568D01*
X6162Y567D01*
X6156Y565D01*
X6149Y563D01*
X6143Y562D01*
X6135Y560D01*
X6127Y560D01*
X6119Y559D01*
X6115D01*
X6113Y560D01*
X6110D01*
X6106Y560D01*
X6102Y560D01*
X6098Y561D01*
X6088Y562D01*
X6078Y565D01*
X6068Y568D01*
X6059Y572D01*
X6059D01*
X6058Y573D01*
X6057Y574D01*
X6055Y575D01*
X6053Y576D01*
X6051Y577D01*
X6045Y581D01*
X6039Y586D01*
X6033Y592D01*
X6027Y598D01*
X6021Y605D01*
Y605D01*
X6020Y606D01*
X6020Y607D01*
X6019Y608D01*
X6017Y610D01*
X6016Y612D01*
X6013Y617D01*
X6011Y623D01*
X6008Y630D01*
X6005Y637D01*
X6003Y645D01*
Y645D01*
X6003Y646D01*
X6002Y648D01*
X6002Y650D01*
X6002Y653D01*
X6001Y657D01*
X6001Y661D01*
X6000Y666D01*
X6000Y671D01*
X5999Y677D01*
X5999Y684D01*
X5998Y691D01*
X5998Y699D01*
X5998Y707D01*
X5998Y716D01*
Y726D01*
Y776D01*
X5853D01*
Y853D01*
X6237D01*
Y729D01*
D02*
G37*
G36*
Y-147D02*
X6172D01*
Y60D01*
X6087D01*
Y-132D01*
X6022D01*
Y60D01*
X5918D01*
Y-154D01*
X5853D01*
Y138D01*
X6237D01*
Y-147D01*
D02*
G37*
G36*
Y371D02*
Y371D01*
Y370D01*
Y369D01*
Y368D01*
Y367D01*
Y365D01*
Y360D01*
X6237Y354D01*
Y348D01*
X6236Y341D01*
Y333D01*
X6235Y318D01*
X6235Y310D01*
X6234Y303D01*
X6234Y296D01*
X6233Y289D01*
X6232Y284D01*
X6231Y279D01*
Y279D01*
X6231Y278D01*
X6230Y276D01*
X6229Y274D01*
X6228Y271D01*
X6227Y268D01*
X6225Y264D01*
X6223Y260D01*
X6221Y255D01*
X6218Y251D01*
X6215Y246D01*
X6211Y242D01*
X6208Y237D01*
X6203Y233D01*
X6198Y228D01*
X6193Y224D01*
X6193Y224D01*
X6192Y223D01*
X6190Y222D01*
X6188Y221D01*
X6185Y219D01*
X6182Y217D01*
X6178Y215D01*
X6173Y213D01*
X6168Y211D01*
X6162Y209D01*
X6156Y207D01*
X6149Y205D01*
X6143Y204D01*
X6135Y202D01*
X6127Y202D01*
X6119Y202D01*
X6115D01*
X6113Y202D01*
X6110D01*
X6106Y202D01*
X6102Y202D01*
X6098Y203D01*
X6088Y205D01*
X6078Y207D01*
X6068Y210D01*
X6059Y215D01*
X6059D01*
X6058Y215D01*
X6057Y216D01*
X6055Y217D01*
X6053Y218D01*
X6051Y220D01*
X6045Y223D01*
X6039Y228D01*
X6033Y234D01*
X6027Y240D01*
X6021Y247D01*
Y247D01*
X6020Y248D01*
X6020Y249D01*
X6019Y250D01*
X6017Y252D01*
X6016Y254D01*
X6013Y260D01*
X6011Y265D01*
X6008Y272D01*
X6005Y280D01*
X6003Y287D01*
Y288D01*
X6003Y289D01*
X6002Y290D01*
X6002Y293D01*
X6002Y295D01*
X6001Y299D01*
X6001Y303D01*
X6000Y308D01*
X6000Y313D01*
X5999Y319D01*
X5999Y326D01*
X5998Y333D01*
X5998Y341D01*
X5998Y349D01*
X5998Y358D01*
Y368D01*
Y418D01*
X5853D01*
Y495D01*
X6237D01*
Y371D01*
D02*
G37*
G36*
X15147Y3038D02*
X15202D01*
X15245Y2965D01*
X15147D01*
Y2915D01*
X15088D01*
Y2965D01*
X14965D01*
X14958Y2965D01*
X14951D01*
X14945Y2964D01*
X14942D01*
X14940Y2964D01*
X14937D01*
X14936Y2964D01*
X14936D01*
X14935Y2963D01*
X14934Y2963D01*
X14933Y2962D01*
X14930Y2960D01*
X14928Y2959D01*
X14927Y2957D01*
Y2957D01*
X14926Y2956D01*
X14926Y2955D01*
X14925Y2954D01*
X14925Y2952D01*
X14924Y2950D01*
X14924Y2947D01*
X14923Y2945D01*
Y2944D01*
Y2943D01*
X14924Y2941D01*
X14924Y2937D01*
X14925Y2933D01*
X14926Y2928D01*
X14928Y2922D01*
X14930Y2915D01*
X14873Y2909D01*
Y2909D01*
X14873Y2910D01*
X14872Y2911D01*
X14872Y2913D01*
X14871Y2916D01*
X14870Y2919D01*
X14869Y2922D01*
X14868Y2926D01*
X14867Y2930D01*
X14866Y2934D01*
X14865Y2939D01*
X14864Y2944D01*
X14863Y2955D01*
X14862Y2967D01*
Y2967D01*
Y2968D01*
Y2969D01*
Y2970D01*
X14863Y2972D01*
Y2974D01*
X14863Y2979D01*
X14864Y2984D01*
X14865Y2990D01*
X14867Y2996D01*
X14869Y3003D01*
Y3003D01*
X14869Y3003D01*
X14870Y3005D01*
X14871Y3008D01*
X14873Y3011D01*
X14876Y3015D01*
X14879Y3019D01*
X14882Y3023D01*
X14886Y3026D01*
X14887Y3026D01*
X14888Y3027D01*
X14890Y3028D01*
X14893Y3030D01*
X14898Y3032D01*
X14903Y3033D01*
X14908Y3035D01*
X14915Y3036D01*
X14915D01*
X14916Y3037D01*
X14917D01*
X14919Y3037D01*
X14921D01*
X14923Y3037D01*
X14926D01*
X14929Y3038D01*
X14933Y3038D01*
X14937D01*
X14942Y3038D01*
X14947D01*
X14953Y3038D01*
X15088D01*
Y3072D01*
X15147D01*
Y3038D01*
D02*
G37*
G36*
X6048Y1671D02*
X6050D01*
X6053Y1671D01*
X6057Y1671D01*
X6061Y1670D01*
X6065Y1670D01*
X6074Y1669D01*
X6085Y1668D01*
X6096Y1665D01*
X6107Y1663D01*
X6120Y1659D01*
X6132Y1656D01*
X6144Y1651D01*
X6157Y1645D01*
X6169Y1639D01*
X6180Y1631D01*
X6190Y1622D01*
X6191Y1622D01*
X6192Y1620D01*
X6195Y1617D01*
X6198Y1613D01*
X6202Y1608D01*
X6207Y1602D01*
X6212Y1596D01*
X6217Y1587D01*
X6222Y1579D01*
X6226Y1569D01*
X6231Y1558D01*
X6235Y1547D01*
X6238Y1534D01*
X6241Y1521D01*
X6242Y1507D01*
X6243Y1492D01*
Y1492D01*
Y1491D01*
Y1490D01*
Y1489D01*
Y1487D01*
X6243Y1485D01*
X6242Y1480D01*
X6242Y1474D01*
X6241Y1467D01*
X6240Y1460D01*
X6238Y1451D01*
X6236Y1442D01*
X6233Y1433D01*
X6229Y1424D01*
X6226Y1414D01*
X6221Y1405D01*
X6215Y1395D01*
X6209Y1386D01*
X6201Y1377D01*
X6201Y1377D01*
X6200Y1376D01*
X6199Y1375D01*
X6197Y1373D01*
X6194Y1371D01*
X6191Y1368D01*
X6188Y1366D01*
X6183Y1363D01*
X6179Y1360D01*
X6173Y1356D01*
X6168Y1353D01*
X6161Y1350D01*
X6154Y1347D01*
X6147Y1343D01*
X6139Y1341D01*
X6131Y1338D01*
X6113Y1415D01*
X6113D01*
X6114Y1415D01*
X6115Y1416D01*
X6118Y1416D01*
X6120Y1417D01*
X6123Y1418D01*
X6126Y1420D01*
X6130Y1421D01*
X6137Y1425D01*
X6145Y1430D01*
X6149Y1433D01*
X6153Y1436D01*
X6156Y1440D01*
X6159Y1444D01*
X6160Y1444D01*
X6160Y1445D01*
X6161Y1446D01*
X6162Y1447D01*
X6164Y1450D01*
X6165Y1452D01*
X6167Y1455D01*
X6168Y1458D01*
X6170Y1462D01*
X6171Y1466D01*
X6173Y1470D01*
X6174Y1475D01*
X6176Y1485D01*
X6177Y1490D01*
X6177Y1496D01*
Y1497D01*
Y1498D01*
X6177Y1500D01*
X6176Y1503D01*
X6176Y1507D01*
X6175Y1511D01*
X6174Y1516D01*
X6173Y1521D01*
X6171Y1526D01*
X6169Y1532D01*
X6167Y1537D01*
X6164Y1543D01*
X6160Y1549D01*
X6156Y1555D01*
X6151Y1560D01*
X6146Y1565D01*
X6146Y1566D01*
X6144Y1567D01*
X6143Y1568D01*
X6140Y1569D01*
X6137Y1572D01*
X6133Y1574D01*
X6128Y1576D01*
X6122Y1578D01*
X6116Y1581D01*
X6108Y1583D01*
X6100Y1586D01*
X6091Y1588D01*
X6081Y1589D01*
X6071Y1591D01*
X6059Y1591D01*
X6047Y1592D01*
X6042D01*
X6040Y1591D01*
X6035D01*
X6029Y1591D01*
X6022Y1591D01*
X6015Y1590D01*
X6007Y1589D01*
X5998Y1587D01*
X5990Y1586D01*
X5981Y1583D01*
X5973Y1581D01*
X5964Y1578D01*
X5957Y1574D01*
X5949Y1571D01*
X5943Y1566D01*
X5943Y1566D01*
X5942Y1565D01*
X5940Y1563D01*
X5939Y1561D01*
X5936Y1558D01*
X5934Y1555D01*
X5931Y1552D01*
X5928Y1547D01*
X5925Y1543D01*
X5922Y1538D01*
X5920Y1532D01*
X5917Y1526D01*
X5915Y1519D01*
X5914Y1513D01*
X5913Y1505D01*
X5912Y1498D01*
Y1497D01*
Y1496D01*
Y1494D01*
X5913Y1492D01*
X5913Y1490D01*
X5913Y1487D01*
X5914Y1483D01*
X5915Y1479D01*
X5917Y1471D01*
X5919Y1467D01*
X5921Y1462D01*
X5923Y1458D01*
X5925Y1453D01*
X5929Y1449D01*
X5932Y1445D01*
X5932Y1444D01*
X5933Y1444D01*
X5934Y1442D01*
X5936Y1441D01*
X5938Y1439D01*
X5940Y1437D01*
X5944Y1435D01*
X5947Y1432D01*
X5951Y1430D01*
X5956Y1427D01*
X5961Y1424D01*
X5967Y1422D01*
X5973Y1419D01*
X5979Y1417D01*
X5986Y1414D01*
X5994Y1412D01*
X5970Y1337D01*
X5970D01*
X5970Y1338D01*
X5969D01*
X5968Y1338D01*
X5964Y1339D01*
X5960Y1341D01*
X5955Y1342D01*
X5949Y1345D01*
X5942Y1348D01*
X5935Y1351D01*
X5928Y1355D01*
X5920Y1359D01*
X5912Y1364D01*
X5904Y1369D01*
X5897Y1375D01*
X5890Y1381D01*
X5883Y1388D01*
X5877Y1395D01*
X5876Y1395D01*
X5876Y1397D01*
X5874Y1399D01*
X5872Y1402D01*
X5870Y1406D01*
X5867Y1411D01*
X5864Y1416D01*
X5861Y1423D01*
X5859Y1430D01*
X5856Y1437D01*
X5853Y1446D01*
X5851Y1455D01*
X5849Y1464D01*
X5847Y1475D01*
X5847Y1486D01*
X5846Y1497D01*
Y1497D01*
Y1498D01*
Y1499D01*
Y1500D01*
X5847Y1502D01*
Y1504D01*
X5847Y1507D01*
X5847Y1510D01*
X5848Y1516D01*
X5849Y1524D01*
X5851Y1532D01*
X5853Y1541D01*
X5856Y1551D01*
X5859Y1561D01*
X5863Y1572D01*
X5868Y1582D01*
X5874Y1593D01*
X5881Y1603D01*
X5889Y1613D01*
X5898Y1623D01*
X5899Y1623D01*
X5901Y1625D01*
X5904Y1627D01*
X5908Y1630D01*
X5913Y1634D01*
X5920Y1638D01*
X5927Y1643D01*
X5936Y1647D01*
X5945Y1652D01*
X5956Y1656D01*
X5968Y1660D01*
X5981Y1664D01*
X5994Y1667D01*
X6009Y1669D01*
X6025Y1671D01*
X6041Y1672D01*
X6046D01*
X6048Y1671D01*
D02*
G37*
G36*
X15147Y3297D02*
X15005D01*
X15000Y3297D01*
X14994D01*
X14988Y3297D01*
X14976Y3296D01*
X14970Y3296D01*
X14964Y3296D01*
X14958Y3295D01*
X14954Y3295D01*
X14950Y3294D01*
X14947Y3293D01*
X14946Y3293D01*
X14945Y3292D01*
X14942Y3291D01*
X14939Y3290D01*
X14936Y3288D01*
X14932Y3286D01*
X14929Y3282D01*
X14926Y3279D01*
X14926Y3278D01*
X14925Y3277D01*
X14923Y3274D01*
X14922Y3271D01*
X14921Y3267D01*
X14920Y3263D01*
X14919Y3257D01*
X14918Y3252D01*
Y3251D01*
Y3251D01*
Y3250D01*
X14919Y3248D01*
X14919Y3245D01*
X14920Y3240D01*
X14921Y3235D01*
X14923Y3229D01*
X14925Y3223D01*
X14929Y3218D01*
Y3218D01*
X14929Y3217D01*
X14931Y3215D01*
X14933Y3213D01*
X14936Y3210D01*
X14940Y3206D01*
X14944Y3203D01*
X14949Y3200D01*
X14954Y3197D01*
X14955D01*
X14955Y3197D01*
X14956Y3197D01*
X14958Y3196D01*
X14960Y3196D01*
X14962Y3195D01*
X14966Y3195D01*
X14969Y3194D01*
X14974Y3194D01*
X14979Y3194D01*
X14986Y3193D01*
X14992Y3193D01*
X15000Y3192D01*
X15009Y3192D01*
X15019Y3192D01*
X15147D01*
Y3118D01*
X14869D01*
Y3186D01*
X14910D01*
X14910Y3187D01*
X14909Y3187D01*
X14908Y3188D01*
X14906Y3189D01*
X14904Y3191D01*
X14902Y3193D01*
X14897Y3197D01*
X14892Y3203D01*
X14886Y3210D01*
X14880Y3218D01*
X14875Y3227D01*
Y3227D01*
X14874Y3228D01*
X14874Y3229D01*
X14873Y3231D01*
X14872Y3233D01*
X14871Y3236D01*
X14870Y3239D01*
X14869Y3242D01*
X14868Y3246D01*
X14866Y3250D01*
X14864Y3259D01*
X14863Y3269D01*
X14862Y3279D01*
Y3279D01*
Y3280D01*
Y3282D01*
X14863Y3283D01*
Y3286D01*
X14863Y3289D01*
X14863Y3292D01*
X14864Y3296D01*
X14865Y3303D01*
X14867Y3312D01*
X14870Y3321D01*
X14874Y3329D01*
Y3330D01*
X14875Y3330D01*
X14876Y3331D01*
X14877Y3333D01*
X14878Y3335D01*
X14879Y3337D01*
X14883Y3341D01*
X14888Y3347D01*
X14894Y3352D01*
X14901Y3357D01*
X14909Y3361D01*
X14909D01*
X14910Y3362D01*
X14911Y3362D01*
X14913Y3363D01*
X14915Y3364D01*
X14918Y3365D01*
X14921Y3365D01*
X14925Y3366D01*
X14929Y3367D01*
X14934Y3368D01*
X14939Y3369D01*
X14944Y3370D01*
X14950Y3370D01*
X14956Y3371D01*
X14963Y3371D01*
X15147D01*
Y3297D01*
D02*
G37*
G36*
X6052Y1286D02*
X6057Y1286D01*
X6063Y1285D01*
X6069Y1285D01*
X6076Y1284D01*
X6084Y1283D01*
X6092Y1282D01*
X6108Y1279D01*
X6117Y1277D01*
X6125Y1274D01*
X6133Y1272D01*
X6140Y1269D01*
X6141Y1269D01*
X6142Y1268D01*
X6143Y1268D01*
X6145Y1266D01*
X6148Y1265D01*
X6151Y1264D01*
X6154Y1262D01*
X6158Y1259D01*
X6166Y1255D01*
X6175Y1248D01*
X6184Y1241D01*
X6193Y1233D01*
X6193Y1233D01*
X6194Y1232D01*
X6195Y1231D01*
X6197Y1229D01*
X6199Y1227D01*
X6201Y1225D01*
X6204Y1222D01*
X6206Y1219D01*
X6209Y1215D01*
X6212Y1211D01*
X6218Y1203D01*
X6223Y1193D01*
X6228Y1184D01*
X6228Y1183D01*
X6228Y1182D01*
X6229Y1180D01*
X6230Y1177D01*
X6231Y1174D01*
X6233Y1170D01*
X6234Y1165D01*
X6236Y1160D01*
X6237Y1154D01*
X6238Y1148D01*
X6240Y1141D01*
X6241Y1134D01*
X6242Y1126D01*
X6242Y1118D01*
X6243Y1110D01*
X6243Y1101D01*
Y1101D01*
Y1100D01*
Y1099D01*
Y1097D01*
X6243Y1095D01*
Y1093D01*
X6242Y1090D01*
X6242Y1087D01*
X6242Y1084D01*
X6242Y1080D01*
X6240Y1071D01*
X6239Y1062D01*
X6237Y1052D01*
X6234Y1042D01*
X6230Y1030D01*
X6226Y1019D01*
X6221Y1008D01*
X6215Y997D01*
X6208Y986D01*
X6200Y975D01*
X6190Y965D01*
X6190Y965D01*
X6188Y963D01*
X6185Y961D01*
X6181Y957D01*
X6175Y953D01*
X6169Y949D01*
X6161Y944D01*
X6152Y940D01*
X6142Y935D01*
X6131Y930D01*
X6120Y926D01*
X6106Y922D01*
X6092Y919D01*
X6077Y916D01*
X6061Y915D01*
X6044Y914D01*
X6040D01*
X6038Y914D01*
X6035D01*
X6032Y915D01*
X6029D01*
X6025Y915D01*
X6021Y916D01*
X6012Y917D01*
X6002Y918D01*
X5991Y920D01*
X5979Y923D01*
X5968Y927D01*
X5956Y931D01*
X5944Y935D01*
X5931Y941D01*
X5920Y948D01*
X5909Y956D01*
X5899Y965D01*
X5898Y965D01*
X5896Y967D01*
X5894Y970D01*
X5891Y974D01*
X5886Y979D01*
X5882Y985D01*
X5877Y992D01*
X5872Y1001D01*
X5867Y1010D01*
X5863Y1020D01*
X5858Y1031D01*
X5854Y1043D01*
X5851Y1056D01*
X5848Y1070D01*
X5847Y1084D01*
X5846Y1100D01*
Y1100D01*
Y1101D01*
Y1102D01*
Y1103D01*
X5847Y1106D01*
Y1108D01*
X5847Y1111D01*
X5847Y1114D01*
X5847Y1118D01*
X5848Y1121D01*
X5849Y1130D01*
X5851Y1139D01*
X5853Y1149D01*
X5856Y1160D01*
X5859Y1171D01*
X5863Y1182D01*
X5868Y1193D01*
X5874Y1205D01*
X5881Y1216D01*
X5889Y1226D01*
X5898Y1236D01*
X5899Y1237D01*
X5901Y1238D01*
X5904Y1241D01*
X5908Y1244D01*
X5913Y1248D01*
X5920Y1252D01*
X5927Y1256D01*
X5936Y1261D01*
X5945Y1266D01*
X5956Y1270D01*
X5968Y1275D01*
X5981Y1279D01*
X5995Y1282D01*
X6010Y1284D01*
X6025Y1286D01*
X6042Y1286D01*
X6048D01*
X6052Y1286D01*
D02*
G37*
G36*
X6840Y1417D02*
X7024Y1538D01*
Y1447D01*
X6909Y1371D01*
X7024Y1295D01*
Y1205D01*
X6840Y1326D01*
X6640Y1193D01*
Y1286D01*
X6770Y1371D01*
X6640Y1457D01*
Y1550D01*
X6840Y1417D01*
D02*
G37*
G36*
X7024Y1584D02*
X6959D01*
Y1791D01*
X6874D01*
Y1599D01*
X6809D01*
Y1791D01*
X6705D01*
Y1577D01*
X6640D01*
Y1868D01*
X7024D01*
Y1584D01*
D02*
G37*
G36*
Y1029D02*
Y1028D01*
Y1028D01*
Y1027D01*
Y1025D01*
Y1024D01*
Y1022D01*
Y1017D01*
X7024Y1011D01*
Y1005D01*
X7024Y998D01*
Y991D01*
X7023Y975D01*
X7022Y967D01*
X7022Y960D01*
X7021Y953D01*
X7020Y947D01*
X7019Y941D01*
X7018Y937D01*
Y936D01*
X7018Y935D01*
X7017Y933D01*
X7016Y931D01*
X7015Y928D01*
X7014Y925D01*
X7012Y921D01*
X7010Y917D01*
X7008Y913D01*
X7005Y908D01*
X7002Y904D01*
X6999Y899D01*
X6995Y895D01*
X6991Y890D01*
X6986Y886D01*
X6981Y881D01*
X6980Y881D01*
X6979Y880D01*
X6978Y879D01*
X6975Y878D01*
X6972Y876D01*
X6969Y874D01*
X6965Y872D01*
X6961Y870D01*
X6955Y868D01*
X6950Y866D01*
X6944Y864D01*
X6937Y862D01*
X6930Y861D01*
X6923Y860D01*
X6914Y859D01*
X6906Y859D01*
X6903D01*
X6900Y859D01*
X6897D01*
X6894Y860D01*
X6889Y860D01*
X6885Y860D01*
X6876Y862D01*
X6866Y864D01*
X6856Y868D01*
X6846Y872D01*
X6846D01*
X6845Y873D01*
X6844Y873D01*
X6842Y874D01*
X6840Y875D01*
X6838Y877D01*
X6833Y881D01*
X6826Y885D01*
X6820Y891D01*
X6814Y897D01*
X6808Y904D01*
Y905D01*
X6808Y905D01*
X6807Y906D01*
X6806Y908D01*
X6805Y910D01*
X6804Y912D01*
X6801Y917D01*
X6798Y923D01*
X6795Y930D01*
X6792Y937D01*
X6790Y945D01*
Y945D01*
X6790Y946D01*
X6790Y947D01*
X6789Y950D01*
X6789Y953D01*
X6789Y956D01*
X6788Y960D01*
X6788Y965D01*
X6787Y971D01*
X6786Y976D01*
X6786Y983D01*
X6786Y990D01*
X6786Y998D01*
X6785Y1006D01*
X6785Y1015D01*
Y1025D01*
Y1075D01*
X6640D01*
Y1153D01*
X7024D01*
Y1029D01*
D02*
G37*
G36*
X15147Y3958D02*
X15106D01*
X15106Y3958D01*
X15107Y3957D01*
X15108Y3957D01*
X15109Y3955D01*
X15111Y3954D01*
X15113Y3953D01*
X15118Y3949D01*
X15123Y3943D01*
X15129Y3937D01*
X15135Y3930D01*
X15140Y3922D01*
X15140Y3922D01*
X15141Y3921D01*
X15141Y3920D01*
X15142Y3918D01*
X15143Y3916D01*
X15144Y3913D01*
X15145Y3911D01*
X15146Y3907D01*
X15148Y3904D01*
X15149Y3900D01*
X15151Y3891D01*
X15152Y3881D01*
X15153Y3872D01*
Y3871D01*
Y3869D01*
X15153Y3867D01*
X15152Y3863D01*
X15152Y3859D01*
X15151Y3854D01*
X15150Y3849D01*
X15148Y3843D01*
X15146Y3837D01*
X15144Y3830D01*
X15141Y3823D01*
X15137Y3816D01*
X15133Y3809D01*
X15127Y3802D01*
X15122Y3796D01*
X15115Y3789D01*
X15115Y3789D01*
X15113Y3788D01*
X15111Y3786D01*
X15108Y3784D01*
X15104Y3781D01*
X15099Y3778D01*
X15094Y3775D01*
X15088Y3772D01*
X15080Y3769D01*
X15073Y3766D01*
X15064Y3763D01*
X15054Y3760D01*
X15044Y3758D01*
X15033Y3757D01*
X15022Y3755D01*
X15009Y3755D01*
X15005D01*
X15003Y3755D01*
X14998Y3756D01*
X14992Y3756D01*
X14985Y3757D01*
X14978Y3758D01*
X14970Y3760D01*
X14961Y3761D01*
X14952Y3764D01*
X14943Y3766D01*
X14934Y3769D01*
X14925Y3774D01*
X14917Y3778D01*
X14908Y3784D01*
X14901Y3789D01*
X14900Y3790D01*
X14899Y3791D01*
X14897Y3793D01*
X14895Y3795D01*
X14892Y3799D01*
X14888Y3803D01*
X14885Y3807D01*
X14882Y3813D01*
X14878Y3818D01*
X14874Y3824D01*
X14871Y3831D01*
X14868Y3838D01*
X14866Y3846D01*
X14864Y3854D01*
X14863Y3863D01*
X14862Y3872D01*
Y3872D01*
Y3873D01*
Y3874D01*
Y3876D01*
X14863Y3878D01*
X14863Y3880D01*
X14864Y3886D01*
X14864Y3892D01*
X14866Y3899D01*
X14868Y3906D01*
X14871Y3914D01*
Y3914D01*
X14872Y3915D01*
X14872Y3916D01*
X14873Y3917D01*
X14874Y3919D01*
X14875Y3920D01*
X14879Y3925D01*
X14883Y3931D01*
X14888Y3938D01*
X14895Y3945D01*
X14899Y3949D01*
X14903Y3953D01*
X14763D01*
Y4027D01*
X15147D01*
Y3958D01*
D02*
G37*
G36*
X6237Y-383D02*
Y-383D01*
Y-384D01*
Y-385D01*
Y-386D01*
Y-389D01*
Y-393D01*
X6237Y-398D01*
X6236Y-404D01*
X6236Y-411D01*
X6236Y-417D01*
X6235Y-425D01*
X6234Y-432D01*
X6232Y-447D01*
X6231Y-454D01*
X6230Y-461D01*
X6228Y-467D01*
X6226Y-472D01*
Y-473D01*
X6226Y-474D01*
X6225Y-475D01*
X6224Y-477D01*
X6223Y-480D01*
X6222Y-482D01*
X6220Y-485D01*
X6218Y-489D01*
X6215Y-492D01*
X6213Y-496D01*
X6210Y-500D01*
X6206Y-503D01*
X6203Y-507D01*
X6199Y-510D01*
X6194Y-514D01*
X6189Y-517D01*
X6189Y-518D01*
X6188Y-518D01*
X6187Y-519D01*
X6185Y-520D01*
X6182Y-521D01*
X6179Y-523D01*
X6176Y-524D01*
X6172Y-526D01*
X6168Y-527D01*
X6163Y-529D01*
X6158Y-530D01*
X6153Y-532D01*
X6141Y-534D01*
X6135Y-534D01*
X6129Y-534D01*
X6127D01*
X6125Y-534D01*
X6122D01*
X6118Y-534D01*
X6114Y-533D01*
X6109Y-532D01*
X6104Y-531D01*
X6098Y-530D01*
X6092Y-528D01*
X6086Y-526D01*
X6081Y-523D01*
X6075Y-520D01*
X6069Y-517D01*
X6063Y-513D01*
X6057Y-509D01*
X6057Y-508D01*
X6056Y-507D01*
X6055Y-506D01*
X6053Y-504D01*
X6051Y-501D01*
X6048Y-498D01*
X6045Y-494D01*
X6042Y-490D01*
X6040Y-485D01*
X6037Y-479D01*
X6033Y-473D01*
X6031Y-466D01*
X6028Y-459D01*
X6026Y-451D01*
X6024Y-442D01*
X6022Y-433D01*
X6022Y-433D01*
X6022Y-434D01*
X6021Y-435D01*
X6020Y-437D01*
X6018Y-439D01*
X6017Y-442D01*
X6012Y-447D01*
X6008Y-454D01*
X6002Y-461D01*
X5996Y-467D01*
X5990Y-474D01*
X5989Y-474D01*
X5989Y-475D01*
X5988Y-476D01*
X5986Y-477D01*
X5984Y-479D01*
X5982Y-481D01*
X5979Y-483D01*
X5975Y-486D01*
X5971Y-489D01*
X5967Y-492D01*
X5962Y-496D01*
X5956Y-500D01*
X5950Y-504D01*
X5943Y-508D01*
X5936Y-513D01*
X5928Y-518D01*
X5853Y-565D01*
Y-472D01*
X5936Y-417D01*
X5937Y-416D01*
X5938Y-415D01*
X5940Y-414D01*
X5943Y-412D01*
X5947Y-409D01*
X5951Y-407D01*
X5955Y-403D01*
X5960Y-400D01*
X5970Y-393D01*
X5974Y-390D01*
X5979Y-387D01*
X5983Y-383D01*
X5987Y-381D01*
X5990Y-378D01*
X5993Y-376D01*
X5993Y-375D01*
X5994Y-374D01*
X5997Y-372D01*
X5999Y-369D01*
X6002Y-365D01*
X6004Y-361D01*
X6007Y-357D01*
X6009Y-352D01*
X6009Y-352D01*
X6009Y-350D01*
X6010Y-347D01*
X6011Y-345D01*
X6011Y-343D01*
X6011Y-340D01*
X6012Y-337D01*
X6012Y-334D01*
X6012Y-331D01*
X6013Y-327D01*
Y-323D01*
X6013Y-318D01*
Y-313D01*
Y-298D01*
X5853D01*
Y-220D01*
X6237D01*
Y-383D01*
D02*
G37*
%LPC*%
G36*
X15008Y3638D02*
X15004D01*
X15001Y3638D01*
X14997Y3638D01*
X14993Y3638D01*
X14989Y3637D01*
X14984Y3636D01*
X14974Y3634D01*
X14969Y3632D01*
X14963Y3630D01*
X14958Y3628D01*
X14953Y3625D01*
X14948Y3623D01*
X14944Y3619D01*
X14944Y3619D01*
X14943Y3618D01*
X14942Y3617D01*
X14941Y3616D01*
X14939Y3614D01*
X14937Y3611D01*
X14935Y3609D01*
X14933Y3606D01*
X14931Y3602D01*
X14929Y3599D01*
X14926Y3590D01*
X14924Y3586D01*
X14923Y3581D01*
X14922Y3576D01*
X14922Y3571D01*
Y3570D01*
Y3569D01*
Y3568D01*
X14922Y3566D01*
X14923Y3564D01*
X14923Y3560D01*
X14924Y3557D01*
X14925Y3554D01*
X14926Y3550D01*
X14927Y3546D01*
X14929Y3542D01*
X14932Y3538D01*
X14934Y3534D01*
X14937Y3530D01*
X14940Y3526D01*
X14944Y3522D01*
X14944Y3522D01*
X14945Y3521D01*
X14946Y3521D01*
X14948Y3519D01*
X14951Y3518D01*
X14953Y3516D01*
X14956Y3514D01*
X14960Y3512D01*
X14965Y3511D01*
X14969Y3509D01*
X14975Y3507D01*
X14980Y3506D01*
X14986Y3505D01*
X14993Y3504D01*
X15000Y3503D01*
X15008Y3503D01*
X15012D01*
X15015Y3503D01*
X15018Y3503D01*
X15022Y3504D01*
X15026Y3504D01*
X15031Y3505D01*
X15041Y3507D01*
X15047Y3509D01*
X15052Y3511D01*
X15057Y3513D01*
X15062Y3516D01*
X15067Y3519D01*
X15071Y3522D01*
X15071Y3523D01*
X15072Y3523D01*
X15073Y3524D01*
X15074Y3526D01*
X15076Y3528D01*
X15078Y3530D01*
X15080Y3533D01*
X15082Y3536D01*
X15084Y3539D01*
X15086Y3543D01*
X15090Y3551D01*
X15091Y3555D01*
X15092Y3560D01*
X15093Y3565D01*
X15093Y3571D01*
Y3571D01*
Y3572D01*
Y3574D01*
X15093Y3575D01*
X15093Y3578D01*
X15092Y3581D01*
X15091Y3584D01*
X15090Y3588D01*
X15089Y3591D01*
X15088Y3595D01*
X15086Y3599D01*
X15084Y3603D01*
X15081Y3607D01*
X15078Y3611D01*
X15075Y3615D01*
X15071Y3619D01*
X15071Y3619D01*
X15070Y3620D01*
X15069Y3621D01*
X15067Y3622D01*
X15065Y3623D01*
X15062Y3625D01*
X15059Y3627D01*
X15055Y3629D01*
X15050Y3631D01*
X15046Y3632D01*
X15041Y3634D01*
X15035Y3635D01*
X15029Y3637D01*
X15022Y3638D01*
X15015Y3638D01*
X15008Y3638D01*
D02*
G37*
G36*
X15012Y3954D02*
X15008D01*
X15005Y3954D01*
X15001Y3953D01*
X14996Y3953D01*
X14991Y3952D01*
X14986Y3952D01*
X14975Y3950D01*
X14969Y3948D01*
X14963Y3946D01*
X14957Y3944D01*
X14952Y3941D01*
X14947Y3939D01*
X14943Y3935D01*
X14942Y3935D01*
X14942Y3935D01*
X14941Y3934D01*
X14939Y3932D01*
X14938Y3930D01*
X14936Y3928D01*
X14934Y3925D01*
X14932Y3923D01*
X14930Y3920D01*
X14927Y3916D01*
X14924Y3908D01*
X14923Y3904D01*
X14922Y3900D01*
X14921Y3895D01*
X14921Y3890D01*
Y3890D01*
Y3889D01*
Y3887D01*
X14921Y3886D01*
X14921Y3883D01*
X14922Y3881D01*
X14923Y3875D01*
X14926Y3868D01*
X14927Y3865D01*
X14929Y3861D01*
X14932Y3857D01*
X14934Y3854D01*
X14937Y3851D01*
X14941Y3847D01*
X14941Y3847D01*
X14942Y3847D01*
X14943Y3846D01*
X14945Y3844D01*
X14947Y3843D01*
X14950Y3842D01*
X14953Y3840D01*
X14957Y3838D01*
X14961Y3837D01*
X14966Y3835D01*
X14972Y3834D01*
X14978Y3833D01*
X14985Y3832D01*
X14992Y3831D01*
X15000Y3830D01*
X15009Y3830D01*
X15013D01*
X15016Y3830D01*
X15020Y3831D01*
X15024Y3831D01*
X15028Y3832D01*
X15033Y3832D01*
X15044Y3834D01*
X15049Y3836D01*
X15054Y3837D01*
X15060Y3840D01*
X15065Y3842D01*
X15069Y3845D01*
X15073Y3848D01*
X15074Y3848D01*
X15074Y3849D01*
X15075Y3850D01*
X15077Y3851D01*
X15078Y3852D01*
X15080Y3855D01*
X15082Y3857D01*
X15084Y3860D01*
X15088Y3866D01*
X15092Y3873D01*
X15093Y3877D01*
X15094Y3882D01*
X15095Y3886D01*
X15095Y3891D01*
Y3891D01*
Y3892D01*
Y3894D01*
X15095Y3896D01*
X15094Y3898D01*
X15094Y3901D01*
X15093Y3904D01*
X15093Y3907D01*
X15090Y3914D01*
X15088Y3918D01*
X15086Y3921D01*
X15084Y3925D01*
X15081Y3929D01*
X15078Y3933D01*
X15074Y3936D01*
X15074Y3936D01*
X15073Y3937D01*
X15072Y3938D01*
X15070Y3939D01*
X15068Y3940D01*
X15065Y3942D01*
X15062Y3943D01*
X15059Y3945D01*
X15054Y3947D01*
X15050Y3948D01*
X15045Y3950D01*
X15039Y3951D01*
X15033Y3952D01*
X15027Y3953D01*
X15020Y3954D01*
X15012Y3954D01*
D02*
G37*
G36*
X15037Y4267D02*
X15031D01*
Y4158D01*
X15033D01*
X15034Y4158D01*
X15037D01*
X15039Y4158D01*
X15042Y4159D01*
X15046Y4159D01*
X15049Y4160D01*
X15057Y4162D01*
X15065Y4165D01*
X15073Y4169D01*
X15077Y4172D01*
X15080Y4174D01*
X15080Y4175D01*
X15081Y4175D01*
X15082Y4176D01*
X15083Y4177D01*
X15084Y4179D01*
X15085Y4181D01*
X15088Y4185D01*
X15092Y4191D01*
X15094Y4197D01*
X15096Y4204D01*
X15097Y4208D01*
X15097Y4213D01*
Y4213D01*
Y4213D01*
Y4215D01*
X15097Y4217D01*
X15096Y4218D01*
X15096Y4221D01*
X15095Y4227D01*
X15093Y4233D01*
X15091Y4236D01*
X15089Y4239D01*
X15087Y4243D01*
X15085Y4246D01*
X15082Y4249D01*
X15079Y4252D01*
X15079Y4252D01*
X15078Y4253D01*
X15077Y4254D01*
X15076Y4255D01*
X15074Y4256D01*
X15072Y4257D01*
X15069Y4258D01*
X15067Y4260D01*
X15063Y4261D01*
X15060Y4263D01*
X15056Y4264D01*
X15051Y4265D01*
X15047Y4266D01*
X15042Y4267D01*
X15037Y4267D01*
D02*
G37*
G36*
Y4566D02*
X15031D01*
Y4456D01*
X15033D01*
X15034Y4456D01*
X15037D01*
X15039Y4457D01*
X15042Y4457D01*
X15046Y4457D01*
X15049Y4458D01*
X15057Y4460D01*
X15065Y4463D01*
X15073Y4467D01*
X15077Y4470D01*
X15080Y4473D01*
X15080Y4473D01*
X15081Y4473D01*
X15082Y4474D01*
X15083Y4476D01*
X15084Y4477D01*
X15085Y4479D01*
X15088Y4483D01*
X15092Y4489D01*
X15094Y4496D01*
X15096Y4503D01*
X15097Y4507D01*
X15097Y4511D01*
Y4511D01*
Y4512D01*
Y4513D01*
X15097Y4515D01*
X15096Y4517D01*
X15096Y4519D01*
X15095Y4525D01*
X15093Y4531D01*
X15091Y4534D01*
X15089Y4538D01*
X15087Y4541D01*
X15085Y4544D01*
X15082Y4547D01*
X15079Y4550D01*
X15079Y4551D01*
X15078Y4551D01*
X15077Y4552D01*
X15076Y4553D01*
X15074Y4554D01*
X15072Y4555D01*
X15069Y4557D01*
X15067Y4558D01*
X15063Y4559D01*
X15060Y4561D01*
X15056Y4562D01*
X15051Y4564D01*
X15047Y4564D01*
X15042Y4565D01*
X15037Y4566D01*
D02*
G37*
G36*
X6172Y-298D02*
X6074D01*
Y-355D01*
Y-355D01*
Y-355D01*
Y-357D01*
Y-360D01*
Y-364D01*
Y-368D01*
X6075Y-373D01*
Y-379D01*
X6075Y-384D01*
X6076Y-396D01*
X6076Y-402D01*
X6076Y-408D01*
X6077Y-413D01*
X6077Y-417D01*
X6078Y-421D01*
X6079Y-424D01*
Y-425D01*
X6079Y-425D01*
X6080Y-427D01*
X6081Y-429D01*
X6083Y-432D01*
X6085Y-436D01*
X6088Y-440D01*
X6091Y-443D01*
X6095Y-446D01*
X6096Y-447D01*
X6097Y-447D01*
X6100Y-449D01*
X6103Y-450D01*
X6107Y-452D01*
X6112Y-453D01*
X6118Y-454D01*
X6124Y-454D01*
X6127D01*
X6131Y-454D01*
X6135Y-453D01*
X6140Y-452D01*
X6145Y-450D01*
X6151Y-447D01*
X6155Y-444D01*
X6156Y-443D01*
X6157Y-442D01*
X6159Y-439D01*
X6162Y-436D01*
X6164Y-432D01*
X6167Y-427D01*
X6169Y-421D01*
X6170Y-415D01*
Y-414D01*
Y-413D01*
X6171Y-413D01*
Y-411D01*
X6171Y-409D01*
Y-407D01*
X6171Y-404D01*
Y-401D01*
Y-397D01*
X6172Y-392D01*
Y-387D01*
X6172Y-381D01*
Y-374D01*
Y-366D01*
Y-358D01*
Y-298D01*
D02*
G37*
G36*
X6959Y1075D02*
X6850D01*
Y1033D01*
Y1033D01*
Y1031D01*
Y1029D01*
Y1026D01*
X6850Y1022D01*
Y1018D01*
X6850Y1013D01*
Y1008D01*
X6851Y998D01*
X6852Y988D01*
X6853Y983D01*
X6854Y979D01*
X6855Y975D01*
X6856Y972D01*
Y972D01*
X6856Y971D01*
X6857Y970D01*
X6858Y967D01*
X6860Y963D01*
X6863Y959D01*
X6866Y955D01*
X6870Y951D01*
X6874Y948D01*
X6875Y947D01*
X6877Y946D01*
X6879Y945D01*
X6883Y943D01*
X6888Y942D01*
X6893Y940D01*
X6898Y939D01*
X6905Y939D01*
X6907D01*
X6908Y939D01*
X6910D01*
X6912Y939D01*
X6917Y940D01*
X6923Y942D01*
X6928Y944D01*
X6934Y947D01*
X6939Y951D01*
X6940D01*
X6940Y952D01*
X6942Y953D01*
X6944Y956D01*
X6947Y960D01*
X6950Y964D01*
X6952Y970D01*
X6955Y976D01*
X6957Y982D01*
Y983D01*
X6957Y984D01*
Y985D01*
X6957Y987D01*
X6957Y989D01*
X6958Y991D01*
X6958Y995D01*
Y998D01*
X6958Y1002D01*
X6959Y1007D01*
X6959Y1012D01*
Y1017D01*
X6959Y1024D01*
Y1031D01*
Y1038D01*
Y1075D01*
D02*
G37*
G36*
X6172Y418D02*
X6062D01*
Y376D01*
Y375D01*
Y374D01*
Y372D01*
Y368D01*
X6063Y365D01*
Y361D01*
X6063Y356D01*
Y351D01*
X6064Y341D01*
X6065Y331D01*
X6066Y326D01*
X6066Y322D01*
X6067Y318D01*
X6068Y315D01*
Y314D01*
X6069Y314D01*
X6070Y312D01*
X6071Y309D01*
X6073Y306D01*
X6076Y302D01*
X6079Y298D01*
X6083Y294D01*
X6087Y290D01*
X6088Y290D01*
X6089Y289D01*
X6092Y288D01*
X6096Y286D01*
X6100Y284D01*
X6105Y283D01*
X6111Y282D01*
X6117Y281D01*
X6120D01*
X6121Y282D01*
X6123D01*
X6125Y282D01*
X6130Y283D01*
X6135Y284D01*
X6141Y287D01*
X6147Y290D01*
X6152Y294D01*
X6152D01*
X6153Y294D01*
X6154Y296D01*
X6157Y299D01*
X6159Y302D01*
X6162Y307D01*
X6165Y312D01*
X6168Y318D01*
X6169Y325D01*
Y326D01*
X6169Y327D01*
Y328D01*
X6170Y329D01*
X6170Y332D01*
X6170Y334D01*
X6171Y337D01*
Y341D01*
X6171Y345D01*
X6171Y349D01*
X6172Y354D01*
Y360D01*
X6172Y367D01*
Y373D01*
Y381D01*
Y418D01*
D02*
G37*
G36*
X6045Y1206D02*
X6042D01*
X6038Y1206D01*
X6034Y1206D01*
X6028Y1206D01*
X6022Y1205D01*
X6015Y1204D01*
X6008Y1203D01*
X6000Y1201D01*
X5992Y1199D01*
X5983Y1197D01*
X5975Y1194D01*
X5967Y1190D01*
X5960Y1186D01*
X5952Y1182D01*
X5946Y1177D01*
X5945Y1176D01*
X5944Y1175D01*
X5943Y1173D01*
X5940Y1171D01*
X5938Y1168D01*
X5935Y1164D01*
X5932Y1160D01*
X5929Y1156D01*
X5926Y1150D01*
X5923Y1145D01*
X5920Y1138D01*
X5918Y1132D01*
X5915Y1124D01*
X5914Y1117D01*
X5913Y1108D01*
X5912Y1100D01*
Y1099D01*
Y1098D01*
X5913Y1096D01*
X5913Y1092D01*
X5913Y1089D01*
X5914Y1084D01*
X5915Y1079D01*
X5916Y1073D01*
X5918Y1067D01*
X5920Y1061D01*
X5923Y1055D01*
X5926Y1048D01*
X5930Y1042D01*
X5935Y1036D01*
X5940Y1030D01*
X5946Y1024D01*
X5946Y1024D01*
X5947Y1023D01*
X5949Y1021D01*
X5952Y1019D01*
X5955Y1017D01*
X5960Y1015D01*
X5965Y1012D01*
X5971Y1009D01*
X5978Y1006D01*
X5985Y1003D01*
X5993Y1001D01*
X6002Y999D01*
X6012Y997D01*
X6022Y995D01*
X6034Y994D01*
X6046Y994D01*
X6050D01*
X6052Y994D01*
X6057D01*
X6062Y995D01*
X6068Y996D01*
X6076Y996D01*
X6083Y998D01*
X6091Y999D01*
X6099Y1001D01*
X6107Y1003D01*
X6115Y1006D01*
X6123Y1010D01*
X6131Y1013D01*
X6138Y1018D01*
X6144Y1023D01*
X6144Y1023D01*
X6146Y1024D01*
X6147Y1026D01*
X6149Y1028D01*
X6152Y1031D01*
X6154Y1035D01*
X6158Y1039D01*
X6161Y1044D01*
X6164Y1049D01*
X6167Y1055D01*
X6169Y1061D01*
X6172Y1068D01*
X6174Y1075D01*
X6176Y1083D01*
X6177Y1091D01*
X6177Y1100D01*
Y1101D01*
Y1102D01*
X6177Y1105D01*
X6176Y1108D01*
X6176Y1112D01*
X6175Y1117D01*
X6174Y1122D01*
X6173Y1128D01*
X6171Y1133D01*
X6169Y1140D01*
X6166Y1146D01*
X6163Y1153D01*
X6159Y1159D01*
X6155Y1165D01*
X6150Y1172D01*
X6144Y1177D01*
X6144Y1177D01*
X6142Y1178D01*
X6140Y1180D01*
X6138Y1182D01*
X6134Y1184D01*
X6130Y1186D01*
X6125Y1189D01*
X6119Y1192D01*
X6113Y1195D01*
X6105Y1197D01*
X6097Y1200D01*
X6088Y1202D01*
X6078Y1204D01*
X6068Y1205D01*
X6057Y1206D01*
X6045Y1206D01*
D02*
G37*
G36*
X6172Y776D02*
X6062D01*
Y734D01*
Y733D01*
Y732D01*
Y729D01*
Y726D01*
X6063Y723D01*
Y718D01*
X6063Y714D01*
Y709D01*
X6064Y699D01*
X6065Y689D01*
X6066Y684D01*
X6066Y679D01*
X6067Y676D01*
X6068Y673D01*
Y672D01*
X6069Y672D01*
X6070Y670D01*
X6071Y667D01*
X6073Y664D01*
X6076Y660D01*
X6079Y656D01*
X6083Y652D01*
X6087Y648D01*
X6088Y648D01*
X6089Y647D01*
X6092Y645D01*
X6096Y644D01*
X6100Y642D01*
X6105Y640D01*
X6111Y640D01*
X6117Y639D01*
X6120D01*
X6121Y640D01*
X6123D01*
X6125Y640D01*
X6130Y641D01*
X6135Y642D01*
X6141Y645D01*
X6147Y648D01*
X6152Y652D01*
X6152D01*
X6153Y652D01*
X6154Y654D01*
X6157Y657D01*
X6159Y660D01*
X6162Y665D01*
X6165Y670D01*
X6168Y676D01*
X6169Y683D01*
Y684D01*
X6169Y684D01*
Y686D01*
X6170Y687D01*
X6170Y689D01*
X6170Y692D01*
X6171Y695D01*
Y699D01*
X6171Y703D01*
X6171Y707D01*
X6172Y712D01*
Y718D01*
X6172Y724D01*
Y731D01*
Y739D01*
Y776D01*
D02*
G37*
G36*
X6832Y731D02*
X6829D01*
X6826Y731D01*
X6821Y730D01*
X6816Y730D01*
X6810Y729D01*
X6803Y728D01*
X6795Y727D01*
X6787Y726D01*
X6779Y724D01*
X6771Y721D01*
X6763Y718D01*
X6755Y715D01*
X6747Y711D01*
X6740Y706D01*
X6733Y701D01*
X6733Y701D01*
X6732Y700D01*
X6730Y698D01*
X6728Y695D01*
X6725Y693D01*
X6723Y689D01*
X6720Y685D01*
X6717Y680D01*
X6713Y675D01*
X6710Y669D01*
X6708Y663D01*
X6705Y656D01*
X6703Y649D01*
X6701Y641D01*
X6700Y633D01*
X6700Y625D01*
Y624D01*
Y622D01*
X6700Y620D01*
X6700Y617D01*
X6701Y613D01*
X6702Y608D01*
X6703Y603D01*
X6704Y598D01*
X6706Y592D01*
X6708Y586D01*
X6711Y579D01*
X6714Y573D01*
X6718Y567D01*
X6722Y560D01*
X6727Y554D01*
X6733Y548D01*
X6733Y548D01*
X6735Y547D01*
X6737Y546D01*
X6739Y544D01*
X6743Y542D01*
X6747Y539D01*
X6752Y536D01*
X6758Y533D01*
X6765Y531D01*
X6772Y528D01*
X6781Y525D01*
X6790Y523D01*
X6799Y521D01*
X6810Y520D01*
X6821Y519D01*
X6833Y518D01*
X6838D01*
X6840Y519D01*
X6844D01*
X6850Y519D01*
X6856Y520D01*
X6863Y521D01*
X6870Y522D01*
X6878Y524D01*
X6886Y526D01*
X6894Y528D01*
X6903Y531D01*
X6910Y534D01*
X6918Y538D01*
X6925Y542D01*
X6932Y547D01*
X6932Y548D01*
X6933Y549D01*
X6935Y551D01*
X6937Y553D01*
X6939Y556D01*
X6942Y559D01*
X6945Y563D01*
X6948Y568D01*
X6951Y573D01*
X6954Y579D01*
X6957Y585D01*
X6959Y592D01*
X6961Y600D01*
X6963Y607D01*
X6964Y616D01*
X6964Y625D01*
Y625D01*
Y627D01*
X6964Y629D01*
X6964Y632D01*
X6963Y636D01*
X6962Y641D01*
X6962Y646D01*
X6960Y652D01*
X6958Y658D01*
X6956Y664D01*
X6954Y671D01*
X6950Y677D01*
X6947Y684D01*
X6942Y690D01*
X6937Y696D01*
X6931Y702D01*
X6931Y702D01*
X6930Y703D01*
X6928Y704D01*
X6925Y706D01*
X6922Y708D01*
X6918Y711D01*
X6912Y713D01*
X6907Y716D01*
X6900Y719D01*
X6893Y722D01*
X6884Y724D01*
X6876Y726D01*
X6866Y728D01*
X6855Y730D01*
X6844Y731D01*
X6832Y731D01*
D02*
G37*
G36*
X15037Y6354D02*
X15031D01*
Y6244D01*
X15033D01*
X15034Y6244D01*
X15037D01*
X15039Y6245D01*
X15042Y6245D01*
X15046Y6246D01*
X15049Y6246D01*
X15057Y6248D01*
X15065Y6251D01*
X15073Y6255D01*
X15077Y6258D01*
X15080Y6261D01*
X15080Y6261D01*
X15081Y6261D01*
X15082Y6262D01*
X15083Y6264D01*
X15084Y6265D01*
X15085Y6267D01*
X15088Y6271D01*
X15092Y6277D01*
X15094Y6284D01*
X15096Y6291D01*
X15097Y6295D01*
X15097Y6299D01*
Y6299D01*
Y6300D01*
Y6301D01*
X15097Y6303D01*
X15096Y6305D01*
X15096Y6307D01*
X15095Y6313D01*
X15093Y6319D01*
X15091Y6322D01*
X15089Y6326D01*
X15087Y6329D01*
X15085Y6332D01*
X15082Y6335D01*
X15079Y6338D01*
X15079Y6339D01*
X15078Y6339D01*
X15077Y6340D01*
X15076Y6341D01*
X15074Y6342D01*
X15072Y6343D01*
X15069Y6345D01*
X15067Y6346D01*
X15063Y6348D01*
X15060Y6349D01*
X15056Y6350D01*
X15051Y6352D01*
X15047Y6353D01*
X15042Y6353D01*
X15037Y6354D01*
D02*
G37*
G36*
X14952Y5402D02*
X14951D01*
X14949Y5401D01*
X14947Y5401D01*
X14943Y5400D01*
X14939Y5399D01*
X14934Y5397D01*
X14930Y5394D01*
X14925Y5390D01*
X14925Y5390D01*
X14923Y5388D01*
X14922Y5386D01*
X14920Y5382D01*
X14917Y5378D01*
X14916Y5373D01*
X14915Y5367D01*
X14914Y5361D01*
Y5361D01*
Y5360D01*
Y5359D01*
X14914Y5358D01*
Y5356D01*
X14915Y5354D01*
X14916Y5349D01*
X14917Y5343D01*
X14919Y5336D01*
X14922Y5330D01*
X14927Y5323D01*
Y5323D01*
X14927Y5322D01*
X14929Y5321D01*
X14931Y5319D01*
X14934Y5316D01*
X14937Y5313D01*
X14942Y5310D01*
X14946Y5307D01*
X14951Y5305D01*
X14952D01*
X14953Y5305D01*
X14956Y5305D01*
X14960Y5304D01*
X14962Y5304D01*
X14964Y5303D01*
X14967Y5303D01*
X14971D01*
X14974Y5303D01*
X14978Y5302D01*
X15002D01*
Y5303D01*
X15002Y5303D01*
X15001Y5304D01*
X15001Y5305D01*
X15001Y5307D01*
X15000Y5309D01*
X15000Y5311D01*
X14999Y5313D01*
X14998Y5316D01*
X14997Y5319D01*
X14996Y5323D01*
X14995Y5327D01*
X14994Y5332D01*
X14993Y5337D01*
X14992Y5342D01*
X14991Y5347D01*
Y5348D01*
X14990Y5349D01*
X14990Y5350D01*
X14989Y5352D01*
X14989Y5355D01*
X14988Y5358D01*
X14986Y5364D01*
X14985Y5370D01*
X14982Y5377D01*
X14981Y5380D01*
X14980Y5383D01*
X14979Y5385D01*
X14978Y5387D01*
X14977Y5388D01*
X14976Y5389D01*
X14974Y5392D01*
X14971Y5394D01*
X14967Y5397D01*
X14963Y5399D01*
X14957Y5401D01*
X14955Y5401D01*
X14952Y5402D01*
D02*
G37*
G36*
X15021Y7203D02*
Y7098D01*
X15163Y7151D01*
X15021Y7203D01*
D02*
G37*
G36*
X6959Y-415D02*
X6705D01*
Y-472D01*
Y-473D01*
Y-474D01*
Y-476D01*
Y-478D01*
Y-481D01*
X6705Y-483D01*
Y-487D01*
Y-491D01*
X6706Y-498D01*
X6707Y-506D01*
X6707Y-513D01*
X6708Y-517D01*
X6708Y-520D01*
Y-520D01*
X6709Y-520D01*
X6709Y-521D01*
X6709Y-523D01*
X6711Y-526D01*
X6712Y-530D01*
X6714Y-535D01*
X6717Y-541D01*
X6721Y-546D01*
X6724Y-551D01*
X6725Y-551D01*
X6727Y-553D01*
X6729Y-555D01*
X6733Y-558D01*
X6738Y-561D01*
X6742Y-563D01*
X6745Y-564D01*
X6749Y-566D01*
X6752Y-568D01*
X6757Y-569D01*
X6762Y-571D01*
X6762D01*
X6763Y-571D01*
X6764Y-572D01*
X6766Y-572D01*
X6769Y-573D01*
X6772Y-574D01*
X6776Y-574D01*
X6780Y-575D01*
X6785Y-576D01*
X6790Y-577D01*
X6796Y-577D01*
X6802Y-578D01*
X6809Y-579D01*
X6816Y-579D01*
X6824Y-579D01*
X6839D01*
X6843Y-579D01*
X6847D01*
X6852Y-579D01*
X6857Y-578D01*
X6868Y-577D01*
X6879Y-576D01*
X6890Y-574D01*
X6895Y-573D01*
X6900Y-571D01*
X6900D01*
X6901Y-571D01*
X6902Y-570D01*
X6904Y-569D01*
X6906Y-569D01*
X6908Y-568D01*
X6914Y-565D01*
X6920Y-562D01*
X6926Y-559D01*
X6932Y-554D01*
X6937Y-549D01*
X6938D01*
X6938Y-548D01*
X6940Y-546D01*
X6942Y-543D01*
X6945Y-539D01*
X6948Y-534D01*
X6951Y-528D01*
X6953Y-521D01*
X6956Y-513D01*
Y-513D01*
X6956Y-512D01*
Y-511D01*
X6956Y-510D01*
X6957Y-508D01*
X6957Y-505D01*
X6957Y-503D01*
X6957Y-499D01*
X6958Y-495D01*
X6958Y-491D01*
X6958Y-485D01*
X6959Y-479D01*
X6959Y-473D01*
X6959Y-466D01*
Y-458D01*
Y-449D01*
Y-415D01*
D02*
G37*
G36*
X7619Y316D02*
X7617D01*
X7613Y315D01*
X7609Y315D01*
X7603Y315D01*
X7597Y314D01*
X7590Y313D01*
X7583Y312D01*
X7575Y310D01*
X7567Y308D01*
X7558Y306D01*
X7550Y303D01*
X7542Y299D01*
X7535Y296D01*
X7527Y291D01*
X7521Y286D01*
X7520Y285D01*
X7519Y284D01*
X7517Y283D01*
X7515Y280D01*
X7513Y277D01*
X7510Y273D01*
X7507Y269D01*
X7504Y265D01*
X7501Y259D01*
X7498Y254D01*
X7495Y247D01*
X7492Y241D01*
X7490Y234D01*
X7489Y226D01*
X7487Y218D01*
X7487Y209D01*
Y209D01*
Y207D01*
X7487Y205D01*
X7488Y201D01*
X7488Y198D01*
X7489Y193D01*
X7490Y188D01*
X7491Y182D01*
X7493Y176D01*
X7495Y170D01*
X7498Y164D01*
X7501Y157D01*
X7505Y151D01*
X7510Y145D01*
X7515Y139D01*
X7521Y133D01*
X7521Y133D01*
X7522Y132D01*
X7524Y130D01*
X7527Y128D01*
X7530Y126D01*
X7535Y124D01*
X7540Y121D01*
X7545Y118D01*
X7552Y115D01*
X7560Y113D01*
X7568Y110D01*
X7577Y108D01*
X7587Y106D01*
X7597Y104D01*
X7609Y103D01*
X7621Y103D01*
X7625D01*
X7627Y103D01*
X7632D01*
X7637Y104D01*
X7643Y105D01*
X7650Y106D01*
X7658Y107D01*
X7666Y108D01*
X7674Y110D01*
X7682Y113D01*
X7690Y115D01*
X7698Y119D01*
X7706Y122D01*
X7712Y127D01*
X7719Y132D01*
X7719Y132D01*
X7721Y133D01*
X7722Y135D01*
X7724Y137D01*
X7726Y140D01*
X7729Y144D01*
X7732Y148D01*
X7735Y153D01*
X7738Y158D01*
X7741Y164D01*
X7744Y170D01*
X7747Y177D01*
X7749Y184D01*
X7750Y192D01*
X7751Y200D01*
X7752Y209D01*
Y210D01*
Y211D01*
X7751Y214D01*
X7751Y217D01*
X7751Y221D01*
X7750Y226D01*
X7749Y231D01*
X7748Y237D01*
X7746Y243D01*
X7744Y249D01*
X7741Y255D01*
X7738Y262D01*
X7734Y268D01*
X7730Y274D01*
X7725Y281D01*
X7719Y286D01*
X7718Y287D01*
X7717Y288D01*
X7715Y289D01*
X7712Y291D01*
X7709Y293D01*
X7705Y296D01*
X7700Y298D01*
X7694Y301D01*
X7687Y304D01*
X7680Y306D01*
X7672Y309D01*
X7663Y311D01*
X7653Y313D01*
X7643Y314D01*
X7632Y315D01*
X7619Y316D01*
D02*
G37*
%LPD*%
D81*
X8687Y-1635D02*
Y2065D01*
X5065Y-1635D02*
X8687D01*
X5065D02*
Y2065D01*
X8687D01*
X11955Y8837D02*
X19042D01*
Y-8880D02*
Y8837D01*
X11955Y-8880D02*
X19042D01*
X11955D02*
Y8837D01*
M02*
