G04 Layer_Physical_Order=1*
G04 Layer_Color=255*
%FSLAX24Y24*%
%MOIN*%
G70*
G01*
G75*
%ADD10R,0.0512X0.0866*%
%ADD11R,0.0256X0.0295*%
%ADD12R,0.0591X0.0335*%
%ADD13R,0.0295X0.0256*%
%ADD14R,0.0315X0.0276*%
%ADD15R,0.0472X0.0472*%
%ADD16R,0.0650X0.1693*%
%ADD17R,0.0236X0.0236*%
%ADD18R,0.0236X0.0236*%
%ADD19R,0.0354X0.0315*%
%ADD20O,0.0650X0.0118*%
%ADD21R,0.0315X0.0354*%
%ADD22R,0.0945X0.0669*%
%ADD23R,0.0512X0.0217*%
%ADD24R,0.1181X0.0394*%
%ADD25R,0.0394X0.1181*%
%ADD26R,0.0256X0.0354*%
%ADD27R,0.0354X0.0256*%
%ADD28R,0.0571X0.0512*%
%ADD29R,0.0472X0.0532*%
%ADD30R,0.2244X0.0630*%
%ADD31R,0.0335X0.0591*%
%ADD32O,0.0079X0.0315*%
%ADD33O,0.0315X0.0079*%
%ADD34R,0.1614X0.1614*%
%ADD35R,0.0177X0.0374*%
%ADD36R,0.0453X0.0295*%
%ADD37C,0.0250*%
%ADD38C,0.0150*%
%ADD39C,0.0100*%
%ADD40C,0.0300*%
%ADD41C,0.0350*%
%ADD42C,0.0200*%
%ADD43C,0.1575*%
%ADD44C,0.0591*%
%ADD45R,0.0591X0.0591*%
%ADD46C,0.0250*%
G36*
X11700Y11300D02*
Y-7575D01*
X11635Y-7601D01*
X11586Y-7552D01*
X11518Y-7507D01*
X11438Y-7491D01*
X11438Y-7491D01*
X9909D01*
Y-6417D01*
X10028Y-6298D01*
X10156Y-6298D01*
X10218Y-6318D01*
X10224Y-6318D01*
X10386D01*
Y-6100D01*
X10436D01*
Y-6050D01*
X10654D01*
Y-5888D01*
X10654Y-5882D01*
Y-5818D01*
X10654Y-5812D01*
Y-5650D01*
X10436D01*
Y-5550D01*
X10654D01*
Y-5416D01*
X10893D01*
Y-4075D01*
X10340D01*
Y-4537D01*
X10224D01*
Y-4075D01*
X9971D01*
X5769Y127D01*
X5701Y172D01*
X5621Y188D01*
X5621Y188D01*
X3767D01*
Y256D01*
X2492D01*
X2485Y262D01*
X2457Y326D01*
X2476Y351D01*
X3047D01*
Y648D01*
Y945D01*
X2406D01*
Y654D01*
X2250D01*
Y436D01*
X2150D01*
Y654D01*
X1988D01*
X1982Y654D01*
X1918D01*
X1912Y654D01*
X1750D01*
Y436D01*
X1650D01*
Y654D01*
X1482D01*
Y544D01*
X1417Y517D01*
X1109Y825D01*
Y1935D01*
X1173Y1948D01*
X1179Y1947D01*
X1206Y1906D01*
X1558Y1555D01*
X1534Y1498D01*
X1521Y1400D01*
X1534Y1302D01*
X1572Y1211D01*
X1632Y1132D01*
X1711Y1072D01*
X1802Y1034D01*
X1900Y1021D01*
X1998Y1034D01*
X2089Y1072D01*
X2168Y1132D01*
X2228Y1211D01*
X2251Y1267D01*
X2426D01*
Y1040D01*
X3767D01*
Y1594D01*
X2426D01*
Y1533D01*
X2251D01*
X2228Y1589D01*
X2168Y1668D01*
X2089Y1728D01*
X1998Y1766D01*
X1900Y1779D01*
X1802Y1766D01*
X1745Y1742D01*
X1433Y2055D01*
Y6745D01*
X3845Y9158D01*
X3902Y9134D01*
X4000Y9121D01*
X4098Y9134D01*
X4189Y9172D01*
X4268Y9232D01*
X4328Y9311D01*
X4366Y9402D01*
X4379Y9500D01*
X4366Y9598D01*
X4328Y9689D01*
X4268Y9768D01*
X4189Y9828D01*
X4098Y9866D01*
X4000Y9879D01*
X3902Y9866D01*
X3811Y9828D01*
X3732Y9768D01*
X3672Y9689D01*
X3634Y9598D01*
X3621Y9500D01*
X3634Y9402D01*
X3658Y9345D01*
X1206Y6894D01*
X1179Y6853D01*
X1173Y6852D01*
X1109Y6865D01*
Y9125D01*
X1375D01*
Y9875D01*
X625D01*
Y9125D01*
X691D01*
Y5054D01*
X327D01*
Y5035D01*
X205D01*
Y5044D01*
X-467D01*
Y4788D01*
X-1136D01*
Y4784D01*
X-2642D01*
X-2656Y4793D01*
X-2736Y4809D01*
X-2816Y4793D01*
X-2884Y4748D01*
X-2929Y4680D01*
X-2933Y4663D01*
X-3298Y4298D01*
X-3434D01*
Y4089D01*
X-3456Y4068D01*
X-3770D01*
X-3820Y4057D01*
X-3863Y4029D01*
X-3885Y4008D01*
X-3912D01*
X-3962Y4054D01*
X-3972Y4072D01*
Y4131D01*
X-4114D01*
Y4181D01*
X-4164D01*
Y4431D01*
X-4169Y4430D01*
X-4215Y4400D01*
X-4264Y4412D01*
X-4311Y4421D01*
X-4358Y4412D01*
X-4407Y4400D01*
X-4453Y4430D01*
X-4508Y4441D01*
X-4572Y4500D01*
Y4740D01*
X-4268Y5044D01*
X-4198Y5015D01*
Y4918D01*
X-4200Y4917D01*
X-4280Y4901D01*
X-4348Y4856D01*
X-4393Y4788D01*
X-4409Y4708D01*
X-4393Y4628D01*
X-4348Y4560D01*
X-4280Y4515D01*
X-4200Y4499D01*
X-4120Y4515D01*
X-4052Y4560D01*
X-4007Y4628D01*
X-3991Y4708D01*
X-3992Y4711D01*
X-3943Y4766D01*
X-3802D01*
X-3757Y4728D01*
Y4728D01*
X-3243D01*
Y5144D01*
X-3734D01*
X-3788Y5201D01*
X-3782Y5218D01*
X-3782D01*
Y5368D01*
X-3777Y5436D01*
X-3712Y5436D01*
X-3550D01*
Y5664D01*
Y5892D01*
X-3777D01*
Y5722D01*
X-3782Y5654D01*
X-3847Y5654D01*
X-3950D01*
Y5436D01*
X-4050D01*
Y5654D01*
X-4167D01*
Y6329D01*
X-3635D01*
Y6999D01*
Y7612D01*
X-3635Y7671D01*
X-3569Y7682D01*
X-3446D01*
Y7850D01*
X-3664D01*
Y7950D01*
X-3446D01*
Y8118D01*
X-3466D01*
Y8498D01*
X-3466D01*
Y8502D01*
X-3466D01*
Y8898D01*
X-3432Y8954D01*
X-2974D01*
Y9646D01*
X-3606D01*
Y9171D01*
X-3657Y9120D01*
X-3722Y9147D01*
Y9646D01*
X-3905D01*
Y9838D01*
X-3915Y9889D01*
X-3944Y9932D01*
X-4058Y10045D01*
X-4034Y10102D01*
X-4021Y10200D01*
X-4034Y10298D01*
X-4072Y10389D01*
X-4132Y10468D01*
X-4211Y10528D01*
X-4302Y10566D01*
X-4400Y10579D01*
X-4498Y10566D01*
X-4589Y10528D01*
X-4668Y10468D01*
X-4728Y10389D01*
X-4766Y10298D01*
X-4778Y10200D01*
X-4766Y10102D01*
X-4728Y10011D01*
X-4668Y9932D01*
X-4589Y9872D01*
X-4498Y9834D01*
X-4400Y9821D01*
X-4302Y9834D01*
X-4245Y9858D01*
X-4170Y9783D01*
Y9646D01*
X-4354D01*
Y8988D01*
X-4354Y8918D01*
X-4354Y8884D01*
Y8750D01*
X-4136D01*
Y8650D01*
X-4354D01*
Y8482D01*
X-4334D01*
Y8102D01*
X-4334D01*
Y8098D01*
X-4334D01*
Y7702D01*
X-4365Y7671D01*
X-4365D01*
Y6999D01*
Y6522D01*
X-4394Y6494D01*
X-4422Y6451D01*
X-4433Y6400D01*
Y5255D01*
X-4631Y5057D01*
X-4707Y5080D01*
X-4707Y5080D01*
X-4752Y5148D01*
X-4820Y5193D01*
X-4900Y5209D01*
X-4980Y5193D01*
X-5048Y5148D01*
X-5093Y5080D01*
X-5093Y5080D01*
X-5169Y5057D01*
X-5367Y5255D01*
Y6365D01*
X-5378Y6416D01*
X-5406Y6459D01*
X-5435Y6487D01*
Y6999D01*
Y7671D01*
X-5435D01*
X-5466Y7702D01*
Y8098D01*
X-5466D01*
Y8102D01*
X-5466D01*
Y8482D01*
X-5446D01*
Y8650D01*
X-5664D01*
Y8750D01*
X-5446D01*
Y8918D01*
X-5455D01*
X-5510Y8954D01*
X-5510Y8988D01*
Y9646D01*
X-5693D01*
Y9719D01*
X-5588Y9825D01*
X-5025D01*
Y10575D01*
X-5775D01*
Y10012D01*
X-5920Y9868D01*
X-5948Y9825D01*
X-5959Y9774D01*
Y9646D01*
X-6142D01*
Y9147D01*
X-6207Y9120D01*
X-6258Y9171D01*
Y9646D01*
X-6890D01*
Y8954D01*
X-6416D01*
X-6334Y8873D01*
Y8502D01*
X-6334D01*
Y8498D01*
X-6334D01*
Y8118D01*
X-6354D01*
Y7950D01*
X-6136D01*
Y7850D01*
X-6354D01*
Y7682D01*
X-6413Y7654D01*
X-6708D01*
Y7199D01*
Y6746D01*
X-6708D01*
X-6698Y6734D01*
Y6338D01*
X-6302D01*
Y6734D01*
X-6292Y6746D01*
X-6292D01*
Y7202D01*
X-6165D01*
Y6999D01*
Y6329D01*
X-5652D01*
X-5633Y6310D01*
Y5200D01*
X-5622Y5149D01*
X-5594Y5106D01*
X-5457Y4969D01*
X-5480Y4893D01*
X-5480Y4893D01*
X-5548Y4848D01*
X-5576Y4806D01*
X-5646Y4827D01*
Y4908D01*
X-5741D01*
Y4974D01*
X-5751Y5024D01*
X-5780Y5067D01*
X-5869Y5156D01*
Y5775D01*
X-6291D01*
X-6323Y5845D01*
X-6306Y5866D01*
X-6302D01*
Y6262D01*
X-6698D01*
Y5866D01*
X-6633D01*
Y5795D01*
X-6834D01*
Y5400D01*
Y5005D01*
X-6633D01*
Y4874D01*
X-6622Y4823D01*
X-6594Y4780D01*
X-6554Y4740D01*
Y4492D01*
X-6306D01*
X-6018Y4205D01*
Y4181D01*
X-6008Y4130D01*
X-6008Y4129D01*
Y4088D01*
X-6054Y4038D01*
X-6072Y4028D01*
X-6131D01*
Y3886D01*
X-6181D01*
Y3836D01*
X-6431D01*
X-6431Y3831D01*
X-6400Y3785D01*
X-6412Y3736D01*
X-6421Y3689D01*
X-6412Y3642D01*
X-6390Y3591D01*
X-6412Y3539D01*
X-6421Y3492D01*
X-6480Y3433D01*
X-6745D01*
X-6800Y3487D01*
Y4500D01*
X-8400D01*
Y4454D01*
X-8550D01*
Y4236D01*
X-8600D01*
Y4186D01*
X-8818D01*
Y4018D01*
X-8818Y4018D01*
X-8818Y4018D01*
X-8798Y3956D01*
Y3566D01*
X-8402D01*
X-8400Y3496D01*
Y2904D01*
X-8402Y2834D01*
X-8798D01*
Y2444D01*
X-8818Y2382D01*
X-8818Y2382D01*
X-8818Y2382D01*
Y2214D01*
X-8600D01*
Y2164D01*
X-8550D01*
Y1946D01*
X-8400D01*
Y1900D01*
X-7802D01*
X-7789Y1831D01*
X-7832Y1802D01*
X-8267Y1367D01*
X-8296Y1324D01*
X-8306Y1274D01*
Y800D01*
X-8296Y749D01*
X-8267Y706D01*
X-8224Y678D01*
X-8216Y676D01*
X-8108Y568D01*
Y320D01*
X-8033D01*
Y228D01*
X-8108D01*
Y-205D01*
X-8128D01*
Y-403D01*
X-7672D01*
Y-205D01*
X-7692D01*
Y228D01*
X-7767D01*
Y320D01*
X-7692D01*
Y772D01*
Y1212D01*
X-7641Y1273D01*
X-7600Y1265D01*
X-7559Y1273D01*
X-7508Y1212D01*
Y772D01*
Y320D01*
X-7433D01*
Y228D01*
X-7508D01*
Y-205D01*
X-7528D01*
Y-403D01*
X-7072D01*
Y-205D01*
X-7092D01*
Y228D01*
X-7167D01*
Y320D01*
X-7092D01*
Y568D01*
X-6406Y1254D01*
X-6378Y1297D01*
X-6367Y1347D01*
Y1938D01*
X-6299Y1992D01*
X-6068D01*
X-6061Y1991D01*
X-6009Y1939D01*
X-6008Y1932D01*
Y1701D01*
X-5998Y1654D01*
X-5972Y1615D01*
X-5935Y1590D01*
X-5933Y1584D01*
X-5946Y1520D01*
X-5964D01*
X-6034Y1506D01*
X-6042Y1501D01*
X-6080Y1493D01*
X-6148Y1448D01*
X-6193Y1380D01*
X-6209Y1300D01*
X-6193Y1220D01*
X-6148Y1152D01*
X-6080Y1107D01*
X-6000Y1091D01*
X-5920Y1107D01*
X-5872Y1139D01*
X-5858Y1135D01*
X-5818Y1082D01*
X-5818Y1082D01*
Y914D01*
X-5600D01*
Y864D01*
X-5550D01*
Y646D01*
X-5382D01*
Y839D01*
X-5317Y866D01*
X-5257Y806D01*
X-5214Y778D01*
X-5164Y767D01*
X-5008D01*
Y646D01*
X-4592D01*
Y732D01*
X-4522Y753D01*
X-4521Y752D01*
X-4454Y707D01*
X-4374Y691D01*
X-4294Y707D01*
X-4226Y752D01*
X-4222Y758D01*
X-4152D01*
X-4148Y752D01*
X-4080Y707D01*
X-4000Y691D01*
X-3920Y707D01*
X-3852Y752D01*
X-3807Y820D01*
X-3802Y845D01*
X-3783Y900D01*
X-3726Y896D01*
X-3700Y891D01*
X-3620Y907D01*
X-3552Y952D01*
X-3507Y1020D01*
X-3491Y1100D01*
X-3507Y1180D01*
X-3552Y1248D01*
X-3567Y1258D01*
Y1300D01*
X-3578Y1351D01*
X-3606Y1394D01*
X-3982Y1769D01*
Y1819D01*
X-3992Y1870D01*
X-3992Y1871D01*
Y1932D01*
X-3991Y1939D01*
X-3939Y1991D01*
X-3932Y1992D01*
X-3701D01*
X-3654Y2002D01*
X-3615Y2028D01*
X-3588Y2068D01*
X-3579Y2114D01*
X-3588Y2161D01*
X-3610Y2213D01*
X-3588Y2264D01*
X-3579Y2311D01*
X-3588Y2358D01*
X-3610Y2409D01*
X-3588Y2461D01*
X-3579Y2508D01*
X-3588Y2554D01*
X-3610Y2606D01*
X-3601Y2628D01*
X-3557Y2648D01*
X-3525Y2637D01*
X-3480Y2607D01*
X-3400Y2591D01*
X-3320Y2607D01*
X-3252Y2652D01*
X-3207Y2720D01*
X-3191Y2800D01*
X-3205Y2873D01*
X-3201Y2893D01*
X-3175Y2943D01*
X-3056D01*
Y3434D01*
X-2999Y3488D01*
X-2982Y3482D01*
Y3482D01*
X-2832D01*
X-2764Y3477D01*
X-2764Y3412D01*
Y3250D01*
X-2536D01*
X-2308D01*
Y3477D01*
X-2478D01*
X-2546Y3482D01*
X-2546Y3547D01*
Y3650D01*
X-2764D01*
Y3750D01*
X-2546D01*
Y3882D01*
Y4050D01*
X-2764D01*
Y4150D01*
X-2546D01*
Y4318D01*
X-2609D01*
X-2661Y4388D01*
X-2660Y4392D01*
X-2636Y4416D01*
X-1136D01*
Y4412D01*
X-467D01*
Y4156D01*
X205D01*
Y4241D01*
X327D01*
Y4146D01*
X367D01*
Y4058D01*
X352Y4048D01*
X307Y3980D01*
X291Y3900D01*
X307Y3820D01*
X352Y3752D01*
X420Y3707D01*
X500Y3691D01*
X580Y3707D01*
X621Y3734D01*
X691Y3700D01*
Y1118D01*
X653Y1101D01*
X621Y1098D01*
X568Y1168D01*
X489Y1228D01*
X433Y1251D01*
Y1842D01*
X448Y1852D01*
X493Y1920D01*
X509Y2000D01*
X493Y2080D01*
X448Y2148D01*
X380Y2193D01*
X300Y2209D01*
X220Y2193D01*
X152Y2148D01*
X107Y2080D01*
X91Y2000D01*
X107Y1920D01*
X152Y1852D01*
X167Y1842D01*
Y1251D01*
X111Y1228D01*
X32Y1168D01*
X-28Y1089D01*
X-66Y998D01*
X-79Y900D01*
X-66Y802D01*
X-28Y711D01*
X32Y632D01*
X111Y572D01*
X202Y534D01*
X300Y521D01*
X398Y534D01*
X468Y563D01*
X1816Y-784D01*
X1859Y-813D01*
X1909Y-823D01*
X2426D01*
Y-967D01*
X3767D01*
Y-414D01*
X2426D01*
Y-558D01*
X1964D01*
X1719Y-313D01*
X1742Y-237D01*
X1755Y-234D01*
X1898D01*
Y-230D01*
X2002D01*
Y-234D01*
X2398D01*
X2426Y-293D01*
Y-298D01*
X3767D01*
Y-230D01*
X5535D01*
X9295Y-3990D01*
X9268Y-4055D01*
X9100D01*
X9094Y-4020D01*
X9065Y-3977D01*
X7804Y-2716D01*
X7807Y-2698D01*
X7792Y-2618D01*
X7746Y-2551D01*
X7678Y-2505D01*
X7598Y-2489D01*
X7518Y-2505D01*
X7451Y-2551D01*
X7440Y-2566D01*
X3767D01*
Y-2422D01*
X2426D01*
Y-2975D01*
X3767D01*
Y-2831D01*
X7440D01*
X7451Y-2846D01*
X7518Y-2892D01*
X7598Y-2907D01*
X7616Y-2904D01*
X8703Y-3990D01*
X8676Y-4055D01*
X8659D01*
Y-4746D01*
Y-5436D01*
X8839D01*
Y-6673D01*
X8807Y-6720D01*
X8791Y-6800D01*
X8807Y-6880D01*
X8852Y-6948D01*
X8920Y-6993D01*
X9000Y-7009D01*
X9080Y-6993D01*
X9148Y-6948D01*
X9193Y-6880D01*
X9209Y-6800D01*
X9193Y-6720D01*
X9148Y-6652D01*
X9104Y-6623D01*
Y-5436D01*
X9228D01*
Y-4746D01*
X9278D01*
Y-4696D01*
X9575D01*
Y-4411D01*
X9645Y-4376D01*
X9670Y-4396D01*
Y-5416D01*
X9738D01*
Y-5997D01*
X9552Y-6183D01*
X9507Y-6251D01*
X9491Y-6331D01*
X9491Y-6331D01*
Y-7700D01*
Y-7865D01*
X9410D01*
X9395Y-7852D01*
Y-7766D01*
X9050D01*
Y-7983D01*
X9113D01*
X9140Y-8048D01*
X8952Y-8237D01*
X8625D01*
Y-8407D01*
X6775D01*
Y-8369D01*
X6548D01*
Y-7954D01*
X6536Y-7893D01*
X6502Y-7842D01*
X6098Y-7438D01*
Y-7266D01*
X5708D01*
Y-7246D01*
X5292D01*
Y-7778D01*
X5208D01*
Y-7220D01*
X4996D01*
X4741Y-6965D01*
X4690Y-6931D01*
X4630Y-6919D01*
X4137D01*
Y-6820D01*
X3663D01*
Y-7334D01*
X4137D01*
Y-7235D01*
X4564D01*
X4792Y-7463D01*
Y-7921D01*
X4697Y-8015D01*
X4694Y-8021D01*
X4688Y-8024D01*
X4660Y-8067D01*
X4650Y-8118D01*
Y-8873D01*
X4660Y-8924D01*
X4688Y-8967D01*
X4815Y-9094D01*
X4825Y-9100D01*
X4801Y-9135D01*
X4799Y-9147D01*
X5217D01*
X5635D01*
X5633Y-9135D01*
X5597Y-9082D01*
X5596Y-9081D01*
X5614Y-9054D01*
X5624Y-9000D01*
X5614Y-8946D01*
X5596Y-8919D01*
X5597Y-8918D01*
X5633Y-8865D01*
X5645Y-8803D01*
X5703Y-8739D01*
X6025D01*
Y-8863D01*
X6775D01*
Y-8825D01*
X8868D01*
X8868Y-8825D01*
X8948Y-8809D01*
X8997Y-8776D01*
X9442Y-9221D01*
X9442Y-9221D01*
X9492Y-9255D01*
Y-9754D01*
X9880D01*
Y-9841D01*
X10206D01*
Y-9941D01*
X9880D01*
Y-10139D01*
X9900D01*
Y-10500D01*
X10045D01*
X10049Y-10507D01*
X10159Y-10617D01*
X10133Y-10682D01*
X9946D01*
Y-10850D01*
X10164D01*
Y-10900D01*
X10214D01*
Y-11118D01*
X10382D01*
X10382Y-11118D01*
X10382Y-11118D01*
X10444Y-11098D01*
X10834D01*
Y-11058D01*
X11700D01*
Y-11300D01*
X-24800D01*
X-24800Y11300D01*
X11700Y11300D01*
D02*
G37*
G36*
X11698Y-8255D02*
X11694Y-8325D01*
X11652Y-8352D01*
X11607Y-8420D01*
X11591Y-8500D01*
X11595Y-8518D01*
X11580Y-8533D01*
X11551Y-8576D01*
X11541Y-8626D01*
Y-8792D01*
X11446D01*
Y-8867D01*
X11121D01*
X11070Y-8878D01*
X11037Y-8900D01*
X10733D01*
Y-8658D01*
X10748Y-8648D01*
X10793Y-8580D01*
X10809Y-8500D01*
X10793Y-8420D01*
X10748Y-8352D01*
X10680Y-8307D01*
X10600Y-8291D01*
X10520Y-8307D01*
X10472Y-8339D01*
X10458Y-8335D01*
X10418Y-8282D01*
X10418Y-8282D01*
Y-8114D01*
X10200D01*
Y-8014D01*
X10418D01*
Y-7909D01*
X11352D01*
X11698Y-8255D01*
D02*
G37*
%LPC*%
G36*
X6551Y-4796D02*
X6304D01*
Y-5436D01*
X6551D01*
Y-4796D01*
D02*
G37*
G36*
X6228Y-4796D02*
X5981D01*
Y-5436D01*
X6228D01*
Y-4796D01*
D02*
G37*
G36*
X6898Y-4796D02*
X6651D01*
Y-5436D01*
X6898D01*
Y-4796D01*
D02*
G37*
G36*
X7889Y-4796D02*
X7643D01*
Y-5436D01*
X7889D01*
Y-4796D01*
D02*
G37*
G36*
X7567Y-4796D02*
X7320D01*
Y-5436D01*
X7567D01*
Y-4796D01*
D02*
G37*
G36*
X7220D02*
X6973D01*
Y-5436D01*
X7220D01*
Y-4796D01*
D02*
G37*
G36*
X5881Y-4796D02*
X5635D01*
Y-5436D01*
X5881D01*
Y-4796D01*
D02*
G37*
G36*
X3874Y-4796D02*
X3627D01*
Y-5436D01*
X3874D01*
Y-4796D01*
D02*
G37*
G36*
X4220D02*
X3974D01*
Y-5436D01*
X4220D01*
Y-4796D01*
D02*
G37*
G36*
X3204Y-4796D02*
X2957D01*
Y-5436D01*
X3204D01*
Y-4796D01*
D02*
G37*
G36*
X3551D02*
X3304D01*
Y-5436D01*
X3551D01*
Y-4796D01*
D02*
G37*
G36*
X5212Y-4796D02*
X4965D01*
Y-5436D01*
X5212D01*
Y-4796D01*
D02*
G37*
G36*
X5559D02*
X5312D01*
Y-5436D01*
X5559D01*
Y-4796D01*
D02*
G37*
G36*
X4543Y-4796D02*
X4296D01*
Y-5436D01*
X4543D01*
Y-4796D01*
D02*
G37*
G36*
X4890D02*
X4643D01*
Y-5436D01*
X4890D01*
Y-4796D01*
D02*
G37*
G36*
X4220Y-4055D02*
X3974D01*
Y-4696D01*
X4220D01*
Y-4055D01*
D02*
G37*
G36*
X5212D02*
X4965D01*
Y-4696D01*
X5212D01*
Y-4055D01*
D02*
G37*
G36*
X7567D02*
X7320D01*
Y-4696D01*
X7567D01*
Y-4055D01*
D02*
G37*
G36*
X3874D02*
X3627D01*
Y-4696D01*
X3874D01*
Y-4055D01*
D02*
G37*
G36*
X3204D02*
X2957D01*
Y-4696D01*
X3204D01*
Y-4055D01*
D02*
G37*
G36*
X6551D02*
X6304D01*
Y-4696D01*
X6551D01*
Y-4055D01*
D02*
G37*
G36*
X8559D02*
X8312D01*
Y-4696D01*
X8559D01*
Y-4055D01*
D02*
G37*
G36*
X5559D02*
X5312D01*
Y-4696D01*
X5559D01*
Y-4055D01*
D02*
G37*
G36*
X9575Y-4796D02*
X9328D01*
Y-5436D01*
X9575D01*
Y-4796D01*
D02*
G37*
G36*
X11236Y-4796D02*
X10989D01*
Y-5436D01*
X11236D01*
Y-4796D01*
D02*
G37*
G36*
X8236Y-4796D02*
X7989D01*
Y-5436D01*
X8236D01*
Y-4796D01*
D02*
G37*
G36*
X8559Y-4796D02*
X8312D01*
Y-5436D01*
X8559D01*
Y-4796D01*
D02*
G37*
G36*
X6228Y-4055D02*
X5981D01*
Y-4696D01*
X6228D01*
Y-4055D01*
D02*
G37*
G36*
X7220D02*
X6973D01*
Y-4696D01*
X7220D01*
Y-4055D01*
D02*
G37*
G36*
X11583Y-4796D02*
X11336D01*
Y-5436D01*
X11583D01*
Y-4796D01*
D02*
G37*
G36*
X5881Y-4055D02*
X5635D01*
Y-4696D01*
X5881D01*
Y-4055D01*
D02*
G37*
G36*
X5635Y-9247D02*
X5217D01*
X4799D01*
X4801Y-9259D01*
X4826Y-9295D01*
X4801Y-9332D01*
X4799Y-9344D01*
X5217D01*
X5635D01*
X5633Y-9332D01*
X5608Y-9295D01*
X5633Y-9259D01*
X5635Y-9247D01*
D02*
G37*
G36*
Y-9444D02*
X5267D01*
Y-9556D01*
X5483D01*
X5545Y-9544D01*
X5597Y-9508D01*
X5633Y-9456D01*
X5635Y-9444D01*
D02*
G37*
G36*
X5167D02*
X4799D01*
X4801Y-9456D01*
X4837Y-9508D01*
X4889Y-9544D01*
X4951Y-9556D01*
X5167D01*
Y-9444D01*
D02*
G37*
G36*
X6350Y-9117D02*
X6005D01*
Y-9334D01*
X6350D01*
Y-9117D01*
D02*
G37*
G36*
X-150Y-8749D02*
X-495D01*
Y-8966D01*
X-150D01*
Y-8749D01*
D02*
G37*
G36*
X295Y-9066D02*
X-50D01*
Y-9283D01*
X295D01*
Y-9066D01*
D02*
G37*
G36*
X6795Y-9117D02*
X6450D01*
Y-9334D01*
X6795D01*
Y-9117D01*
D02*
G37*
G36*
Y-9434D02*
X6450D01*
Y-9651D01*
X6795D01*
Y-9434D01*
D02*
G37*
G36*
X-1746Y-10824D02*
X-1973D01*
Y-11031D01*
X-1746D01*
Y-10824D01*
D02*
G37*
G36*
X-2073D02*
X-2300D01*
Y-11031D01*
X-2073D01*
Y-10824D01*
D02*
G37*
G36*
X10114Y-10950D02*
X9946D01*
Y-11118D01*
X10114D01*
Y-10950D01*
D02*
G37*
G36*
X-2372Y-10576D02*
X-2550D01*
Y-10774D01*
X-2372D01*
Y-10576D01*
D02*
G37*
G36*
X6350Y-9434D02*
X6005D01*
Y-9651D01*
X6350D01*
Y-9434D01*
D02*
G37*
G36*
X-1746Y-10517D02*
X-1973D01*
Y-10724D01*
X-1746D01*
Y-10517D01*
D02*
G37*
G36*
X-2073D02*
X-2300D01*
Y-10724D01*
X-2073D01*
Y-10517D01*
D02*
G37*
G36*
X295Y-8749D02*
X-50D01*
Y-8966D01*
X295D01*
Y-8749D01*
D02*
G37*
G36*
X2224Y-6872D02*
X2026D01*
Y-7050D01*
X2224D01*
Y-6872D01*
D02*
G37*
G36*
X-6030Y-6033D02*
X-6702D01*
Y-7060D01*
X-6030D01*
Y-6033D01*
D02*
G37*
G36*
X2224Y-7150D02*
X2026D01*
Y-7328D01*
X2224D01*
Y-7150D01*
D02*
G37*
G36*
X10654Y-6150D02*
X10486D01*
Y-6318D01*
X10654D01*
Y-6150D01*
D02*
G37*
G36*
X-5500Y-4791D02*
X-5580Y-4807D01*
X-5648Y-4852D01*
X-5693Y-4920D01*
X-5709Y-5000D01*
X-5693Y-5080D01*
X-5648Y-5148D01*
X-5633Y-5158D01*
Y-5453D01*
X-7700D01*
X-7700Y-5453D01*
X-7790Y-5471D01*
X-7866Y-5522D01*
X-8373Y-6029D01*
X-11164D01*
X-11254Y-6047D01*
X-11330Y-6098D01*
X-13697Y-8465D01*
X-19400D01*
X-19490Y-8483D01*
X-19566Y-8534D01*
X-20334Y-9303D01*
X-20426Y-9254D01*
X-20589Y-9204D01*
X-20759Y-9187D01*
X-20929Y-9204D01*
X-21093Y-9254D01*
X-21243Y-9334D01*
X-21375Y-9443D01*
X-21484Y-9575D01*
X-21564Y-9726D01*
X-21614Y-9889D01*
X-21631Y-10059D01*
X-21614Y-10229D01*
X-21564Y-10393D01*
X-21484Y-10543D01*
X-21375Y-10675D01*
X-21243Y-10784D01*
X-21093Y-10864D01*
X-20929Y-10914D01*
X-20759Y-10931D01*
X-20589Y-10914D01*
X-20426Y-10864D01*
X-20275Y-10784D01*
X-20143Y-10675D01*
X-20034Y-10543D01*
X-19954Y-10393D01*
X-19904Y-10229D01*
X-19887Y-10059D01*
X-19904Y-9889D01*
X-19954Y-9726D01*
X-20003Y-9634D01*
X-19303Y-8935D01*
X-13600D01*
X-13510Y-8917D01*
X-13434Y-8866D01*
X-12153Y-7584D01*
X-11080Y-8656D01*
Y-8963D01*
X-10736D01*
X-10709Y-9028D01*
X-10917Y-9237D01*
X-11080D01*
Y-9711D01*
X-10735D01*
X-10698Y-9781D01*
X-10710Y-9799D01*
X-14813D01*
X-14836Y-9726D01*
X-14916Y-9575D01*
X-15025Y-9443D01*
X-15157Y-9334D01*
X-15307Y-9254D01*
X-15471Y-9204D01*
X-15641Y-9187D01*
X-15811Y-9204D01*
X-15974Y-9254D01*
X-16125Y-9334D01*
X-16257Y-9443D01*
X-16366Y-9575D01*
X-16446Y-9726D01*
X-16496Y-9889D01*
X-16513Y-10059D01*
X-16496Y-10229D01*
X-16446Y-10393D01*
X-16366Y-10543D01*
X-16257Y-10675D01*
X-16125Y-10784D01*
X-15974Y-10864D01*
X-15811Y-10914D01*
X-15641Y-10931D01*
X-15471Y-10914D01*
X-15307Y-10864D01*
X-15157Y-10784D01*
X-15025Y-10675D01*
X-14916Y-10543D01*
X-14836Y-10393D01*
X-14813Y-10319D01*
X-10559D01*
X-10460Y-10299D01*
X-10375Y-10243D01*
X-9793Y-9661D01*
X-9737Y-9576D01*
X-9717Y-9477D01*
Y-9200D01*
X-9720Y-9186D01*
Y-8863D01*
X-10165D01*
Y-8297D01*
X-10183Y-8207D01*
X-10234Y-8131D01*
X-10566Y-7800D01*
Y-7787D01*
X-10319Y-7540D01*
X-10254Y-7567D01*
Y-7757D01*
X-10027D01*
Y-7500D01*
X-9977D01*
Y-7450D01*
X-9700D01*
Y-7243D01*
X-9930D01*
X-9957Y-7178D01*
X-9673Y-6894D01*
X-8998D01*
Y-6934D01*
X-8958D01*
Y-7900D01*
X-8946Y-7960D01*
X-8912Y-8012D01*
X-8385Y-8538D01*
X-8334Y-8572D01*
X-8308Y-8578D01*
Y-8654D01*
X-7892D01*
Y-8529D01*
X-7822Y-8492D01*
X-7808Y-8501D01*
Y-8654D01*
X-7392D01*
Y-8529D01*
X-7322Y-8492D01*
X-7308Y-8501D01*
Y-8654D01*
X-6892D01*
Y-8201D01*
Y-7746D01*
X-6916D01*
Y-7375D01*
X-6930Y-7305D01*
X-6970Y-7246D01*
X-7459Y-6756D01*
X-7519Y-6717D01*
X-7582Y-6704D01*
X-7576Y-6634D01*
X-7576D01*
Y-6263D01*
X-7509Y-6197D01*
X-7480Y-6216D01*
X-7400Y-6232D01*
X-7320Y-6216D01*
X-7252Y-6171D01*
X-7207Y-6103D01*
X-7191Y-6023D01*
X-7197Y-5992D01*
X-7143Y-5922D01*
X-5590D01*
X-4970Y-6542D01*
Y-7060D01*
X-4868D01*
Y-7566D01*
X-4851Y-7656D01*
X-4800Y-7732D01*
X-2998Y-9534D01*
X-3020Y-9603D01*
X-3025Y-9606D01*
X-3100Y-9591D01*
X-3180Y-9607D01*
X-3248Y-9652D01*
X-3293Y-9720D01*
X-3309Y-9800D01*
X-3293Y-9880D01*
X-3248Y-9948D01*
X-3180Y-9993D01*
X-3100Y-10009D01*
X-3020Y-9993D01*
X-2952Y-9948D01*
X-2886Y-9975D01*
X-2828Y-10033D01*
Y-10115D01*
X-3055Y-10341D01*
X-4298D01*
Y-9340D01*
X-4970D01*
Y-10341D01*
X-5945D01*
X-6030Y-10256D01*
Y-9340D01*
X-6702D01*
Y-10367D01*
X-6294D01*
X-6094Y-10567D01*
X-6051Y-10596D01*
X-6000Y-10606D01*
X-3000D01*
X-2949Y-10596D01*
X-2906Y-10567D01*
X-2893Y-10554D01*
X-2828Y-10580D01*
Y-10774D01*
X-2650D01*
Y-10526D01*
X-2600D01*
Y-10476D01*
X-2372D01*
Y-10279D01*
X-2392D01*
Y-10206D01*
X-2280D01*
Y-10263D01*
X-1766D01*
Y-9789D01*
X-2280D01*
Y-9941D01*
X-2392D01*
Y-9846D01*
X-2640D01*
X-2726Y-9760D01*
X-2697Y-9690D01*
X-2435D01*
X-2345Y-9673D01*
X-2302Y-9644D01*
X-2099D01*
Y-9388D01*
X-1498D01*
X-1435Y-9426D01*
X-1435Y-9456D01*
Y-10377D01*
X-1434Y-10380D01*
Y-10637D01*
X-920D01*
Y-10163D01*
X-965D01*
Y-9519D01*
X-895Y-9490D01*
X-475Y-9910D01*
Y-10031D01*
X275D01*
Y-10018D01*
X498D01*
Y-10220D01*
X2902D01*
Y-9585D01*
X3107Y-9380D01*
X3137Y-9386D01*
X3178Y-9408D01*
X3186Y-9448D01*
X3217Y-9494D01*
X3263Y-9525D01*
X3317Y-9535D01*
X3849D01*
X3903Y-9525D01*
X3949Y-9494D01*
X3980Y-9448D01*
X3991Y-9394D01*
X3980Y-9339D01*
X4015Y-9291D01*
X4112Y-9194D01*
X4140Y-9151D01*
X4150Y-9100D01*
Y-8536D01*
X4140Y-8486D01*
X4112Y-8443D01*
X4013Y-8344D01*
X3970Y-8315D01*
X3919Y-8305D01*
X3716D01*
Y-8180D01*
X3763D01*
Y-7666D01*
X3456D01*
X2959Y-7169D01*
Y-7100D01*
X2954Y-7075D01*
Y-7060D01*
X3781Y-6233D01*
X8142D01*
X8152Y-6248D01*
X8220Y-6293D01*
X8300Y-6309D01*
X8380Y-6293D01*
X8448Y-6248D01*
X8493Y-6180D01*
X8509Y-6100D01*
X8493Y-6020D01*
X8448Y-5952D01*
X8380Y-5907D01*
X8300Y-5891D01*
X8220Y-5907D01*
X8152Y-5952D01*
X8142Y-5967D01*
X3726D01*
X3676Y-5978D01*
X3633Y-6006D01*
X2747Y-6892D01*
X2521D01*
Y-6872D01*
X2324D01*
Y-7100D01*
Y-7328D01*
X2521D01*
Y-7308D01*
X2726D01*
X2733Y-7317D01*
X2906Y-7491D01*
X2906Y-7514D01*
X2842Y-7580D01*
X2834Y-7580D01*
X498D01*
Y-8370D01*
X2682D01*
X3016Y-8703D01*
Y-8803D01*
X3026Y-8854D01*
X3052Y-8902D01*
X3026Y-8949D01*
X3016Y-9000D01*
Y-9097D01*
X2682Y-9430D01*
X498D01*
Y-9549D01*
X275D01*
Y-9537D01*
X-186D01*
X-374Y-9348D01*
X-347Y-9283D01*
X-150D01*
Y-9066D01*
X-495D01*
Y-9135D01*
X-560Y-9162D01*
X-914Y-8808D01*
X-965Y-8774D01*
Y-8500D01*
X-983Y-8410D01*
X-1034Y-8334D01*
X-1695Y-7673D01*
Y-6155D01*
X-2505D01*
Y-8008D01*
X-2024D01*
X-1435Y-8597D01*
Y-8832D01*
X-1765D01*
X-1855Y-8850D01*
X-1931Y-8901D01*
X-1982Y-8977D01*
X-1989Y-9012D01*
X-2099D01*
Y-8756D01*
X-2657D01*
X-2895Y-8518D01*
X-2891Y-8500D01*
X-2907Y-8420D01*
X-2952Y-8352D01*
X-3020Y-8307D01*
X-3100Y-8291D01*
X-3180Y-8307D01*
X-3248Y-8352D01*
X-3293Y-8420D01*
X-3302Y-8467D01*
X-3377Y-8492D01*
X-4399Y-7469D01*
Y-7060D01*
X-4298D01*
Y-6033D01*
X-4815D01*
X-5327Y-5522D01*
X-5367Y-5495D01*
Y-5158D01*
X-5352Y-5148D01*
X-5307Y-5080D01*
X-5291Y-5000D01*
X-5307Y-4920D01*
X-5352Y-4852D01*
X-5420Y-4807D01*
X-5500Y-4791D01*
D02*
G37*
G36*
X-1675Y-4769D02*
X-2050D01*
Y-5665D01*
X-1675D01*
Y-4769D01*
D02*
G37*
G36*
X-2150D02*
X-2525D01*
Y-5665D01*
X-2150D01*
Y-4769D01*
D02*
G37*
G36*
X9395Y-7449D02*
X9050D01*
Y-7666D01*
X9395D01*
Y-7449D01*
D02*
G37*
G36*
X8950Y-7766D02*
X8605D01*
Y-7983D01*
X8950D01*
Y-7766D01*
D02*
G37*
G36*
X4531Y-7973D02*
X4324D01*
Y-8200D01*
X4531D01*
Y-7973D01*
D02*
G37*
G36*
X4224D02*
X4017D01*
Y-8200D01*
X4224D01*
Y-7973D01*
D02*
G37*
G36*
Y-7646D02*
X4017D01*
Y-7873D01*
X4224D01*
Y-7646D01*
D02*
G37*
G36*
X8950Y-7449D02*
X8605D01*
Y-7666D01*
X8950D01*
Y-7449D01*
D02*
G37*
G36*
X-9700Y-7550D02*
X-9927D01*
Y-7757D01*
X-9700D01*
Y-7550D01*
D02*
G37*
G36*
X4531Y-7646D02*
X4324D01*
Y-7873D01*
X4531D01*
Y-7646D01*
D02*
G37*
G36*
X-7582Y5854D02*
X-7750D01*
Y5686D01*
X-7582D01*
Y5854D01*
D02*
G37*
G36*
X-7850D02*
X-8018D01*
Y5686D01*
X-7850D01*
Y5854D01*
D02*
G37*
G36*
X7200Y6009D02*
X7120Y5993D01*
X7073Y5961D01*
X6114D01*
X6064Y5951D01*
X6021Y5923D01*
X5472Y5374D01*
X4985D01*
Y4033D01*
X5416D01*
X5443Y3968D01*
X4608Y3133D01*
X2200D01*
X2149Y3122D01*
X2106Y3094D01*
X2055Y3042D01*
X1998Y3066D01*
X1900Y3079D01*
X1802Y3066D01*
X1711Y3028D01*
X1632Y2968D01*
X1572Y2889D01*
X1534Y2798D01*
X1521Y2700D01*
X1534Y2602D01*
X1572Y2511D01*
X1632Y2432D01*
X1711Y2372D01*
X1802Y2334D01*
X1900Y2321D01*
X1998Y2334D01*
X2089Y2372D01*
X2168Y2432D01*
X2228Y2511D01*
X2266Y2602D01*
X2279Y2700D01*
X2266Y2798D01*
X2313Y2867D01*
X2426D01*
Y2379D01*
X3767D01*
Y2523D01*
X5089D01*
X9336Y-1723D01*
X9352Y-1748D01*
X9377Y-1764D01*
X9406Y-1794D01*
X9449Y-1822D01*
X9500Y-1833D01*
X9551Y-1822D01*
X9594Y-1794D01*
X9606Y-1776D01*
X9648Y-1748D01*
X9693Y-1680D01*
X9709Y-1600D01*
X9693Y-1520D01*
X9648Y-1452D01*
X9580Y-1407D01*
X9500Y-1391D01*
X9420Y-1407D01*
X9405Y-1417D01*
X5332Y2656D01*
X6388Y3712D01*
X6397Y3727D01*
X6467Y3705D01*
Y2458D01*
X6452Y2448D01*
X6407Y2380D01*
X6391Y2300D01*
X6407Y2220D01*
X6452Y2152D01*
X6520Y2107D01*
X6600Y2091D01*
X6680Y2107D01*
X6748Y2152D01*
X6793Y2220D01*
X6809Y2300D01*
X6793Y2380D01*
X6748Y2448D01*
X6733Y2458D01*
Y4033D01*
X6878D01*
Y5374D01*
X6445D01*
X6438Y5444D01*
X6442Y5446D01*
X6487Y5514D01*
X6503Y5594D01*
X6496Y5626D01*
X6550Y5696D01*
X7023D01*
X7052Y5652D01*
X7120Y5607D01*
X7200Y5591D01*
X7280Y5607D01*
X7348Y5652D01*
X7393Y5720D01*
X7409Y5800D01*
X7393Y5880D01*
X7348Y5948D01*
X7280Y5993D01*
X7200Y6009D01*
D02*
G37*
G36*
X-3223Y5892D02*
X-3450D01*
Y5714D01*
X-3223D01*
Y5892D01*
D02*
G37*
G36*
X6697Y8031D02*
X6499D01*
Y7803D01*
X6449D01*
Y7753D01*
X6202D01*
Y7608D01*
X6202Y7575D01*
X6147Y7538D01*
X6143D01*
Y7350D01*
X6400D01*
Y7250D01*
X6143D01*
Y7062D01*
Y6956D01*
X6400D01*
Y6906D01*
X6450D01*
Y6669D01*
X6652D01*
X6657Y6668D01*
X6719Y6689D01*
X6727Y6689D01*
X7189D01*
Y6774D01*
X7322D01*
Y6695D01*
X7982D01*
X8194Y6483D01*
X8207Y6420D01*
X8252Y6352D01*
X8320Y6307D01*
X8374Y6296D01*
X8401Y6227D01*
X8401Y6225D01*
X7788Y5612D01*
X7754Y5560D01*
X7742Y5500D01*
Y5374D01*
X7663D01*
Y4033D01*
X8141D01*
X8167Y4000D01*
Y3858D01*
X8152Y3848D01*
X8107Y3780D01*
X8091Y3700D01*
X8107Y3620D01*
X8152Y3552D01*
X8220Y3507D01*
X8300Y3491D01*
X8380Y3507D01*
X8448Y3552D01*
X8493Y3620D01*
X8509Y3700D01*
X8493Y3780D01*
X8448Y3848D01*
X8433Y3858D01*
Y3945D01*
X8520Y4033D01*
X8886D01*
Y5374D01*
X8332D01*
Y4219D01*
X8281Y4168D01*
X8216Y4195D01*
Y5374D01*
X8080D01*
X8067Y5444D01*
X8661Y6038D01*
X8716Y5993D01*
X8707Y5980D01*
X8691Y5900D01*
X8707Y5820D01*
X8752Y5752D01*
X8820Y5707D01*
X8900Y5691D01*
X8980Y5707D01*
X8994Y5716D01*
X9034Y5708D01*
X9085Y5658D01*
X9069Y5578D01*
X9085Y5498D01*
X9120Y5445D01*
Y5374D01*
X9001D01*
Y4033D01*
X9555D01*
Y5374D01*
X9436D01*
Y5445D01*
X9471Y5498D01*
X9472Y5505D01*
X9548Y5528D01*
X9643Y5433D01*
X9670Y5374D01*
X9670D01*
X9670Y5374D01*
Y4033D01*
X10224D01*
Y5374D01*
X10101D01*
X10093Y5413D01*
X10059Y5465D01*
X9604Y5919D01*
X9631Y5984D01*
X10103D01*
Y6616D01*
X10137Y6672D01*
X10176D01*
Y6900D01*
Y7128D01*
X9979D01*
Y7108D01*
X9546D01*
Y6692D01*
X9616D01*
Y6616D01*
X9470D01*
Y6471D01*
X8713D01*
X8673Y6463D01*
X8642Y6481D01*
X8618Y6499D01*
X8607Y6512D01*
X8593Y6580D01*
X8548Y6648D01*
X8480Y6693D01*
X8420Y6705D01*
X8230Y6895D01*
Y7142D01*
X8368D01*
X8420Y7107D01*
X8500Y7091D01*
X8580Y7107D01*
X8648Y7152D01*
X8693Y7220D01*
X8709Y7300D01*
X8693Y7380D01*
X8648Y7448D01*
X8580Y7493D01*
X8500Y7509D01*
X8420Y7493D01*
X8368Y7458D01*
X8230D01*
Y7511D01*
X7322D01*
Y7433D01*
X7189D01*
Y7518D01*
X7084D01*
Y7595D01*
X7130D01*
Y8011D01*
X6697D01*
Y8031D01*
D02*
G37*
G36*
X10474Y7128D02*
X10276D01*
Y6950D01*
X10474D01*
Y7128D01*
D02*
G37*
G36*
X6350Y6856D02*
X6143D01*
Y6669D01*
X6350D01*
Y6856D01*
D02*
G37*
G36*
X-6934Y5795D02*
X-7151D01*
Y5450D01*
X-6934D01*
Y5795D01*
D02*
G37*
G36*
X11236Y5394D02*
X10989D01*
Y4753D01*
X11236D01*
Y5394D01*
D02*
G37*
G36*
X3204D02*
X2957D01*
Y4753D01*
X3204D01*
Y5394D01*
D02*
G37*
G36*
X7567D02*
X7320D01*
Y4753D01*
X7567D01*
Y5394D01*
D02*
G37*
G36*
X3551D02*
X3304D01*
Y4753D01*
X3551D01*
Y5394D01*
D02*
G37*
G36*
X-3223Y5614D02*
X-3450D01*
Y5436D01*
X-3223D01*
Y5614D01*
D02*
G37*
G36*
X-7582Y5586D02*
X-8018D01*
Y5424D01*
X-8018Y5418D01*
X-7998Y5356D01*
X-7998Y5348D01*
Y4966D01*
X-7602D01*
Y4980D01*
X-7436D01*
X-7366Y4994D01*
X-7358Y4999D01*
X-7320Y5007D01*
X-7252Y5052D01*
X-7221Y5099D01*
X-7151Y5077D01*
Y5005D01*
X-6934D01*
Y5350D01*
X-7151D01*
Y5323D01*
X-7221Y5301D01*
X-7252Y5348D01*
X-7320Y5393D01*
X-7400Y5409D01*
X-7480Y5393D01*
X-7526Y5362D01*
X-7540Y5366D01*
X-7582Y5418D01*
X-7582Y5424D01*
Y5586D01*
D02*
G37*
G36*
X11583Y5394D02*
X11336D01*
Y4753D01*
X11583D01*
Y5394D01*
D02*
G37*
G36*
X6399Y8031D02*
X6202D01*
Y7853D01*
X6399D01*
Y8031D01*
D02*
G37*
G36*
X10000Y9879D02*
X9902Y9866D01*
X9811Y9828D01*
X9732Y9768D01*
X9672Y9689D01*
X9634Y9598D01*
X9621Y9500D01*
X9634Y9402D01*
X9672Y9311D01*
X9732Y9232D01*
X9811Y9172D01*
X9902Y9134D01*
X10000Y9121D01*
X10098Y9134D01*
X10189Y9172D01*
X10268Y9232D01*
X10328Y9311D01*
X10366Y9402D01*
X10379Y9500D01*
X10366Y9598D01*
X10328Y9689D01*
X10268Y9768D01*
X10189Y9828D01*
X10098Y9866D01*
X10000Y9879D01*
D02*
G37*
G36*
X9000D02*
X8902Y9866D01*
X8811Y9828D01*
X8732Y9768D01*
X8672Y9689D01*
X8634Y9598D01*
X8621Y9500D01*
X8634Y9402D01*
X8672Y9311D01*
X8732Y9232D01*
X8811Y9172D01*
X8902Y9134D01*
X9000Y9121D01*
X9098Y9134D01*
X9189Y9172D01*
X9268Y9232D01*
X9328Y9311D01*
X9366Y9402D01*
X9379Y9500D01*
X9366Y9598D01*
X9328Y9689D01*
X9268Y9768D01*
X9189Y9828D01*
X9098Y9866D01*
X9000Y9879D01*
D02*
G37*
G36*
X8000D02*
X7902Y9866D01*
X7811Y9828D01*
X7732Y9768D01*
X7672Y9689D01*
X7634Y9598D01*
X7621Y9500D01*
X7634Y9402D01*
X7672Y9311D01*
X7732Y9232D01*
X7811Y9172D01*
X7902Y9134D01*
X8000Y9121D01*
X8098Y9134D01*
X8189Y9172D01*
X8268Y9232D01*
X8328Y9311D01*
X8366Y9402D01*
X8379Y9500D01*
X8366Y9598D01*
X8328Y9689D01*
X8268Y9768D01*
X8189Y9828D01*
X8098Y9866D01*
X8000Y9879D01*
D02*
G37*
G36*
X4950Y9892D02*
X4897Y9885D01*
X4801Y9845D01*
X4718Y9782D01*
X4655Y9699D01*
X4615Y9603D01*
X4608Y9550D01*
X4950D01*
Y9892D01*
D02*
G37*
G36*
X11089D02*
Y9550D01*
X11431D01*
X11424Y9603D01*
X11385Y9699D01*
X11321Y9782D01*
X11239Y9845D01*
X11143Y9885D01*
X11089Y9892D01*
D02*
G37*
G36*
X10989D02*
X10936Y9885D01*
X10840Y9845D01*
X10757Y9782D01*
X10694Y9699D01*
X10654Y9603D01*
X10647Y9550D01*
X10989D01*
Y9892D01*
D02*
G37*
G36*
X5050D02*
Y9550D01*
X5392D01*
X5385Y9603D01*
X5345Y9699D01*
X5282Y9782D01*
X5199Y9845D01*
X5103Y9885D01*
X5050Y9892D01*
D02*
G37*
G36*
X7000Y9879D02*
X6902Y9866D01*
X6811Y9828D01*
X6732Y9768D01*
X6672Y9689D01*
X6634Y9598D01*
X6621Y9500D01*
X6634Y9402D01*
X6672Y9311D01*
X6732Y9232D01*
X6811Y9172D01*
X6902Y9134D01*
X7000Y9121D01*
X7098Y9134D01*
X7189Y9172D01*
X7268Y9232D01*
X7328Y9311D01*
X7366Y9402D01*
X7379Y9500D01*
X7366Y9598D01*
X7328Y9689D01*
X7268Y9768D01*
X7189Y9828D01*
X7098Y9866D01*
X7000Y9879D01*
D02*
G37*
G36*
X10989Y9450D02*
X10647D01*
X10654Y9397D01*
X10694Y9301D01*
X10757Y9218D01*
X10840Y9155D01*
X10936Y9115D01*
X10989Y9108D01*
Y9450D01*
D02*
G37*
G36*
X5392D02*
X5050D01*
Y9108D01*
X5103Y9115D01*
X5199Y9155D01*
X5282Y9218D01*
X5345Y9301D01*
X5385Y9397D01*
X5392Y9450D01*
D02*
G37*
G36*
X4950D02*
X4608D01*
X4615Y9397D01*
X4655Y9301D01*
X4718Y9218D01*
X4801Y9155D01*
X4897Y9115D01*
X4950Y9108D01*
Y9450D01*
D02*
G37*
G36*
X11431D02*
X11089D01*
Y9108D01*
X11143Y9115D01*
X11239Y9155D01*
X11321Y9218D01*
X11385Y9301D01*
X11424Y9397D01*
X11431Y9450D01*
D02*
G37*
G36*
X6000Y9879D02*
X5902Y9866D01*
X5811Y9828D01*
X5732Y9768D01*
X5672Y9689D01*
X5634Y9598D01*
X5621Y9500D01*
X5634Y9402D01*
X5658Y9345D01*
X3830Y7517D01*
X3801Y7474D01*
X3791Y7424D01*
Y5374D01*
X3647D01*
Y4103D01*
X3577Y4070D01*
X3551Y4092D01*
Y4653D01*
X3254D01*
X2957D01*
Y4033D01*
X2058D01*
X2048Y4048D01*
X1980Y4093D01*
X1900Y4109D01*
X1820Y4093D01*
X1752Y4048D01*
X1707Y3980D01*
X1691Y3900D01*
X1707Y3820D01*
X1752Y3752D01*
X1820Y3707D01*
X1900Y3691D01*
X1980Y3707D01*
X2048Y3752D01*
X2058Y3767D01*
X4200D01*
X4251Y3778D01*
X4294Y3806D01*
X4520Y4033D01*
X4870D01*
Y5374D01*
X4316D01*
Y4204D01*
X4265Y4153D01*
X4200Y4179D01*
Y5374D01*
X4056D01*
Y7369D01*
X5845Y9158D01*
X5902Y9134D01*
X6000Y9121D01*
X6098Y9134D01*
X6189Y9172D01*
X6268Y9232D01*
X6328Y9311D01*
X6366Y9402D01*
X6379Y9500D01*
X6366Y9598D01*
X6328Y9689D01*
X6268Y9768D01*
X6189Y9828D01*
X6098Y9866D01*
X6000Y9879D01*
D02*
G37*
G36*
X3000D02*
X2902Y9866D01*
X2811Y9828D01*
X2732Y9768D01*
X2672Y9689D01*
X2634Y9598D01*
X2621Y9500D01*
X2634Y9402D01*
X2672Y9311D01*
X2732Y9232D01*
X2811Y9172D01*
X2902Y9134D01*
X3000Y9121D01*
X3098Y9134D01*
X3189Y9172D01*
X3268Y9232D01*
X3328Y9311D01*
X3366Y9402D01*
X3379Y9500D01*
X3366Y9598D01*
X3328Y9689D01*
X3268Y9768D01*
X3189Y9828D01*
X3098Y9866D01*
X3000Y9879D01*
D02*
G37*
G36*
X2000Y9879D02*
X1902Y9866D01*
X1811Y9828D01*
X1732Y9768D01*
X1672Y9689D01*
X1634Y9598D01*
X1621Y9500D01*
X1634Y9402D01*
X1672Y9311D01*
X1732Y9232D01*
X1811Y9172D01*
X1902Y9134D01*
X2000Y9121D01*
X2098Y9134D01*
X2189Y9172D01*
X2268Y9232D01*
X2328Y9311D01*
X2366Y9402D01*
X2379Y9500D01*
X2366Y9598D01*
X2328Y9689D01*
X2268Y9768D01*
X2189Y9828D01*
X2098Y9866D01*
X2000Y9879D01*
D02*
G37*
G36*
X7220Y5394D02*
X6973D01*
Y4753D01*
X7220D01*
Y5394D01*
D02*
G37*
G36*
X3767Y2263D02*
X2426D01*
Y1710D01*
X3767D01*
Y1854D01*
X4693D01*
X4703Y1839D01*
X4771Y1794D01*
X4851Y1778D01*
X4869Y1781D01*
X9001Y-2351D01*
X9007Y-2380D01*
X9052Y-2448D01*
X9120Y-2493D01*
X9200Y-2509D01*
X9280Y-2493D01*
X9348Y-2448D01*
X9393Y-2380D01*
X9409Y-2300D01*
X9393Y-2220D01*
X9348Y-2152D01*
X9280Y-2107D01*
X9200Y-2091D01*
X9130Y-2105D01*
X5056Y1969D01*
X5060Y1987D01*
X5044Y2067D01*
X4998Y2134D01*
X4931Y2180D01*
X4851Y2196D01*
X4771Y2180D01*
X4703Y2134D01*
X4693Y2119D01*
X3767D01*
Y2263D01*
D02*
G37*
G36*
X-500Y2209D02*
X-580Y2193D01*
X-648Y2148D01*
X-693Y2080D01*
X-709Y2000D01*
X-693Y1920D01*
X-648Y1852D01*
X-633Y1842D01*
Y751D01*
X-689Y728D01*
X-768Y668D01*
X-828Y589D01*
X-866Y498D01*
X-879Y400D01*
X-866Y302D01*
X-828Y211D01*
X-768Y132D01*
X-689Y72D01*
X-598Y34D01*
X-500Y21D01*
X-402Y34D01*
X-345Y58D01*
X1835Y-2123D01*
X1878Y-2152D01*
X1929Y-2162D01*
X2426D01*
Y-2306D01*
X3767D01*
Y-1752D01*
X2426D01*
Y-1897D01*
X1984D01*
X-158Y245D01*
X-134Y302D01*
X-121Y400D01*
X-134Y498D01*
X-172Y589D01*
X-232Y668D01*
X-311Y728D01*
X-367Y751D01*
Y1842D01*
X-352Y1852D01*
X-307Y1920D01*
X-291Y2000D01*
X-307Y2080D01*
X-352Y2148D01*
X-420Y2193D01*
X-500Y2209D01*
D02*
G37*
G36*
X-2150Y-3772D02*
X-2525D01*
Y-4669D01*
X-2150D01*
Y-3772D01*
D02*
G37*
G36*
X-1675D02*
X-2050D01*
Y-4669D01*
X-1675D01*
Y-3772D01*
D02*
G37*
G36*
X-7672Y-503D02*
X-7850D01*
Y-700D01*
X-7672D01*
Y-503D01*
D02*
G37*
G36*
X-7350D02*
X-7528D01*
Y-700D01*
X-7350D01*
Y-503D01*
D02*
G37*
G36*
X3767Y-1083D02*
X2426D01*
Y-1637D01*
X3767D01*
Y-1492D01*
X4019D01*
X4020Y-1493D01*
X4100Y-1509D01*
X4180Y-1493D01*
X4248Y-1448D01*
X4293Y-1380D01*
X4309Y-1300D01*
X4293Y-1220D01*
X4248Y-1152D01*
X4180Y-1107D01*
X4100Y-1091D01*
X4020Y-1107D01*
X3952Y-1152D01*
X3907Y-1220D01*
X3905Y-1227D01*
X3767D01*
Y-1083D01*
D02*
G37*
G36*
X-7950Y-503D02*
X-8128D01*
Y-700D01*
X-7950D01*
Y-503D01*
D02*
G37*
G36*
X6898Y-4055D02*
X6651D01*
Y-4696D01*
X6898D01*
Y-4055D01*
D02*
G37*
G36*
X11583D02*
X11336D01*
Y-4696D01*
X11583D01*
Y-4055D01*
D02*
G37*
G36*
X11236D02*
X10989D01*
Y-4696D01*
X11236D01*
Y-4055D01*
D02*
G37*
G36*
X3551D02*
X3304D01*
Y-4696D01*
X3551D01*
Y-4055D01*
D02*
G37*
G36*
X4543D02*
X4296D01*
Y-4696D01*
X4543D01*
Y-4055D01*
D02*
G37*
G36*
X4890D02*
X4643D01*
Y-4696D01*
X4890D01*
Y-4055D01*
D02*
G37*
G36*
X7889D02*
X7643D01*
Y-4696D01*
X7889D01*
Y-4055D01*
D02*
G37*
G36*
X8236D02*
X7989D01*
Y-4696D01*
X8236D01*
Y-4055D01*
D02*
G37*
G36*
X7567Y4653D02*
X7320D01*
Y4013D01*
X7567D01*
Y4653D01*
D02*
G37*
G36*
X11236Y4653D02*
X10989D01*
Y4013D01*
X11236D01*
Y4653D01*
D02*
G37*
G36*
X-6231Y4028D02*
X-6299D01*
X-6354Y4017D01*
X-6400Y3986D01*
X-6431Y3940D01*
X-6431Y3936D01*
X-6231D01*
Y4028D01*
D02*
G37*
G36*
X7220Y4653D02*
X6973D01*
Y4013D01*
X7220D01*
Y4653D01*
D02*
G37*
G36*
X-4064Y4431D02*
Y4231D01*
X-3972D01*
Y4299D01*
X-3983Y4354D01*
X-4014Y4400D01*
X-4060Y4430D01*
X-4064Y4431D01*
D02*
G37*
G36*
X-8650Y4454D02*
X-8818D01*
Y4286D01*
X-8650D01*
Y4454D01*
D02*
G37*
G36*
X11583Y4653D02*
X11336D01*
Y4013D01*
X11583D01*
Y4653D01*
D02*
G37*
G36*
X10474Y6850D02*
X10276D01*
Y6650D01*
X10297Y6616D01*
X10297Y6602D01*
Y5984D01*
X10459D01*
Y5374D01*
X10340D01*
Y4033D01*
X10893D01*
Y5374D01*
X10775D01*
Y5984D01*
X10930D01*
Y6616D01*
X10508D01*
X10474Y6672D01*
X10474Y6686D01*
Y6850D01*
D02*
G37*
G36*
X-5650Y814D02*
X-5818D01*
Y646D01*
X-5650D01*
Y814D01*
D02*
G37*
G36*
X3787Y598D02*
X3147D01*
Y351D01*
X3787D01*
Y598D01*
D02*
G37*
G36*
X-7072Y-503D02*
X-7250D01*
Y-700D01*
X-7072D01*
Y-503D01*
D02*
G37*
G36*
X3787Y945D02*
X3147D01*
Y698D01*
X3787D01*
Y945D01*
D02*
G37*
G36*
X-2308Y3150D02*
X-2486D01*
Y2923D01*
X-2308D01*
Y3150D01*
D02*
G37*
G36*
X-2586D02*
X-2764D01*
Y2923D01*
X-2586D01*
Y3150D01*
D02*
G37*
G36*
X-8650Y2114D02*
X-8818D01*
Y1946D01*
X-8650D01*
Y2114D01*
D02*
G37*
%LPD*%
G36*
X2991Y-7576D02*
X3289Y-7873D01*
Y-8180D01*
X3451D01*
Y-8386D01*
X3391Y-8444D01*
X3317D01*
X3255Y-8456D01*
X3203Y-8492D01*
X3181Y-8494D01*
X2902Y-8215D01*
Y-7650D01*
X2902Y-7640D01*
X2968Y-7576D01*
X2991Y-7576D01*
D02*
G37*
D10*
X-6366Y-6546D02*
D03*
Y-9854D02*
D03*
X-4634D02*
D03*
Y-6546D02*
D03*
D11*
X-1200Y-8974D02*
D03*
Y-9426D02*
D03*
X-8100Y-7974D02*
D03*
Y-8426D02*
D03*
X-7600Y-7974D02*
D03*
Y-8426D02*
D03*
X-7100Y-7974D02*
D03*
Y-8426D02*
D03*
X5500Y-7474D02*
D03*
Y-7926D02*
D03*
X5000Y-7900D02*
D03*
Y-7447D02*
D03*
X-7900Y0D02*
D03*
Y-453D02*
D03*
X-7300Y0D02*
D03*
Y-453D02*
D03*
Y1000D02*
D03*
Y547D02*
D03*
X-7900Y1000D02*
D03*
Y547D02*
D03*
X-2600Y-10074D02*
D03*
Y-10526D02*
D03*
X9700Y-9074D02*
D03*
Y-9526D02*
D03*
X-6500Y6974D02*
D03*
Y7426D02*
D03*
X-4800Y874D02*
D03*
Y1326D02*
D03*
X535Y4826D02*
D03*
Y4374D02*
D03*
X9700Y-8074D02*
D03*
Y-8526D02*
D03*
D12*
X-100Y-9016D02*
D03*
Y-9784D02*
D03*
X9000Y-7716D02*
D03*
Y-8484D02*
D03*
X6400Y-9384D02*
D03*
Y-8616D02*
D03*
D13*
X6449Y7803D02*
D03*
X6902D02*
D03*
X8002Y7303D02*
D03*
X7549D02*
D03*
X8002Y6903D02*
D03*
X7549D02*
D03*
X9774Y6900D02*
D03*
X10226D02*
D03*
X2726Y-7100D02*
D03*
X2274D02*
D03*
X12126Y-9000D02*
D03*
X11674D02*
D03*
X12126Y-9400D02*
D03*
X11674D02*
D03*
X-6326Y4700D02*
D03*
X-5874D02*
D03*
D14*
X6400Y7300D02*
D03*
X6951D02*
D03*
Y6906D02*
D03*
X6400D02*
D03*
D15*
X10613Y6300D02*
D03*
X9787D02*
D03*
D16*
X-2100Y-4719D02*
D03*
Y-7081D02*
D03*
D17*
X10436Y-6100D02*
D03*
X9964D02*
D03*
X10436Y-5600D02*
D03*
X9964D02*
D03*
X-2764Y4100D02*
D03*
X-3236D02*
D03*
X-4136Y7900D02*
D03*
X-3664D02*
D03*
X-4136Y8300D02*
D03*
X-3664D02*
D03*
Y8700D02*
D03*
X-4136D02*
D03*
X-6136Y7900D02*
D03*
X-5664D02*
D03*
Y8700D02*
D03*
X-6136D02*
D03*
X-5664Y8300D02*
D03*
X-6136D02*
D03*
X-3236Y3700D02*
D03*
X-2764D02*
D03*
X10636Y-10900D02*
D03*
X10164D02*
D03*
D18*
X5900Y-7936D02*
D03*
Y-7464D02*
D03*
X-8600Y2164D02*
D03*
Y2636D02*
D03*
X1700Y436D02*
D03*
Y-36D02*
D03*
X2200Y436D02*
D03*
Y-36D02*
D03*
X-7800Y5636D02*
D03*
Y5164D02*
D03*
X-4000Y5436D02*
D03*
Y4964D02*
D03*
X-6500Y6064D02*
D03*
Y6536D02*
D03*
X-5600Y864D02*
D03*
Y1336D02*
D03*
X-8800Y-6264D02*
D03*
Y-6736D02*
D03*
X-8600Y4236D02*
D03*
Y3764D02*
D03*
X10200Y-8536D02*
D03*
Y-8064D02*
D03*
D19*
X-9977Y-7500D02*
D03*
X-10823Y-7874D02*
D03*
Y-7126D02*
D03*
X-9977Y-9100D02*
D03*
X-10823Y-9474D02*
D03*
Y-8726D02*
D03*
X-1177Y-10400D02*
D03*
X-2023Y-10774D02*
D03*
Y-10026D02*
D03*
D20*
X3583Y-8606D02*
D03*
Y-8803D02*
D03*
Y-9000D02*
D03*
Y-9197D02*
D03*
Y-9394D02*
D03*
X5217Y-8606D02*
D03*
Y-8803D02*
D03*
Y-9000D02*
D03*
Y-9197D02*
D03*
Y-9394D02*
D03*
D21*
X3900Y-7077D02*
D03*
X4274Y-7923D02*
D03*
X3526D02*
D03*
D22*
X-7600Y2432D02*
D03*
Y3968D02*
D03*
D23*
X-1765Y-9200D02*
D03*
X-2435Y-9456D02*
D03*
Y-8944D02*
D03*
X-800Y4600D02*
D03*
X-131Y4856D02*
D03*
Y4344D02*
D03*
X12065Y-10044D02*
D03*
Y-10556D02*
D03*
X12735Y-10300D02*
D03*
D24*
X3097Y-2698D02*
D03*
Y-2029D02*
D03*
Y-1360D02*
D03*
Y-691D02*
D03*
Y-21D02*
D03*
Y648D02*
D03*
Y1317D02*
D03*
Y1987D02*
D03*
Y2656D02*
D03*
D25*
X3254Y4703D02*
D03*
X3924D02*
D03*
X4593D02*
D03*
X5262D02*
D03*
X5932D02*
D03*
X6601D02*
D03*
X7270D02*
D03*
X7939D02*
D03*
X8609D02*
D03*
X9278D02*
D03*
X9947D02*
D03*
X10617D02*
D03*
X11286D02*
D03*
Y-4746D02*
D03*
X10617D02*
D03*
X9947D02*
D03*
X9278D02*
D03*
X8609D02*
D03*
X7939D02*
D03*
X7270D02*
D03*
X6601D02*
D03*
X5932D02*
D03*
X5262D02*
D03*
X4593D02*
D03*
X3924D02*
D03*
X3254D02*
D03*
D26*
X-3264Y3200D02*
D03*
X-2536D02*
D03*
D27*
X-3500Y4936D02*
D03*
Y5664D02*
D03*
D28*
X-4000Y7335D02*
D03*
Y6665D02*
D03*
X-5800Y7335D02*
D03*
Y6665D02*
D03*
D29*
X-3290Y9300D02*
D03*
X-4038D02*
D03*
X-6574D02*
D03*
X-5826D02*
D03*
D30*
X1700Y-9825D02*
D03*
Y-7975D02*
D03*
D31*
X-6116Y5400D02*
D03*
X-6884D02*
D03*
D32*
X-4114Y4181D02*
D03*
X-4311D02*
D03*
X-4508D02*
D03*
X-4705D02*
D03*
X-4902D02*
D03*
X-5098D02*
D03*
X-5295D02*
D03*
X-5492D02*
D03*
X-5689D02*
D03*
X-5886D02*
D03*
Y1819D02*
D03*
X-5689D02*
D03*
X-5492D02*
D03*
X-5295D02*
D03*
X-5098D02*
D03*
X-4902D02*
D03*
X-4705D02*
D03*
X-4508D02*
D03*
X-4311D02*
D03*
X-4114D02*
D03*
D33*
X-6181Y3886D02*
D03*
Y3689D02*
D03*
Y3492D02*
D03*
Y3295D02*
D03*
Y3098D02*
D03*
Y2902D02*
D03*
Y2705D02*
D03*
Y2508D02*
D03*
Y2311D02*
D03*
Y2114D02*
D03*
X-3819D02*
D03*
Y2311D02*
D03*
Y2508D02*
D03*
Y2705D02*
D03*
Y2902D02*
D03*
Y3098D02*
D03*
Y3295D02*
D03*
Y3492D02*
D03*
Y3689D02*
D03*
Y3886D02*
D03*
D34*
X-5000Y3000D02*
D03*
D35*
X-8256Y-6367D02*
D03*
X-7744D02*
D03*
Y-7233D02*
D03*
X-8000D02*
D03*
X-8256D02*
D03*
D36*
X10206Y-9127D02*
D03*
Y-9509D02*
D03*
Y-9891D02*
D03*
Y-10273D02*
D03*
X10994Y-9127D02*
D03*
Y-9509D02*
D03*
Y-9891D02*
D03*
Y-10273D02*
D03*
D37*
X10197Y-10359D02*
X10687Y-10849D01*
X10206Y-10273D02*
X10245Y-10312D01*
X10687Y-10849D02*
X12451D01*
X12735Y-10565D01*
X10197Y-10264D02*
X10206Y-10273D01*
X12735Y-10565D02*
Y-10300D01*
X12126Y-9400D02*
X12735Y-10008D01*
Y-10300D02*
Y-10008D01*
X12126Y-9400D02*
Y-9000D01*
X9000Y-8484D02*
X9590Y-9074D01*
X9700D01*
X12110Y-8880D02*
Y-8372D01*
X9700Y-7700D02*
Y-6331D01*
Y-8074D02*
Y-7700D01*
X11438D02*
X12110Y-8372D01*
X9700Y-7700D02*
X11438D01*
X9947Y-4746D02*
X10617D01*
X3097Y-21D02*
X5621D01*
X-101Y4826D02*
X535D01*
X10994Y-10273D02*
Y-9891D01*
X6400Y-8616D02*
X8868D01*
X9000Y-8484D01*
X9947Y-6083D02*
Y-4746D01*
X9700Y-6331D02*
X9947Y-6083D01*
X9410Y-8074D02*
X9700D01*
X9000Y-8484D02*
X9410Y-8074D01*
X1675Y-36D02*
X1700D01*
X900Y738D02*
X1675Y-36D01*
X1715Y-21D02*
X3097D01*
X535Y4826D02*
X826D01*
X5621Y-21D02*
X9850Y-4250D01*
X900Y738D02*
Y9400D01*
D38*
X8000Y6901D02*
X8400Y6501D01*
Y6500D02*
Y6501D01*
X3300Y-8364D02*
X3545Y-8609D01*
X3409D02*
X3545D01*
X3200Y-8400D02*
X3409Y-8609D01*
X-9739Y-6736D02*
X-8800D01*
X-10823Y-7821D02*
X-9739Y-6736D01*
X-8800Y-7900D02*
Y-6736D01*
Y-7900D02*
X-8274Y-8426D01*
X-8100D01*
X6390Y-8606D02*
Y-7954D01*
X5900Y-7464D02*
X6390Y-7954D01*
X5510Y-7464D02*
X5900D01*
X5000Y-7900D02*
X5036Y-7936D01*
X4630Y-7077D02*
X5000Y-7447D01*
X3900Y-7077D02*
X4630D01*
X10617Y4703D02*
Y6297D01*
X9774Y6313D02*
Y6900D01*
X8713Y6313D02*
X9774D01*
X7900Y5500D02*
X8713Y6313D01*
X7900Y4743D02*
Y5500D01*
X9278Y4703D02*
Y5578D01*
X8005Y7300D02*
X8500D01*
X9947Y4703D02*
Y5353D01*
X9400Y5900D02*
X9947Y5353D01*
X8900Y5900D02*
X9400D01*
X-3264Y3200D02*
X-3236D01*
X-8000Y-7233D02*
Y-6955D01*
X-8219Y-6736D02*
X-8000Y-6955D01*
X-8800Y-6736D02*
X-8219D01*
X5036Y-7936D02*
X5900D01*
X-3236Y3200D02*
Y3700D01*
D39*
X11500Y-10200D02*
X11856Y-10556D01*
X12065D01*
X-4508Y3492D02*
X-4114Y3886D01*
X-5000Y3000D02*
X-4508Y3492D01*
X-4114Y3886D02*
Y4181D01*
X-4508Y3492D02*
Y4181D01*
X-5295Y3295D02*
Y4181D01*
Y2705D02*
Y3295D01*
X-5000Y3000D01*
X-5886Y3886D02*
X-5295Y3295D01*
X-6181Y3886D02*
X-5886D01*
X-5492Y2508D02*
X-5295Y2705D01*
X-6181Y2508D02*
X-5492D01*
X11674Y-8626D02*
X11800Y-8500D01*
X11674Y-9000D02*
Y-8626D01*
X10354Y-9509D02*
X10600Y-9263D01*
X10206Y-9509D02*
X10354D01*
X3919Y-8437D02*
X4018Y-8536D01*
X3635Y-8437D02*
X3919D01*
X3583Y-8386D02*
X3635Y-8437D01*
X3583Y-8386D02*
Y-7980D01*
X3526Y-7923D02*
X3583Y-7980D01*
X2826Y-7224D02*
X3526Y-7923D01*
X-12200Y-7349D02*
X-10823Y-8726D01*
X-7147Y-8426D02*
X-7100D01*
X-7600Y-7974D02*
X-7147Y-8426D01*
X-7600Y-7974D02*
Y-7500D01*
X-7744Y-7356D02*
X-7600Y-7500D01*
X-10800Y-7103D02*
Y-6700D01*
X-7647Y-8426D02*
X-7600D01*
X-8100Y-7974D02*
X-7647Y-8426D01*
X-8256Y-7818D02*
Y-7233D01*
Y-7818D02*
X-8100Y-7974D01*
X-3000Y-10474D02*
X-2600Y-10074D01*
X-6000Y-10474D02*
X-3000D01*
X-6366Y-10107D02*
X-6000Y-10474D01*
X-2600Y-10074D02*
X-2071D01*
X-2874Y-9800D02*
X-2600Y-10074D01*
X-3100Y-9800D02*
X-2874D01*
X-3100Y-8500D02*
X-2656Y-8944D01*
X2516Y-9784D02*
X3148Y-9152D01*
X2275Y-7975D02*
X2475D01*
X3148Y-8648D01*
X-4038Y9300D02*
Y9838D01*
X-4400Y10200D02*
X-4038Y9838D01*
X-5664Y7900D02*
Y8300D01*
Y7471D02*
Y7900D01*
X-6136Y8300D02*
Y8700D01*
Y8862D01*
X-6574Y9300D02*
X-6136Y8862D01*
X-5826Y9300D02*
Y9774D01*
X-5400Y10200D01*
X-6408Y7335D02*
X-5800D01*
X-6500Y6536D02*
Y6974D01*
Y4874D02*
Y6064D01*
Y4874D02*
X-6326Y4700D01*
X-5886Y4259D01*
Y4181D02*
Y4259D01*
X-5689Y4181D02*
Y4515D01*
X-5874Y4700D02*
X-5689Y4515D01*
X-7600Y3968D02*
X-7468D01*
X-6800Y3300D01*
X-6186D01*
X-7600Y2432D02*
X-7468D01*
X-6800Y3100D01*
X-6183D01*
X-8396Y3968D02*
X-7600D01*
X-8600Y3764D02*
X-8396Y3968D01*
Y2432D02*
X-7600D01*
X-8600Y2636D02*
X-8396Y2432D01*
X-4508Y1819D02*
X-4500Y1811D01*
X6951Y6906D02*
X7546D01*
X6951Y7300D02*
X7546D01*
X6951D02*
Y7754D01*
X-4136Y7471D02*
Y7900D01*
Y8300D01*
X-3664D02*
Y8700D01*
Y8926D01*
X-3290Y9300D01*
X-7300Y1000D02*
Y1274D01*
X-7500Y1474D02*
X-7300Y1274D01*
X-7900Y1000D02*
Y1274D01*
X-7700Y1474D01*
X-8174Y1274D02*
X-7739Y1709D01*
X-7191D01*
X-6700Y2200D01*
Y2900D01*
X-6698Y2902D01*
X-6181D01*
X-7900Y0D02*
Y547D01*
X-6500Y2700D02*
X-6495Y2705D01*
X-6181D01*
X-7300Y0D02*
Y547D01*
X-4700Y1500D02*
Y1814D01*
X-4800Y1326D02*
Y1400D01*
X-4700Y1500D01*
X3097Y2656D02*
X5144D01*
X11121Y-9000D02*
X11674D01*
X10994Y-9509D02*
X11565D01*
X11674Y-9400D01*
X12000Y-9726D01*
Y-10000D02*
Y-9726D01*
X9700Y-9526D02*
X10189D01*
X10600Y-9263D02*
Y-8500D01*
X-7300Y547D02*
X-6500Y1347D01*
Y2700D01*
X-8153Y800D02*
X-7900Y547D01*
X-8174Y800D02*
Y1274D01*
X-3808Y3700D02*
X-3236D01*
X1900Y1400D02*
X3014D01*
X3097Y1987D02*
X4851D01*
X8971Y-6771D02*
X9000Y-6800D01*
X8971Y-6771D02*
Y-4071D01*
X7598Y-2698D02*
X8971Y-4071D01*
X3097Y-2698D02*
X7598D01*
X-5492Y4181D02*
Y4608D01*
X-5400Y4700D01*
X-5800Y6665D02*
X-5500Y6365D01*
X-4300Y6400D02*
X-4035Y6665D01*
X-4300Y5200D02*
Y6400D01*
X-5500Y5200D02*
Y6365D01*
Y5200D02*
X-5098Y4798D01*
Y4181D02*
Y4798D01*
X-4705Y4181D02*
Y4795D01*
X-4300Y5200D01*
X-4900Y4183D02*
Y5000D01*
X-3972Y4936D02*
X-3500D01*
X-5874Y4700D02*
Y4974D01*
X-6116Y5216D02*
X-5874Y4974D01*
X1909Y-691D02*
X3097D01*
X1929Y-2029D02*
X3097D01*
X419Y800D02*
X1909Y-691D01*
X-500Y400D02*
X1929Y-2029D01*
X-4311Y1579D02*
Y1819D01*
X-4114Y1714D02*
Y1819D01*
X-4311Y1579D02*
X-4095Y1362D01*
X1900Y2700D02*
X2200Y3000D01*
X5800Y4137D02*
Y4572D01*
X4663Y3000D02*
X5800Y4137D01*
X2200Y3000D02*
X4663D01*
X-5098Y1502D02*
Y1819D01*
X-5200Y1400D02*
X-5098Y1502D01*
X6600Y2300D02*
Y4702D01*
X4593Y4293D02*
Y4703D01*
X4200Y3900D02*
X4593Y4293D01*
X1900Y3900D02*
X4200D01*
X-101Y4374D02*
X535D01*
X2726Y-7100D02*
X3726Y-6100D01*
X2826Y-7224D02*
Y-7100D01*
X-7744Y-6367D02*
Y-6244D01*
X-7523Y-6023D01*
X3148Y-9000D02*
X3583D01*
X3148Y-9152D02*
Y-9000D01*
Y-8803D02*
X3583D01*
X3148D02*
Y-8648D01*
X3921Y-9197D02*
X4018Y-9100D01*
X3583Y-9197D02*
X3921D01*
X4018Y-9100D02*
Y-8536D01*
X4909Y-9000D02*
X5217D01*
X4782Y-8873D02*
X4909Y-9000D01*
X4791Y-8109D02*
X5000Y-7900D01*
X4782Y-8873D02*
Y-8118D01*
X5217Y-8606D02*
X6390D01*
X-7700Y1474D02*
X-7600D01*
X-7500D01*
X3726Y-6100D02*
X8300D01*
Y3700D02*
Y4000D01*
X8609Y4309D01*
X5144Y2656D02*
X6294Y3806D01*
X3097Y-1360D02*
X4040D01*
X4100Y-1300D01*
X3924Y4703D02*
Y7424D01*
X6000Y9500D01*
X6294Y3806D02*
Y5594D01*
X300Y900D02*
Y2000D01*
X1300D02*
X1900Y1400D01*
X1300Y2000D02*
Y6800D01*
X4000Y9500D01*
X9500Y-1700D02*
Y-1600D01*
X5144Y2656D02*
X9500Y-1700D01*
X9200Y-2363D02*
Y-2300D01*
X4851Y1987D02*
X9200Y-2363D01*
X500Y3900D02*
Y4339D01*
X-500Y400D02*
Y2000D01*
X-4500Y1378D02*
Y1811D01*
X-4800Y1326D02*
X-4374Y900D01*
X-4095Y1305D02*
Y1362D01*
X-4114Y1714D02*
X-3700Y1300D01*
Y1100D02*
Y1300D01*
X-4000Y878D02*
Y900D01*
X-4500Y1378D02*
X-4000Y878D01*
X-4200Y4708D02*
X-3972Y4936D01*
X5262Y4977D02*
X6114Y5829D01*
X5262Y4703D02*
Y4977D01*
X6114Y5829D02*
X7229D01*
X-5500Y-5680D02*
Y-5000D01*
X-5600Y1336D02*
X-5500Y1436D01*
Y1811D01*
X-5600Y1336D02*
X-5164Y900D01*
X-4826D01*
X-3401Y3935D02*
X-3236Y4100D01*
X-3805Y3900D02*
X-3770Y3935D01*
X-3401D01*
X2800Y-7500D02*
X2818D01*
X3000Y-7682D01*
Y-7900D02*
Y-7682D01*
X5217Y-8803D02*
X5525D01*
X5652Y-8930D01*
Y-9152D02*
Y-8930D01*
X5217Y-9197D02*
X5607D01*
X5652Y-9152D01*
X5217Y-9394D02*
Y-9197D01*
X-3819Y3492D02*
X-3686D01*
X-3502Y3308D01*
Y2975D02*
Y3308D01*
Y2975D02*
X-3400Y2873D01*
Y2800D02*
Y2873D01*
X-4508Y4181D02*
Y4592D01*
X1700Y436D02*
X2200D01*
X2391D01*
X2476Y351D01*
D40*
X-1293Y-9066D02*
X-1200Y-8974D01*
X-1765Y-9066D02*
X-1293D01*
X-1765Y-9150D02*
Y-9066D01*
X-20759Y-10059D02*
X-19400Y-8700D01*
X-13600D02*
X-11164Y-6264D01*
X-8800D01*
X-19400Y-8700D02*
X-13600D01*
X-10823Y-7874D02*
X-10400Y-8297D01*
Y-9051D02*
Y-8297D01*
X-10823Y-9474D02*
X-10400Y-9051D01*
X-5492Y-5688D02*
X-4634Y-6546D01*
X-2100Y-7600D02*
X-1200Y-8500D01*
Y-8974D02*
Y-8500D01*
X-2100Y-7750D02*
Y-7600D01*
Y-7081D01*
X-4634Y-7566D02*
Y-6546D01*
X-2744Y-9456D02*
X-2435D01*
X-4634Y-7566D02*
X-2744Y-9456D01*
X-1200Y-10377D02*
Y-9426D01*
Y-8974D02*
X-1080D01*
X-270Y-9784D01*
X-100D01*
X2516D01*
X-8800Y-6264D02*
X-8359D01*
X-8276D02*
X-7700Y-5688D01*
X-8359Y-6264D02*
X-8276D01*
X-7700Y-5688D02*
X-5492D01*
D41*
X-15641Y-10059D02*
X-10559D01*
X-9977Y-9477D01*
Y-9200D01*
D42*
X-7589Y-6886D02*
X-7100Y-7375D01*
X-7737Y-6886D02*
X-7589D01*
X-7100Y-7974D02*
Y-7375D01*
X9700Y-8526D02*
X10190D01*
X10206Y-9127D02*
Y-8543D01*
X10190Y-8526D02*
X10200Y-8536D01*
X10206Y-8543D01*
X-2736Y4600D02*
X-800D01*
X-3236Y4100D02*
X-2736Y4600D01*
X-7800Y5164D02*
X-7436D01*
X-7400Y5200D01*
X-8256Y-6367D02*
X-7737Y-6886D01*
X-8359Y-6264D02*
X-8256Y-6367D01*
X-6000Y1300D02*
X-5964Y1336D01*
X-5600D01*
D43*
X-20759Y-10059D02*
D03*
X-15641D02*
D03*
D44*
X8000Y9500D02*
D03*
X6000D02*
D03*
X5000D02*
D03*
X4000D02*
D03*
X2000Y9500D02*
D03*
X3000Y9500D02*
D03*
X7000D02*
D03*
X9000D02*
D03*
X10000D02*
D03*
X11039D02*
D03*
X-4400Y10200D02*
D03*
X-500Y400D02*
D03*
X1900Y1400D02*
D03*
Y2700D02*
D03*
X300Y900D02*
D03*
D45*
X1000Y9500D02*
D03*
X-5400Y10200D02*
D03*
D46*
X5200Y-10000D02*
D03*
X0Y-7800D02*
D03*
X1500Y-7100D02*
D03*
X3300D02*
D03*
X4400Y-9200D02*
D03*
X-1300Y5600D02*
D03*
X-1200Y7100D02*
D03*
X-1100Y2600D02*
D03*
X6100Y3200D02*
D03*
X5800Y-3100D02*
D03*
Y-2400D02*
D03*
X4300Y-600D02*
D03*
X-8700Y-8700D02*
D03*
X-9400Y-9100D02*
D03*
X-9900Y-8300D02*
D03*
X-9300Y-7200D02*
D03*
X-7900Y4700D02*
D03*
X-4000Y6100D02*
D03*
X-7600Y8200D02*
D03*
X-2400D02*
D03*
X8400Y10800D02*
D03*
X6400D02*
D03*
X5400D02*
D03*
X2400D02*
D03*
X9400Y-6000D02*
D03*
X8200Y-7800D02*
D03*
X9400Y-10200D02*
D03*
X8400Y-9600D02*
D03*
X8000Y-10800D02*
D03*
X7000D02*
D03*
X6000D02*
D03*
X4000D02*
D03*
X2000D02*
D03*
X-200Y-11000D02*
D03*
X8400Y6500D02*
D03*
X11500Y-10200D02*
D03*
X11800Y-8500D02*
D03*
X-7400Y-6023D02*
D03*
X-10800Y-6700D02*
D03*
X-3100Y-9800D02*
D03*
Y-8500D02*
D03*
X9278Y5578D02*
D03*
X8500Y7300D02*
D03*
X8900Y5900D02*
D03*
X-7600Y1474D02*
D03*
X10600Y-8500D02*
D03*
X9000Y-6800D02*
D03*
X-5400Y4700D02*
D03*
X-4900Y5000D02*
D03*
X-4200Y4708D02*
D03*
X-7400Y5200D02*
D03*
X-5200Y1400D02*
D03*
X6600Y2300D02*
D03*
X1900Y3900D02*
D03*
X8300Y-6100D02*
D03*
Y3700D02*
D03*
X7598Y-2698D02*
D03*
X4851Y1987D02*
D03*
X4100Y-1300D02*
D03*
X6294Y5594D02*
D03*
X-500Y2000D02*
D03*
X300D02*
D03*
X9500Y-1600D02*
D03*
X9200Y-2300D02*
D03*
X500Y3900D02*
D03*
X-4374Y900D02*
D03*
X-4095Y1305D02*
D03*
X-3700Y1100D02*
D03*
X-4000Y900D02*
D03*
X-2736Y4600D02*
D03*
X-6000Y1300D02*
D03*
X7200Y5800D02*
D03*
X-5500Y-5000D02*
D03*
X-3400Y3700D02*
D03*
Y2800D02*
D03*
X11400Y-3800D02*
D03*
Y-2000D02*
D03*
Y0D02*
D03*
Y1500D02*
D03*
X10600Y-3800D02*
D03*
X10000Y-2000D02*
D03*
X8800Y-200D02*
D03*
X7950Y600D02*
D03*
X11400Y3000D02*
D03*
X10400Y3600D02*
D03*
X9400D02*
D03*
X8000Y3200D02*
D03*
X8800Y2000D02*
D03*
X7950Y-1650D02*
D03*
Y-600D02*
D03*
X7200Y100D02*
D03*
Y-1000D02*
D03*
X5450Y550D02*
D03*
X6100Y1200D02*
D03*
X5800Y-1000D02*
D03*
X4400Y-2400D02*
D03*
X7200D02*
D03*
X4000Y1600D02*
D03*
Y400D02*
D03*
X4200Y2300D02*
D03*
X2200Y2000D02*
D03*
X1400Y1000D02*
D03*
X2200Y800D02*
D03*
X7600Y-3800D02*
D03*
X6600D02*
D03*
X5600D02*
D03*
X4600D02*
D03*
X4000Y-3000D02*
D03*
X2000Y-1400D02*
D03*
X1400Y-773D02*
D03*
X2200Y3400D02*
D03*
X4400D02*
D03*
X2200Y4600D02*
D03*
X3200Y6200D02*
D03*
X2200Y6800D02*
D03*
X4200Y8600D02*
D03*
X11000Y8400D02*
D03*
X10400Y10800D02*
D03*
X4400D02*
D03*
X10000Y8200D02*
D03*
X9200Y7800D02*
D03*
X11400Y7600D02*
D03*
X5600Y6000D02*
D03*
X5800Y7600D02*
D03*
X11200Y-8200D02*
D03*
Y-8600D02*
D03*
X10800Y-8200D02*
D03*
X11400Y-6000D02*
D03*
Y-6600D02*
D03*
X10200Y-6800D02*
D03*
X10600Y-7200D02*
D03*
X-200Y-4000D02*
D03*
X0Y-4800D02*
D03*
Y-6000D02*
D03*
X2000Y-2700D02*
D03*
X200D02*
D03*
X-4200Y-4700D02*
D03*
X-3200Y-3400D02*
D03*
X-2100D02*
D03*
X-900D02*
D03*
X-4200Y-5900D02*
D03*
X-5200Y-4000D02*
D03*
X-3600Y-2400D02*
D03*
X-1000Y-2000D02*
D03*
X-200Y-800D02*
D03*
X-4900Y5800D02*
D03*
Y6900D02*
D03*
Y8700D02*
D03*
Y9600D02*
D03*
X-3000Y6800D02*
D03*
X-6000Y6000D02*
D03*
X-7200Y6800D02*
D03*
X0Y10800D02*
D03*
X-2000D02*
D03*
X-4000D02*
D03*
X-6000D02*
D03*
X-8000D02*
D03*
X-10000D02*
D03*
X-12000D02*
D03*
Y9000D02*
D03*
Y7200D02*
D03*
Y5400D02*
D03*
Y3600D02*
D03*
Y1800D02*
D03*
Y0D02*
D03*
Y-2000D02*
D03*
Y-3600D02*
D03*
Y-5400D02*
D03*
Y-9200D02*
D03*
Y-10800D02*
D03*
X-10000D02*
D03*
X-3400Y4500D02*
D03*
X-8000Y-10800D02*
D03*
X-6000Y-11000D02*
D03*
X-4000D02*
D03*
X-3000D02*
D03*
M02*
