M48
;Layer_Color=9474304
;FILE_FORMAT=2:5
INCH,LZ
;TYPE=PLATED
T1F00S00C0.01500
T2F00S00C0.03543
T3F00S00C0.11811
%
T01
X0052Y-01
X006Y-0108
X007
X008
X0084Y-0096
X0094Y-0102
X0115
X0044Y-0092
X004Y-0108
X002
X-0002Y-011
X-003
X-004
X-006
X-008Y-0108
X-01
X-0094Y-0091
X-0031Y-0098
X-012Y-0092
Y-0108
X-0108Y-0067
X-012Y-0054
Y-0036
Y-002
Y0
Y0018
Y0036
Y0054
X-0079Y0047
X-0074Y0052
X-0072Y0068
X-006Y006
X-0049Y0058
Y005
X-0054Y0047
X-0042Y0047079
X-0034Y0045
X-0027362Y0046
X-0034Y0037
Y0028
X-0037Y0011
X-004Y0009
X-0043736
X-0040947Y0013053
X-0052Y0014
X-006Y0013
X-0076Y0014736
X-0011Y0026
X-0005Y002
X0003
X0022
Y0008
X0014Y001
Y-0007732
X002Y-0014
Y-0027
X0002
X-0002Y-004
X0Y-0048
Y-006
Y-0078
X0015Y-0071
X0033
X0046Y-0038
X004Y-003
X0044Y-0024
X0041Y-0013
X0043Y-0006
X004Y0004
Y0016
X0042Y0023
X0048506Y0019866
X0044Y0034
X0022
X0019Y0039
X0022Y0046
Y0068
X0032Y0062
X0005Y0039
X-0013Y0056
X-003Y0068
X-004Y0061
X-0036Y-0024
X-0032Y-0034
X-0021
X-0009
X-001Y-002
X-0002Y-0008
X-0042Y-0047
Y-0059
X-0055Y-005
X-0052Y-004
X-0074Y-0060228
X-0093Y-0072
X-0099Y-0083
X-0087Y-0087
X-0031Y-0085
X0082Y-0078
X009Y-0068
X0094Y-006
X0083Y-0061
X0102Y-0068
X0106Y-0072
X0108Y-0082
X0112
Y-0086
X0118Y-0085
X0106
X0114Y-0066
Y-006
Y-0038
X0106
X01Y-002
X0095Y-0016
X0092Y-0023
X00795Y-00165
Y-0006
X0072Y-001
Y0001
X00795Y0006
X0088Y-0002
Y002
X008Y0032
X0083Y0037
X0094Y0036
X0104
X0114Y003
Y0015
Y0
Y-002
X0075984Y-0026984
X0072Y-0024
X0058
Y-0031
X0056Y-0038
X0066
X0076
X0058Y-001
X00545Y00055
X0061Y0012
X0066Y0023
X0061Y0032
X0062939Y0055939
X0056Y006
X0072Y0058
X0089Y0059
X0092779Y0055779
X0084Y0065
X0085Y0073
X0092Y0078
X01Y0082
X011Y0084
X0114Y0076
X0104Y0108
X0084
X0064
X0054
X0058Y0076
X0042Y0086
X0044Y0108
X0024
X0
X-002
X-004
X-006
X-008
X-01
X-0076Y0082
X-0049Y0087
Y0096
Y0069
X-0024Y0082
X-0012Y0071
X-012Y0072
Y009
Y0108
T02
X-0005Y0004
X0003Y0009
X0019Y0014
Y0027
X005Y0095
X006
X007
X008
X009
X01
X0110394
X004
X003
X002Y0095
X001Y0095
X-0044Y0102
X-0054Y0102
T03
X-0207591Y-0100591
X-0156409
M30
