G04 Layer_Color=8388736*
%FSLAX24Y24*%
%MOIN*%
G70*
G01*
G75*
%ADD51R,0.0592X0.0946*%
%ADD52R,0.0336X0.0375*%
%ADD53R,0.0671X0.0415*%
%ADD54R,0.0375X0.0336*%
%ADD55R,0.0395X0.0356*%
%ADD56R,0.0552X0.0552*%
%ADD57R,0.0730X0.1773*%
%ADD58R,0.0316X0.0316*%
%ADD59R,0.0316X0.0316*%
%ADD60R,0.0434X0.0395*%
%ADD61O,0.0730X0.0198*%
%ADD62R,0.0395X0.0434*%
%ADD63R,0.1025X0.0749*%
%ADD64R,0.0592X0.0297*%
%ADD65R,0.1261X0.0474*%
%ADD66R,0.0474X0.1261*%
%ADD67R,0.0336X0.0434*%
%ADD68R,0.0434X0.0336*%
%ADD69R,0.0651X0.0592*%
%ADD70R,0.0552X0.0612*%
%ADD71R,0.2324X0.0710*%
%ADD72R,0.0415X0.0671*%
%ADD73O,0.0159X0.0395*%
%ADD74O,0.0395X0.0159*%
%ADD75R,0.1694X0.1694*%
%ADD76R,0.0217X0.0413*%
%ADD77R,0.0469X0.0311*%
%ADD78C,0.1655*%
%ADD79C,0.0671*%
%ADD80R,0.0671X0.0671*%
D51*
X-6366Y-6546D02*
D03*
Y-9854D02*
D03*
X-4634D02*
D03*
Y-6546D02*
D03*
D52*
X-1200Y-8974D02*
D03*
Y-9426D02*
D03*
X-8100Y-7974D02*
D03*
Y-8426D02*
D03*
X-7600Y-7974D02*
D03*
Y-8426D02*
D03*
X-7100Y-7974D02*
D03*
Y-8426D02*
D03*
X5500Y-7474D02*
D03*
Y-7926D02*
D03*
X5000Y-7900D02*
D03*
Y-7447D02*
D03*
X-7900Y0D02*
D03*
Y-453D02*
D03*
X-7300Y0D02*
D03*
Y-453D02*
D03*
Y1000D02*
D03*
Y547D02*
D03*
X-7900Y1000D02*
D03*
Y547D02*
D03*
X-2600Y-10074D02*
D03*
Y-10526D02*
D03*
X9700Y-9074D02*
D03*
Y-9526D02*
D03*
X-6500Y6974D02*
D03*
Y7426D02*
D03*
X-4800Y874D02*
D03*
Y1326D02*
D03*
X535Y4826D02*
D03*
Y4374D02*
D03*
X9700Y-8074D02*
D03*
Y-8526D02*
D03*
D53*
X-100Y-9016D02*
D03*
Y-9784D02*
D03*
X9000Y-7716D02*
D03*
Y-8484D02*
D03*
X6400Y-9384D02*
D03*
Y-8616D02*
D03*
D54*
X6449Y7803D02*
D03*
X6902D02*
D03*
X8002Y7303D02*
D03*
X7549D02*
D03*
X8002Y6903D02*
D03*
X7549D02*
D03*
X9774Y6900D02*
D03*
X10226D02*
D03*
X2726Y-7100D02*
D03*
X2274D02*
D03*
X12126Y-9000D02*
D03*
X11674D02*
D03*
X12126Y-9400D02*
D03*
X11674D02*
D03*
X-6326Y4700D02*
D03*
X-5874D02*
D03*
D55*
X6400Y7300D02*
D03*
X6951D02*
D03*
Y6906D02*
D03*
X6400D02*
D03*
D56*
X10613Y6300D02*
D03*
X9787D02*
D03*
D57*
X-2100Y-4719D02*
D03*
Y-7081D02*
D03*
D58*
X10436Y-6100D02*
D03*
X9964D02*
D03*
X10436Y-5600D02*
D03*
X9964D02*
D03*
X-2764Y4100D02*
D03*
X-3236D02*
D03*
X-4136Y7900D02*
D03*
X-3664D02*
D03*
X-4136Y8300D02*
D03*
X-3664D02*
D03*
Y8700D02*
D03*
X-4136D02*
D03*
X-6136Y7900D02*
D03*
X-5664D02*
D03*
Y8700D02*
D03*
X-6136D02*
D03*
X-5664Y8300D02*
D03*
X-6136D02*
D03*
X-3236Y3700D02*
D03*
X-2764D02*
D03*
X10636Y-10900D02*
D03*
X10164D02*
D03*
D59*
X5900Y-7936D02*
D03*
Y-7464D02*
D03*
X-8600Y2164D02*
D03*
Y2636D02*
D03*
X1700Y436D02*
D03*
Y-36D02*
D03*
X2200Y436D02*
D03*
Y-36D02*
D03*
X-7800Y5636D02*
D03*
Y5164D02*
D03*
X-4000Y5436D02*
D03*
Y4964D02*
D03*
X-6500Y6064D02*
D03*
Y6536D02*
D03*
X-5600Y864D02*
D03*
Y1336D02*
D03*
X-8800Y-6264D02*
D03*
Y-6736D02*
D03*
X-8600Y4236D02*
D03*
Y3764D02*
D03*
X10200Y-8536D02*
D03*
Y-8064D02*
D03*
D60*
X-9977Y-7500D02*
D03*
X-10823Y-7874D02*
D03*
Y-7126D02*
D03*
X-9977Y-9100D02*
D03*
X-10823Y-9474D02*
D03*
Y-8726D02*
D03*
X-1177Y-10400D02*
D03*
X-2023Y-10774D02*
D03*
Y-10026D02*
D03*
D61*
X3583Y-8606D02*
D03*
Y-8803D02*
D03*
Y-9000D02*
D03*
Y-9197D02*
D03*
Y-9394D02*
D03*
X5217Y-8606D02*
D03*
Y-8803D02*
D03*
Y-9000D02*
D03*
Y-9197D02*
D03*
Y-9394D02*
D03*
D62*
X3900Y-7077D02*
D03*
X4274Y-7923D02*
D03*
X3526D02*
D03*
D63*
X-7600Y2432D02*
D03*
Y3968D02*
D03*
D64*
X-1765Y-9200D02*
D03*
X-2435Y-9456D02*
D03*
Y-8944D02*
D03*
X-800Y4600D02*
D03*
X-131Y4856D02*
D03*
Y4344D02*
D03*
X12065Y-10044D02*
D03*
Y-10556D02*
D03*
X12735Y-10300D02*
D03*
D65*
X3097Y-2698D02*
D03*
Y-2029D02*
D03*
Y-1360D02*
D03*
Y-691D02*
D03*
Y-21D02*
D03*
Y648D02*
D03*
Y1317D02*
D03*
Y1987D02*
D03*
Y2656D02*
D03*
D66*
X3254Y4703D02*
D03*
X3924D02*
D03*
X4593D02*
D03*
X5262D02*
D03*
X5932D02*
D03*
X6601D02*
D03*
X7270D02*
D03*
X7939D02*
D03*
X8609D02*
D03*
X9278D02*
D03*
X9947D02*
D03*
X10617D02*
D03*
X11286D02*
D03*
Y-4746D02*
D03*
X10617D02*
D03*
X9947D02*
D03*
X9278D02*
D03*
X8609D02*
D03*
X7939D02*
D03*
X7270D02*
D03*
X6601D02*
D03*
X5932D02*
D03*
X5262D02*
D03*
X4593D02*
D03*
X3924D02*
D03*
X3254D02*
D03*
D67*
X-3264Y3200D02*
D03*
X-2536D02*
D03*
D68*
X-3500Y4936D02*
D03*
Y5664D02*
D03*
D69*
X-4000Y7335D02*
D03*
Y6665D02*
D03*
X-5800Y7335D02*
D03*
Y6665D02*
D03*
D70*
X-3290Y9300D02*
D03*
X-4038D02*
D03*
X-6574D02*
D03*
X-5826D02*
D03*
D71*
X1700Y-9825D02*
D03*
Y-7975D02*
D03*
D72*
X-6116Y5400D02*
D03*
X-6884D02*
D03*
D73*
X-4114Y4181D02*
D03*
X-4311D02*
D03*
X-4508D02*
D03*
X-4705D02*
D03*
X-4902D02*
D03*
X-5098D02*
D03*
X-5295D02*
D03*
X-5492D02*
D03*
X-5689D02*
D03*
X-5886D02*
D03*
Y1819D02*
D03*
X-5689D02*
D03*
X-5492D02*
D03*
X-5295D02*
D03*
X-5098D02*
D03*
X-4902D02*
D03*
X-4705D02*
D03*
X-4508D02*
D03*
X-4311D02*
D03*
X-4114D02*
D03*
D74*
X-6181Y3886D02*
D03*
Y3689D02*
D03*
Y3492D02*
D03*
Y3295D02*
D03*
Y3098D02*
D03*
Y2902D02*
D03*
Y2705D02*
D03*
Y2508D02*
D03*
Y2311D02*
D03*
Y2114D02*
D03*
X-3819D02*
D03*
Y2311D02*
D03*
Y2508D02*
D03*
Y2705D02*
D03*
Y2902D02*
D03*
Y3098D02*
D03*
Y3295D02*
D03*
Y3492D02*
D03*
Y3689D02*
D03*
Y3886D02*
D03*
D75*
X-5000Y3000D02*
D03*
D76*
X-8256Y-6367D02*
D03*
X-7744D02*
D03*
Y-7233D02*
D03*
X-8000D02*
D03*
X-8256D02*
D03*
D77*
X10206Y-9127D02*
D03*
Y-9509D02*
D03*
Y-9891D02*
D03*
Y-10273D02*
D03*
X10994Y-9127D02*
D03*
Y-9509D02*
D03*
Y-9891D02*
D03*
Y-10273D02*
D03*
D78*
X-20759Y-10059D02*
D03*
X-15641D02*
D03*
D79*
X8000Y9500D02*
D03*
X6000D02*
D03*
X5000D02*
D03*
X4000D02*
D03*
X2000Y9500D02*
D03*
X3000Y9500D02*
D03*
X7000D02*
D03*
X9000D02*
D03*
X10000D02*
D03*
X11039D02*
D03*
X-4400Y10200D02*
D03*
X-500Y400D02*
D03*
X1900Y1400D02*
D03*
Y2700D02*
D03*
X300Y900D02*
D03*
D80*
X1000Y9500D02*
D03*
X-5400Y10200D02*
D03*
M02*
