G04 Layer_Color=32768*
%FSLAX24Y24*%
%MOIN*%
G70*
G01*
G75*
%ADD48C,0.0039*%
%ADD83C,0.0020*%
D48*
X-1426Y-8718D02*
X-974D01*
X-1426Y-9682D02*
X-974D01*
Y-8718D01*
X-1426Y-9682D02*
Y-8718D01*
X-1200Y-9308D02*
Y-9092D01*
X-1308Y-9200D02*
X-1092D01*
X-494Y-8701D02*
X294D01*
X-494Y-10099D02*
X294D01*
Y-8701D01*
X-494Y-10099D02*
Y-8701D01*
X-100Y-9597D02*
Y-9203D01*
X-297Y-9400D02*
X97D01*
X-8326Y-7718D02*
X-7874D01*
X-8326Y-8682D02*
X-7874D01*
Y-7718D01*
X-8326Y-8682D02*
Y-7718D01*
X-8100Y-8308D02*
Y-8092D01*
X-8208Y-8200D02*
X-7992D01*
X-7826Y-7718D02*
X-7374D01*
X-7826Y-8682D02*
X-7374D01*
Y-7718D01*
X-7826Y-8682D02*
Y-7718D01*
X-7600Y-8308D02*
Y-8092D01*
X-7708Y-8200D02*
X-7492D01*
X-7326Y-7718D02*
X-6874D01*
X-7326Y-8682D02*
X-6874D01*
Y-7718D01*
X-7326Y-8682D02*
Y-7718D01*
X-7100Y-8308D02*
Y-8092D01*
X-7208Y-8200D02*
X-6992D01*
X6193Y7577D02*
Y8030D01*
X7158Y7577D02*
Y8030D01*
X6193D02*
X7158D01*
X6193Y7577D02*
X7158D01*
X6567Y7803D02*
X6784D01*
X6676Y7695D02*
Y7911D01*
X6676Y6906D02*
Y7300D01*
X6479Y7103D02*
X6872D01*
X8258Y7077D02*
Y7530D01*
X7293Y7077D02*
Y7530D01*
Y7077D02*
X8258D01*
X7293Y7530D02*
X8258D01*
X7667Y7303D02*
X7884D01*
X7776Y7195D02*
Y7411D01*
X8258Y6677D02*
Y7130D01*
X7293Y6677D02*
Y7130D01*
Y6677D02*
X8258D01*
X7293Y7130D02*
X8258D01*
X7667Y6903D02*
X7884D01*
X7776Y6795D02*
Y7011D01*
X10003Y6300D02*
X10397D01*
X10200Y6103D02*
Y6497D01*
X9518Y6674D02*
Y7126D01*
X10482Y6674D02*
Y7126D01*
X9518D02*
X10482D01*
X9518Y6674D02*
X10482D01*
X9892Y6900D02*
X10108D01*
X10000Y6792D02*
Y7008D01*
X-2297Y-5900D02*
X-1903D01*
X-2100Y-6097D02*
Y-5703D01*
X10633Y-6297D02*
Y-5903D01*
X9767Y-6297D02*
Y-5903D01*
Y-6297D02*
X10633D01*
X9767Y-5903D02*
X10633D01*
X10092Y-6100D02*
X10308D01*
X10200Y-6208D02*
Y-5992D01*
X10633Y-5797D02*
Y-5403D01*
X9767Y-5797D02*
Y-5403D01*
Y-5797D02*
X10633D01*
X9767Y-5403D02*
X10633D01*
X10092Y-5600D02*
X10308D01*
X10200Y-5708D02*
Y-5492D01*
X5703Y-8133D02*
X6097D01*
X5703Y-7267D02*
X6097D01*
X5703Y-8133D02*
Y-7267D01*
X6097Y-8133D02*
Y-7267D01*
X5900Y-7808D02*
Y-7592D01*
X5792Y-7700D02*
X6008D01*
X5274Y-7218D02*
X5726D01*
X5274Y-8182D02*
X5726D01*
Y-7218D01*
X5274Y-8182D02*
Y-7218D01*
X5500Y-7808D02*
Y-7592D01*
X5392Y-7700D02*
X5608D01*
X4774Y-8156D02*
X5226D01*
X4774Y-7191D02*
X5226D01*
X4774Y-8156D02*
Y-7191D01*
X5226Y-8156D02*
Y-7191D01*
X5000Y-7782D02*
Y-7565D01*
X4892Y-7674D02*
X5108D01*
X8606Y-7401D02*
X9394D01*
X8606Y-8799D02*
X9394D01*
Y-7401D01*
X8606Y-8799D02*
Y-7401D01*
X9000Y-8297D02*
Y-7903D01*
X8803Y-8100D02*
X9197D01*
X-10400Y-7697D02*
Y-7303D01*
X-10597Y-7500D02*
X-10203D01*
X-11030Y-8130D02*
X-9770D01*
X-11030Y-6870D02*
X-9770D01*
Y-8130D02*
Y-6870D01*
X-11030Y-8130D02*
Y-6870D01*
X-10400Y-9297D02*
Y-8903D01*
X-10597Y-9100D02*
X-10203D01*
X-11030Y-9730D02*
X-9770D01*
X-11030Y-8470D02*
X-9770D01*
Y-9730D02*
Y-8470D01*
X-11030Y-9730D02*
Y-8470D01*
X3160Y-9709D02*
Y-8291D01*
X5640Y-9709D02*
Y-8291D01*
X3160D02*
X5640D01*
X3160Y-9709D02*
X5640D01*
X4203Y-9000D02*
X4597D01*
X4400Y-9197D02*
Y-8803D01*
X-8797Y1967D02*
X-8403D01*
X-8797Y2833D02*
X-8403D01*
X-8797Y1967D02*
Y2833D01*
X-8403Y1967D02*
Y2833D01*
X-8600Y2292D02*
Y2508D01*
X-8708Y2400D02*
X-8492D01*
X3703Y-7500D02*
X4097D01*
X3900Y-7697D02*
Y-7303D01*
X4530Y-8130D02*
Y-6870D01*
X3270Y-8130D02*
Y-6870D01*
X4530D01*
X3270Y-8130D02*
X4530D01*
X-8387Y1901D02*
X-6813D01*
Y4499D01*
X-8387Y1901D02*
Y4499D01*
X-6813D01*
X-7600Y3003D02*
Y3397D01*
X-7797Y3200D02*
X-7403D01*
X-8126Y256D02*
X-7674D01*
X-8126Y-709D02*
X-7674D01*
Y256D01*
X-8126Y-709D02*
Y256D01*
X-7900Y-335D02*
Y-118D01*
X-8008Y-226D02*
X-7792D01*
X-7526Y256D02*
X-7074D01*
X-7526Y-709D02*
X-7074D01*
Y256D01*
X-7526Y-709D02*
Y256D01*
X-7300Y-335D02*
Y-118D01*
X-7408Y-226D02*
X-7192D01*
X-7526Y1256D02*
X-7074D01*
X-7526Y291D02*
X-7074D01*
Y1256D01*
X-7526Y291D02*
Y1256D01*
X-7300Y665D02*
Y882D01*
X-7408Y774D02*
X-7192D01*
X-8126Y1256D02*
X-7674D01*
X-8126Y291D02*
X-7674D01*
Y1256D01*
X-8126Y291D02*
Y1256D01*
X-7900Y665D02*
Y882D01*
X-8008Y774D02*
X-7792D01*
X-2826Y-9818D02*
X-2374D01*
X-2826Y-10782D02*
X-2374D01*
Y-9818D01*
X-2826Y-10782D02*
Y-9818D01*
X-2600Y-10408D02*
Y-10192D01*
X-2708Y-10300D02*
X-2492D01*
X-1600Y-10597D02*
Y-10203D01*
X-1797Y-10400D02*
X-1403D01*
X-2230Y-11030D02*
X-970D01*
X-2230Y-9770D02*
X-970D01*
Y-11030D02*
Y-9770D01*
X-2230Y-11030D02*
Y-9770D01*
X-2100Y-9397D02*
Y-9003D01*
X-2297Y-9200D02*
X-1903D01*
X1503Y633D02*
X1897D01*
X1503Y-233D02*
X1897D01*
Y633D01*
X1503Y-233D02*
Y633D01*
X1700Y92D02*
Y308D01*
X1592Y200D02*
X1808D01*
X2003Y633D02*
X2397D01*
X2003Y-233D02*
X2397D01*
Y633D01*
X2003Y-233D02*
Y633D01*
X2200Y92D02*
Y308D01*
X2092Y200D02*
X2308D01*
X2982Y-7326D02*
Y-6874D01*
X2018Y-7326D02*
Y-6874D01*
Y-7326D02*
X2982D01*
X2018Y-6874D02*
X2982D01*
X2392Y-7100D02*
X2608D01*
X2500Y-7208D02*
Y-6992D01*
X9474Y-8818D02*
X9926D01*
X9474Y-9782D02*
X9926D01*
Y-8818D01*
X9474Y-9782D02*
Y-8818D01*
X9700Y-9408D02*
Y-9192D01*
X9592Y-9300D02*
X9808D01*
X12382Y-9226D02*
Y-8774D01*
X11418Y-9226D02*
Y-8774D01*
Y-9226D02*
X12382D01*
X11418Y-8774D02*
X12382D01*
X11792Y-9000D02*
X12008D01*
X11900Y-9108D02*
Y-8892D01*
X12382Y-9626D02*
Y-9174D01*
X11418Y-9626D02*
Y-9174D01*
Y-9626D02*
X12382D01*
X11418Y-9174D02*
X12382D01*
X11792Y-9400D02*
X12008D01*
X11900Y-9508D02*
Y-9292D01*
X-465Y4403D02*
Y4797D01*
X-662Y4600D02*
X-269D01*
X-2900Y3023D02*
Y3377D01*
X-3077Y3200D02*
X-2723D01*
X-3500Y3476D02*
X-2300D01*
X-3500Y2924D02*
X-2300D01*
X-3500D02*
Y3476D01*
X-2300Y2924D02*
Y3476D01*
X-2567Y3903D02*
Y4297D01*
X-3433Y3903D02*
Y4297D01*
Y3903D02*
X-2567D01*
X-3433Y4297D02*
X-2567D01*
X-3108Y4100D02*
X-2892D01*
X-3000Y3992D02*
Y4208D01*
X-7997Y5833D02*
X-7603D01*
X-7997Y4967D02*
X-7603D01*
Y5833D01*
X-7997Y4967D02*
Y5833D01*
X-7800Y5292D02*
Y5508D01*
X-7908Y5400D02*
X-7692D01*
X-4197Y5633D02*
X-3803D01*
X-4197Y4767D02*
X-3803D01*
Y5633D01*
X-4197Y4767D02*
Y5633D01*
X-4000Y5092D02*
Y5308D01*
X-4108Y5200D02*
X-3892D01*
X-3677Y5300D02*
X-3323D01*
X-3500Y5123D02*
Y5477D01*
X-3776Y4700D02*
Y5900D01*
X-3224Y4700D02*
Y5900D01*
X-3776Y4700D02*
X-3224D01*
X-3776Y5900D02*
X-3224D01*
X-4197Y7000D02*
X-3803D01*
X-4000Y6803D02*
Y7197D01*
X-3616Y6301D02*
Y7699D01*
X-4384Y6301D02*
Y7699D01*
X-3616D01*
X-4384Y6301D02*
X-3616D01*
X-5997Y7000D02*
X-5603D01*
X-5800Y6803D02*
Y7197D01*
X-5416Y6301D02*
Y7699D01*
X-6184Y6301D02*
Y7699D01*
X-5416D01*
X-6184Y6301D02*
X-5416D01*
X-4333Y7703D02*
Y8097D01*
X-3467Y7703D02*
Y8097D01*
X-4333D02*
X-3467D01*
X-4333Y7703D02*
X-3467D01*
X-4008Y7900D02*
X-3792D01*
X-3900Y7792D02*
Y8008D01*
X-4333Y8103D02*
Y8497D01*
X-3467Y8103D02*
Y8497D01*
X-4333D02*
X-3467D01*
X-4333Y8103D02*
X-3467D01*
X-4008Y8300D02*
X-3792D01*
X-3900Y8192D02*
Y8408D01*
X-3467Y8503D02*
Y8897D01*
X-4333Y8503D02*
Y8897D01*
Y8503D02*
X-3467D01*
X-4333Y8897D02*
X-3467D01*
X-4008Y8700D02*
X-3792D01*
X-3900Y8592D02*
Y8808D01*
X-2955Y8936D02*
Y9664D01*
X-4372Y8936D02*
Y9664D01*
Y8936D02*
X-2955D01*
X-4372Y9664D02*
X-2955D01*
X-3861Y9300D02*
X-3467D01*
X-3664Y9103D02*
Y9497D01*
X-6333Y7703D02*
Y8097D01*
X-5467Y7703D02*
Y8097D01*
X-6333D02*
X-5467D01*
X-6333Y7703D02*
X-5467D01*
X-6008Y7900D02*
X-5792D01*
X-5900Y7792D02*
Y8008D01*
X-6582Y4474D02*
Y4926D01*
X-5618Y4474D02*
Y4926D01*
X-6582D02*
X-5618D01*
X-6582Y4474D02*
X-5618D01*
X-6208Y4700D02*
X-5992D01*
X-6100Y4592D02*
Y4808D01*
X-6909Y8936D02*
Y9664D01*
X-5491Y8936D02*
Y9664D01*
X-6909D02*
X-5491D01*
X-6909Y8936D02*
X-5491D01*
X-6397Y9300D02*
X-6003D01*
X-6200Y9103D02*
Y9497D01*
X-5467Y8503D02*
Y8897D01*
X-6333Y8503D02*
Y8897D01*
Y8503D02*
X-5467D01*
X-6333Y8897D02*
X-5467D01*
X-6008Y8700D02*
X-5792D01*
X-5900Y8592D02*
Y8808D01*
X-6726Y6718D02*
X-6274D01*
X-6726Y7682D02*
X-6274D01*
X-6726Y6718D02*
Y7682D01*
X-6274Y6718D02*
Y7682D01*
X-6500Y7092D02*
Y7308D01*
X-6608Y7200D02*
X-6392D01*
X-5467Y8103D02*
Y8497D01*
X-6333Y8103D02*
Y8497D01*
Y8103D02*
X-5467D01*
X-6333Y8497D02*
X-5467D01*
X-6008Y8300D02*
X-5792D01*
X-5900Y8192D02*
Y8408D01*
X-6697Y5867D02*
X-6303D01*
X-6697Y6733D02*
X-6303D01*
X-6697Y5867D02*
Y6733D01*
X-6303Y5867D02*
Y6733D01*
X-6500Y6192D02*
Y6408D01*
X-6608Y6300D02*
X-6392D01*
X381Y-10445D02*
X3019D01*
X381Y-7355D02*
X3019D01*
X381Y-10445D02*
Y-7355D01*
X3019Y-10445D02*
Y-7355D01*
X1700Y-9097D02*
Y-8703D01*
X1503Y-8900D02*
X1897D01*
X-5797Y667D02*
X-5403D01*
X-5797Y1533D02*
X-5403D01*
X-5797Y667D02*
Y1533D01*
X-5403Y667D02*
Y1533D01*
X-5600Y992D02*
Y1208D01*
X-5708Y1100D02*
X-5492D01*
X-8908Y-6500D02*
X-8692D01*
X-8800Y-6608D02*
Y-6392D01*
X-8603Y-6933D02*
Y-6067D01*
X-8997Y-6933D02*
Y-6067D01*
X-8603D01*
X-8997Y-6933D02*
X-8603D01*
X-8797Y4433D02*
X-8403D01*
X-8797Y3567D02*
X-8403D01*
Y4433D01*
X-8797Y3567D02*
Y4433D01*
X-8600Y3892D02*
Y4108D01*
X-8708Y4000D02*
X-8492D01*
X-5026Y618D02*
X-4574D01*
X-5026Y1582D02*
X-4574D01*
X-5026Y618D02*
Y1582D01*
X-4574Y618D02*
Y1582D01*
X-4800Y992D02*
Y1208D01*
X-4908Y1100D02*
X-4692D01*
X6006Y-9699D02*
X6794D01*
X6006Y-8301D02*
X6794D01*
X6006Y-9699D02*
Y-8301D01*
X6794Y-9699D02*
Y-8301D01*
X6400Y-9197D02*
Y-8803D01*
X6203Y-9000D02*
X6597D01*
X-3000Y3592D02*
Y3808D01*
X-3108Y3700D02*
X-2892D01*
X-3433Y3897D02*
X-2567D01*
X-3433Y3503D02*
X-2567D01*
X-3433D02*
Y3897D01*
X-2567Y3503D02*
Y3897D01*
X308Y5082D02*
X761D01*
X308Y4118D02*
X761D01*
Y5082D01*
X308Y4118D02*
Y5082D01*
X535Y4492D02*
Y4708D01*
X426Y4600D02*
X643D01*
X-6500Y5203D02*
Y5597D01*
X-6697Y5400D02*
X-6303D01*
X-7199Y5006D02*
X-5801D01*
X-7199Y5794D02*
X-5801D01*
Y5006D02*
Y5794D01*
X-7199Y5006D02*
Y5794D01*
X-5000Y2803D02*
Y3197D01*
X-5197Y3000D02*
X-4803D01*
X10400Y-11008D02*
Y-10792D01*
X10292Y-10900D02*
X10508D01*
X9967Y-11097D02*
X10833D01*
X9967Y-10703D02*
X10833D01*
Y-11097D02*
Y-10703D01*
X9967Y-11097D02*
Y-10703D01*
X10092Y-8300D02*
X10308D01*
X10200Y-8408D02*
Y-8192D01*
X10003Y-8733D02*
Y-7867D01*
X10397Y-8733D02*
Y-7867D01*
X10003Y-8733D02*
X10397D01*
X10003Y-7867D02*
X10397D01*
X9592Y-8300D02*
X9808D01*
X9700Y-8408D02*
Y-8192D01*
X9926Y-8782D02*
Y-7818D01*
X9474Y-8782D02*
Y-7818D01*
X9926D01*
X9474Y-8782D02*
X9926D01*
X12203Y-10300D02*
X12597D01*
X12400Y-10497D02*
Y-10103D01*
X-8197Y-6800D02*
X-7803D01*
X-8000Y-6997D02*
Y-6603D01*
X-7498Y-7469D02*
Y-6131D01*
X-8512Y-7469D02*
Y-6131D01*
X-7498D01*
X-8512Y-7469D02*
X-7498D01*
X10403Y-9700D02*
X10797D01*
X10600Y-9897D02*
Y-9503D01*
D83*
X6085Y6670D02*
X7266D01*
X6085Y7536D02*
X7266D01*
Y6670D02*
Y7536D01*
X6085Y6670D02*
Y7536D01*
X10948Y5985D02*
Y6615D01*
X9452Y5985D02*
Y6615D01*
Y5985D02*
X10948D01*
X9452Y6615D02*
X10948D01*
X-230Y-8124D02*
Y-3676D01*
X-3970Y-8124D02*
Y-3676D01*
X-230D01*
X-3970Y-8124D02*
X-230D01*
X-2789Y-9732D02*
X-1411D01*
X-2789Y-8669D02*
X-1411D01*
Y-9732D02*
Y-8669D01*
X-2789Y-9732D02*
Y-8669D01*
X-1154Y5131D02*
X224D01*
X-1154Y4069D02*
X224D01*
X-1154D02*
Y5131D01*
X224Y4069D02*
Y5131D01*
X-6427Y4427D02*
X-3573D01*
X-6427Y1573D02*
X-3573D01*
Y4427D01*
X-6427Y1573D02*
Y4427D01*
X11711Y-10832D02*
Y-9768D01*
X13089Y-10832D02*
Y-9768D01*
X11711D02*
X13089D01*
X11711Y-10832D02*
X13089D01*
X9878Y-10625D02*
Y-8775D01*
X11322Y-10625D02*
Y-8775D01*
X9878D02*
X11322D01*
X9878Y-10625D02*
X11322D01*
M02*
